<?xml version="1.0" encoding="UTF-8" standalone="no"?>
<!DOCTYPE svg PUBLIC "-//W3C//DTD SVG 1.1//EN" "http://www.w3.org/Graphics/SVG/1.1/DTD/svg11.dtd">
<svg width="100%" height="100%" viewBox="0 0 3600 2700" version="1.1" xmlns="http://www.w3.org/2000/svg" xmlns:xlink="http://www.w3.org/1999/xlink" xml:space="preserve" xmlns:serif="http://www.serif.com/" style="fill-rule:evenodd;clip-rule:evenodd;stroke-linejoin:round;stroke-miterlimit:2;">
    <rect id="SPDC-Logo-Color" x="0" y="0" width="3600" height="2700" style="fill:none;"/>
    <g id="SPDC-Logo-Color1" serif:id="SPDC-Logo-Color">
        <g>
            <g>
                <path d="M963.088653,778.486104c-19.327874,0 -37.850421,-3.159364 -55.567639,-9.478092c-17.717218,-6.318728 -31.407796,-14.433957 -41.071733,-24.345688l10.779007,-21.186324c9.168351,8.920557 21.496065,16.416304 36.983144,22.487238c15.487079,6.070935 31.779486,9.106402 48.877221,9.106402c16.354355,0 29.673243,-2.044294 39.956663,-6.132883c10.28342,-4.088589 17.841115,-9.601989 22.673083,-16.5402c4.831969,-6.938211 7.247953,-14.619802 7.247953,-23.044773c0,-10.159524 -2.911571,-18.336701 -8.734712,-24.531533c-5.823142,-6.194832 -13.442784,-11.088748 -22.858928,-14.681751c-9.416144,-3.593002 -19.823461,-6.752366 -31.221951,-9.478092c-11.39849,-2.725726 -22.79698,-5.637297 -34.19547,-8.734712c-11.39849,-3.097416 -21.867755,-7.247953 -31.407796,-12.451611c-9.540041,-5.203658 -17.221632,-12.079922 -23.044773,-20.628789c-5.823142,-8.548868 -8.734712,-19.761513 -8.734712,-33.637935c0,-12.88525 3.407157,-24.717378 10.221472,-35.496385c6.814315,-10.779007 17.28358,-19.451771 31.407796,-26.018292c14.124216,-6.566521 32.213124,-9.849782 54.266724,-9.849782c14.619802,0 29.115708,2.044294 43.487717,6.132883c14.372009,4.088589 26.761672,9.725886 37.168989,16.91189l-9.292247,21.929704c-11.150697,-7.433798 -22.982825,-12.88525 -35.496385,-16.354355c-12.51356,-3.469106 -24.593481,-5.203658 -36.239765,-5.203658c-15.610975,0 -28.496225,2.106243 -38.655749,6.318728c-10.159524,4.212485 -17.65527,9.849782 -22.487238,16.91189c-4.831969,7.062108 -7.247953,15.053441 -7.247953,23.973998c0,10.159524 2.911571,18.336701 8.734712,24.531533c5.823142,6.194832 13.504733,11.0268 23.044773,14.495906c9.540041,3.469106 20.009306,6.566521 31.407796,9.292247c11.39849,2.725726 22.735032,5.699245 34.009625,8.920557c11.274593,3.221312 21.68191,7.37185 31.221951,12.451611c9.540041,5.079762 17.221632,11.832128 23.044773,20.257099c5.823142,8.424971 8.734712,19.451771 8.734712,33.0804c0,12.637456 -3.469106,24.345688 -10.407317,35.124695c-6.938211,10.779007 -17.531373,19.451771 -31.779486,26.018292c-14.248113,6.566521 -32.522866,9.849782 -54.824259,9.849782Z" style="fill-rule:nonzero;"/>
                <path d="M1150.420359,776.255964l-73.594599,-195.137194l25.274913,0l66.904181,181.012978l-11.522387,0l68.76263,-181.012978l22.673083,0l68.01925,181.012978l-11.522387,0l68.01925,-181.012978l24.159843,0l-73.966289,195.137194l-24.903223,0l-65.417421,-170.233971l7.805488,0l-65.789111,170.233971l-24.903223,0Z" style="fill-rule:nonzero;"/>
                <path d="M1437.364956,776.255964l0,-195.137194l26.389982,0l0,195.137194l-26.389982,0Zm13.380836,-238.253221c-5.451452,0 -10.035627,-1.858449 -13.752526,-5.575348c-3.716899,-3.716899 -5.575348,-8.177178 -5.575348,-13.380836c0,-5.203658 1.858449,-9.601989 5.575348,-13.194991c3.716899,-3.593002 8.301074,-5.389503 13.752526,-5.389503c5.451452,0 10.035627,1.734553 13.752526,5.203658c3.716899,3.469106 5.575348,7.805488 5.575348,13.009146c0,5.451452 -1.796501,10.035627 -5.389503,13.752526c-3.593002,3.716899 -8.239126,5.575348 -13.938371,5.575348Z" style="fill-rule:nonzero;"/>
                <path d="M1589.757812,778.114414c-16.106562,0 -31.345848,-2.292088 -45.717857,-6.876263c-14.372009,-4.584175 -25.646603,-10.345369 -33.82378,-17.28358l11.894077,-20.814634c7.929384,5.947038 18.088908,11.088748 30.478571,15.425131c12.389663,4.336382 25.398809,6.504573 39.027439,6.504573c18.584495,0 31.965331,-2.911571 40.142508,-8.734712c8.177178,-5.823142 12.265766,-13.566681 12.265766,-23.230618c0,-7.186005 -2.292088,-12.823301 -6.876263,-16.91189c-4.584175,-4.088589 -10.593162,-7.186005 -18.02696,-9.292247c-7.433798,-2.106243 -15.734872,-3.902744 -24.903223,-5.389503c-9.168351,-1.48676 -18.274753,-3.221312 -27.319207,-5.203658c-9.044454,-1.982346 -17.28358,-4.893917 -24.717378,-8.734712c-7.433798,-3.840796 -13.442784,-9.106402 -18.02696,-15.79682c-4.584175,-6.690418 -6.876263,-15.610975 -6.876263,-26.761672c0,-10.65511 2.973519,-20.195151 8.920557,-28.620122c5.947038,-8.424971 14.681751,-15.053441 26.204137,-19.885409c11.522387,-4.831969 25.584654,-7.247953 42.186803,-7.247953c12.637456,0 25.274913,1.672605 37.912369,5.017814c12.637456,3.345209 23.044773,7.743539 31.221951,13.194991l-11.522387,21.186324c-8.672764,-5.947038 -17.965011,-10.221472 -27.876742,-12.823301c-9.91173,-2.601829 -19.823461,-3.902744 -29.735191,-3.902744c-17.593322,0 -30.54052,3.035467 -38.841594,9.106402c-8.301074,6.070935 -12.451611,13.814474 -12.451611,23.230618c0,7.433798 2.292088,13.25694 6.876263,17.469425c4.584175,4.212485 10.65511,7.495746 18.212805,9.849782c7.557694,2.354036 15.858769,4.274434 24.903223,5.761193c9.044454,1.48676 18.088908,3.283261 27.133362,5.389503c9.044454,2.106243 17.345528,4.955865 24.903223,8.548868c7.557694,3.593002 13.628629,8.672764 18.212805,15.239286c4.584175,6.566521 6.876263,15.177337 6.876263,25.832448c0,11.39849 -3.159364,21.248272 -9.478092,29.549346c-6.318728,8.301074 -15.487079,14.743699 -27.505052,19.327874c-12.017973,4.584175 -26.575827,6.876263 -43.673562,6.876263Z" style="fill-rule:nonzero;"/>
                <path d="M1771.142479,778.114414c-16.106562,0 -31.345848,-2.292088 -45.717857,-6.876263c-14.372009,-4.584175 -25.646603,-10.345369 -33.82378,-17.28358l11.894077,-20.814634c7.929384,5.947038 18.088908,11.088748 30.478571,15.425131c12.389663,4.336382 25.398809,6.504573 39.027439,6.504573c18.584495,0 31.965331,-2.911571 40.142508,-8.734712c8.177178,-5.823142 12.265766,-13.566681 12.265766,-23.230618c0,-7.186005 -2.292088,-12.823301 -6.876263,-16.91189c-4.584175,-4.088589 -10.593162,-7.186005 -18.02696,-9.292247c-7.433798,-2.106243 -15.734872,-3.902744 -24.903223,-5.389503c-9.168351,-1.48676 -18.274753,-3.221312 -27.319207,-5.203658c-9.044454,-1.982346 -17.28358,-4.893917 -24.717378,-8.734712c-7.433798,-3.840796 -13.442784,-9.106402 -18.02696,-15.79682c-4.584175,-6.690418 -6.876263,-15.610975 -6.876263,-26.761672c0,-10.65511 2.973519,-20.195151 8.920557,-28.620122c5.947038,-8.424971 14.681751,-15.053441 26.204137,-19.885409c11.522387,-4.831969 25.584654,-7.247953 42.186803,-7.247953c12.637456,0 25.274913,1.672605 37.912369,5.017814c12.637456,3.345209 23.044773,7.743539 31.221951,13.194991l-11.522387,21.186324c-8.672764,-5.947038 -17.965011,-10.221472 -27.876742,-12.823301c-9.91173,-2.601829 -19.823461,-3.902744 -29.735191,-3.902744c-17.593322,0 -30.54052,3.035467 -38.841594,9.106402c-8.301074,6.070935 -12.451611,13.814474 -12.451611,23.230618c0,7.433798 2.292088,13.25694 6.876263,17.469425c4.584175,4.212485 10.65511,7.495746 18.212805,9.849782c7.557694,2.354036 15.858769,4.274434 24.903223,5.761193c9.044454,1.48676 18.088908,3.283261 27.133362,5.389503c9.044454,2.106243 17.345528,4.955865 24.903223,8.548868c7.557694,3.593002 13.628629,8.672764 18.212805,15.239286c4.584175,6.566521 6.876263,15.177337 6.876263,25.832448c0,11.39849 -3.159364,21.248272 -9.478092,29.549346c-6.318728,8.301074 -15.487079,14.743699 -27.505052,19.327874c-12.017973,4.584175 -26.575827,6.876263 -43.673562,6.876263Z" style="fill-rule:nonzero;"/>
                <path d="M865.334211,1245.47963l0,-260.182925l97.382752,0c22.0536,0 41.009785,3.531054 56.868554,10.593162c15.858769,7.062108 28.062587,17.221632 36.611454,30.478571c8.548868,13.25694 12.823301,29.301553 12.823301,48.133841c0,18.336701 -4.274434,34.133522 -12.823301,47.390461c-8.548868,13.25694 -20.752686,23.478412 -36.611454,30.664416c-15.858769,7.186005 -34.814953,10.779007 -56.868554,10.779007l-82.143466,0l12.265766,-13.009146l0,95.152612l-27.505052,0Zm27.505052,-92.922473l-12.265766,-13.380836l81.400086,0c26.018292,0 45.779805,-5.637297 59.284538,-16.91189c13.504733,-11.274593 20.257099,-27.19531 20.257099,-47.762151c0,-20.814634 -6.752366,-36.921196 -20.257099,-48.319686c-13.504733,-11.39849 -33.266245,-17.097735 -59.284538,-17.097735l-81.400086,0l12.265766,-13.009146l0,156.481445Z" style="fill-rule:nonzero;"/>
                <path d="M1118.083338,1245.47963l0,-195.137194l25.274913,0l0,53.151655l-2.601829,-9.292247c5.451452,-14.867596 14.619802,-26.204137 27.505052,-34.009625c12.88525,-7.805488 28.867915,-11.708232 47.947996,-11.708232l0,25.646603c-0.991173,0 -1.982346,-0.061948 -2.973519,-0.185845c-0.991173,-0.123897 -1.982346,-0.185845 -2.973519,-0.185845c-20.566841,0 -36.673403,6.25678 -48.319686,18.77034c-11.646283,12.51356 -17.469425,30.292726 -17.469425,53.3375l0,99.612891l-26.389982,0Z" style="fill-rule:nonzero;"/>
                <path d="M1341.840653,1247.338079c-18.832288,0 -35.744178,-4.274434 -50.73567,-12.823301c-14.991492,-8.548868 -26.823621,-20.319047 -35.496385,-35.31054c-8.672764,-14.991492 -13.009146,-32.151176 -13.009146,-51.47905c0,-19.575668 4.336382,-36.797299 13.009146,-51.664895c8.672764,-14.867596 20.442944,-26.513879 35.31054,-34.93885c14.867596,-8.424971 31.841434,-12.637456 50.921515,-12.637456c19.327874,0 36.487558,4.212485 51.47905,12.637456c14.991492,8.424971 26.761672,20.071254 35.31054,34.93885c8.548868,14.867596 12.823301,32.089227 12.823301,51.664895c0,19.327874 -4.274434,36.487558 -12.823301,51.47905c-8.548868,14.991492 -20.380996,26.761672 -35.496385,35.31054c-15.115389,8.548868 -32.213124,12.823301 -51.293205,12.823301Zm0,-23.416463c14.124216,0 26.637776,-3.159364 37.540679,-9.478092c10.902904,-6.318728 19.513719,-15.239286 25.832448,-26.761672c6.318728,-11.522387 9.478092,-24.841274 9.478092,-39.956663c0,-15.363182 -3.159364,-28.744018 -9.478092,-40.142508c-6.318728,-11.39849 -14.929544,-20.257099 -25.832448,-26.575827c-10.902904,-6.318728 -23.292567,-9.478092 -37.168989,-9.478092c-13.876423,0 -26.266086,3.159364 -37.168989,9.478092c-10.902904,6.318728 -19.575668,15.177337 -26.018292,26.575827c-6.442625,11.39849 -9.663937,24.779326 -9.663937,40.142508c0,15.115389 3.221312,28.434277 9.663937,39.956663c6.442625,11.522387 15.115389,20.442944 26.018292,26.761672c10.902904,6.318728 23.16867,9.478092 36.797299,9.478092Z" style="fill-rule:nonzero;"/>
                <path d="M1466.356767,1319.445918c-7.929384,0 -15.549027,-1.053121 -22.858928,-3.159364c-7.309901,-2.106243 -13.442784,-5.265607 -18.39865,-9.478092l9.292247,-20.071254c7.929384,6.690418 18.088908,10.035627 30.478571,10.035627c10.407317,0 18.39865,-3.097416 23.973998,-9.292247c5.575348,-6.194832 8.363023,-15.363182 8.363023,-27.505052l0,-209.633099l26.389982,0l0,209.633099c0,18.088908 -4.893917,32.522866 -14.681751,43.301872c-9.787834,10.779007 -23.973998,16.16851 -42.558493,16.16851Zm44.231097,-312.21951c-5.451452,0 -10.035627,-1.858449 -13.752526,-5.575348c-3.716899,-3.716899 -5.575348,-8.177178 -5.575348,-13.380836c0,-5.203658 1.858449,-9.601989 5.575348,-13.194991c3.716899,-3.593002 8.301074,-5.389503 13.752526,-5.389503c5.451452,0 10.035627,1.734553 13.752526,5.203658c3.716899,3.469106 5.575348,7.805488 5.575348,13.009146c0,5.451452 -1.796501,10.035627 -5.389503,13.752526c-3.593002,3.716899 -8.239126,5.575348 -13.938371,5.575348Z" style="fill-rule:nonzero;"/>
                <path d="M1680.078456,1247.338079c-20.319047,0 -38.160162,-4.274434 -53.523345,-12.823301c-15.363182,-8.548868 -27.381155,-20.319047 -36.05392,-35.31054c-8.672764,-14.991492 -13.009146,-32.151176 -13.009146,-51.47905c0,-19.327874 4.150537,-36.425609 12.451611,-51.293205c8.301074,-14.867596 19.699564,-26.575827 34.19547,-35.124695c14.495906,-8.548868 30.788313,-12.823301 48.877221,-12.823301c18.336701,0 34.629108,4.150537 48.877221,12.451611c14.248113,8.301074 25.460758,19.947358 33.637935,34.93885c8.177178,14.991492 12.265766,32.275072 12.265766,51.85074c0,1.238966 -0.061948,2.539881 -0.185845,3.902744c-0.123897,1.362863 -0.185845,2.787674 -0.185845,4.274434l-169.862281,0l0,-19.699564l155.738065,0l-10.407317,7.805488c0,-14.124216 -3.035467,-26.699724 -9.106402,-37.726524c-6.070935,-11.0268 -14.310061,-19.637616 -24.717378,-25.832448c-10.407317,-6.194832 -22.42529,-9.292247 -36.05392,-9.292247c-13.380836,0 -25.398809,3.097416 -36.05392,9.292247c-10.65511,6.194832 -18.956185,14.867596 -24.903223,26.018292c-5.947038,11.150697 -8.920557,23.91205 -8.920557,38.284059l0,4.088589c0,14.867596 3.283261,27.93869 9.849782,39.213284c6.566521,11.274593 15.734872,20.071254 27.505052,26.389982c11.77018,6.318728 25.212964,9.478092 40.328353,9.478092c11.894077,0 22.982825,-2.106243 33.266245,-6.318728c10.28342,-4.212485 19.142029,-10.65511 26.575827,-19.327874l14.867596,17.097735c-8.672764,10.407317 -19.513719,18.336701 -32.522866,23.788153c-13.009146,5.451452 -27.319207,8.177178 -42.930183,8.177178Z" style="fill-rule:nonzero;"/>
                <path d="M1902.720701,1247.338079c-19.327874,0 -36.611454,-4.274434 -51.85074,-12.823301c-15.239286,-8.548868 -27.19531,-20.319047 -35.868075,-35.31054c-8.672764,-14.991492 -13.009146,-32.151176 -13.009146,-51.47905c0,-19.575668 4.336382,-36.797299 13.009146,-51.664895c8.672764,-14.867596 20.628789,-26.513879 35.868075,-34.93885c15.239286,-8.424971 32.522866,-12.637456 51.85074,-12.637456c16.602149,0 31.593641,3.221312 44.974477,9.663937c13.380836,6.442625 23.91205,16.106562 31.593641,28.991812l-19.699564,13.380836c-6.690418,-9.91173 -14.991492,-17.221632 -24.903223,-21.929704c-9.91173,-4.708072 -20.690737,-7.062108 -32.337021,-7.062108c-13.876423,0 -26.389982,3.159364 -37.540679,9.478092c-11.150697,6.318728 -19.947358,15.177337 -26.389982,26.575827c-6.442625,11.39849 -9.663937,24.779326 -9.663937,40.142508c0,15.363182 3.221312,28.744018 9.663937,40.142508c6.442625,11.39849 15.239286,20.257099 26.389982,26.575827c11.150697,6.318728 23.664256,9.478092 37.540679,9.478092c11.646283,0 22.42529,-2.354036 32.337021,-7.062108c9.91173,-4.708072 18.212805,-11.894077 24.903223,-21.558014l19.699564,13.380836c-7.681591,12.637456 -18.212805,22.239445 -31.593641,28.805967c-13.380836,6.566521 -28.372328,9.849782 -44.974477,9.849782Z" style="fill-rule:nonzero;"/>
                <path d="M2094.884376,1247.338079c-18.336701,0 -32.460917,-4.955865 -42.372648,-14.867596c-9.91173,-9.91173 -14.867596,-23.91205 -14.867596,-42.000958l0,-183.243117l26.389982,0l0,181.756357c0,11.39849 2.911571,20.195151 8.734712,26.389982c5.823142,6.194832 14.186164,9.292247 25.089068,9.292247c11.646283,0 21.310221,-3.345209 28.991812,-10.035627l9.292247,18.956185c-5.203658,4.708072 -11.460438,8.177178 -18.77034,10.407317c-7.309901,2.230139 -14.805647,3.345209 -22.487238,3.345209Zm-92.179093,-175.065939l0,-21.929704l120.799215,0l0,21.929704l-120.799215,0Z" style="fill-rule:nonzero;"/>
                <path d="M865.334211,1714.703295l0,-260.182925l105.931619,0c27.752845,0 52.098533,5.5134 73.037064,16.5402c20.938531,11.0268 37.230938,26.328034 48.877221,45.903702c11.646283,19.575668 17.469425,42.124854 17.469425,67.64756c0,25.522706 -5.823142,48.071893 -17.469425,67.64756c-11.646283,19.575668 -27.93869,34.876902 -48.877221,45.903702c-20.938531,11.0268 -45.284219,16.5402 -73.037064,16.5402l-105.931619,0Zm27.505052,-23.788153l76.939808,0c23.044773,0 43.054079,-4.522227 60.027918,-13.566681c16.973838,-9.044454 30.16883,-21.558014 39.584974,-37.540679c9.416144,-15.982665 14.124216,-34.381315 14.124216,-55.195949c0,-21.062427 -4.708072,-39.523025 -14.124216,-55.381794c-9.416144,-15.858769 -22.611135,-28.31038 -39.584974,-37.354834c-16.973838,-9.044454 -36.983144,-13.566681 -60.027918,-13.566681l-76.939808,0l0,212.606619Z" style="fill-rule:nonzero;"/>
                <path d="M1249.66156,1716.561745c-20.319047,0 -38.160162,-4.274434 -53.523345,-12.823301c-15.363182,-8.548868 -27.381155,-20.319047 -36.05392,-35.31054c-8.672764,-14.991492 -13.009146,-32.151176 -13.009146,-51.47905c0,-19.327874 4.150537,-36.425609 12.451611,-51.293205c8.301074,-14.867596 19.699564,-26.575827 34.19547,-35.124695c14.495906,-8.548868 30.788313,-12.823301 48.877221,-12.823301c18.336701,0 34.629108,4.150537 48.877221,12.451611c14.248113,8.301074 25.460758,19.947358 33.637935,34.93885c8.177178,14.991492 12.265766,32.275072 12.265766,51.85074c0,1.238966 -0.061948,2.539881 -0.185845,3.902744c-0.123897,1.362863 -0.185845,2.787674 -0.185845,4.274434l-169.862281,0l0,-19.699564l155.738065,0l-10.407317,7.805488c0,-14.124216 -3.035467,-26.699724 -9.106402,-37.726524c-6.070935,-11.0268 -14.310061,-19.637616 -24.717378,-25.832448c-10.407317,-6.194832 -22.42529,-9.292247 -36.05392,-9.292247c-13.380836,0 -25.398809,3.097416 -36.05392,9.292247c-10.65511,6.194832 -18.956185,14.867596 -24.903223,26.018292c-5.947038,11.150697 -8.920557,23.91205 -8.920557,38.284059l0,4.088589c0,14.867596 3.283261,27.93869 9.849782,39.213284c6.566521,11.274593 15.734872,20.071254 27.505052,26.389982c11.77018,6.318728 25.212964,9.478092 40.328353,9.478092c11.894077,0 22.982825,-2.106243 33.266245,-6.318728c10.28342,-4.212485 19.142029,-10.65511 26.575827,-19.327874l14.867596,17.097735c-8.672764,10.407317 -19.513719,18.336701 -32.522866,23.788153c-13.009146,5.451452 -27.319207,8.177178 -42.930183,8.177178Z" style="fill-rule:nonzero;"/>
                <path d="M1437.736646,1714.703295l-86.603745,-195.137194l27.505052,0l79.541637,181.012978l-13.009146,0l80.656707,-181.012978l26.018292,0l-86.975435,195.137194l-27.133362,0Z" style="fill-rule:nonzero;"/>
                <path d="M1666.32593,1716.561745c-20.319047,0 -38.160162,-4.274434 -53.523345,-12.823301c-15.363182,-8.548868 -27.381155,-20.319047 -36.05392,-35.31054c-8.672764,-14.991492 -13.009146,-32.151176 -13.009146,-51.47905c0,-19.327874 4.150537,-36.425609 12.451611,-51.293205c8.301074,-14.867596 19.699564,-26.575827 34.19547,-35.124695c14.495906,-8.548868 30.788313,-12.823301 48.877221,-12.823301c18.336701,0 34.629108,4.150537 48.877221,12.451611c14.248113,8.301074 25.460758,19.947358 33.637935,34.93885c8.177178,14.991492 12.265766,32.275072 12.265766,51.85074c0,1.238966 -0.061948,2.539881 -0.185845,3.902744c-0.123897,1.362863 -0.185845,2.787674 -0.185845,4.274434l-169.862281,0l0,-19.699564l155.738065,0l-10.407317,7.805488c0,-14.124216 -3.035467,-26.699724 -9.106402,-37.726524c-6.070935,-11.0268 -14.310061,-19.637616 -24.717378,-25.832448c-10.407317,-6.194832 -22.42529,-9.292247 -36.05392,-9.292247c-13.380836,0 -25.398809,3.097416 -36.05392,9.292247c-10.65511,6.194832 -18.956185,14.867596 -24.903223,26.018292c-5.947038,11.150697 -8.920557,23.91205 -8.920557,38.284059l0,4.088589c0,14.867596 3.283261,27.93869 9.849782,39.213284c6.566521,11.274593 15.734872,20.071254 27.505052,26.389982c11.77018,6.318728 25.212964,9.478092 40.328353,9.478092c11.894077,0 22.982825,-2.106243 33.266245,-6.318728c10.28342,-4.212485 19.142029,-10.65511 26.575827,-19.327874l14.867596,17.097735c-8.672764,10.407317 -19.513719,18.336701 -32.522866,23.788153c-13.009146,5.451452 -27.319207,8.177178 -42.930183,8.177178Z" style="fill-rule:nonzero;"/>
                <rect x="1807.939779" y="1438.909395" width="26.389982" height="275.7939" style="fill-rule:nonzero;"/>
                <path d="M1987.465997,1716.561745c-18.832288,0 -35.744178,-4.274434 -50.73567,-12.823301c-14.991492,-8.548868 -26.823621,-20.319047 -35.496385,-35.31054c-8.672764,-14.991492 -13.009146,-32.151176 -13.009146,-51.47905c0,-19.575668 4.336382,-36.797299 13.009146,-51.664895c8.672764,-14.867596 20.442944,-26.513879 35.31054,-34.93885c14.867596,-8.424971 31.841434,-12.637456 50.921515,-12.637456c19.327874,0 36.487558,4.212485 51.47905,12.637456c14.991492,8.424971 26.761672,20.071254 35.31054,34.93885c8.548868,14.867596 12.823301,32.089227 12.823301,51.664895c0,19.327874 -4.274434,36.487558 -12.823301,51.47905c-8.548868,14.991492 -20.380996,26.761672 -35.496385,35.31054c-15.115389,8.548868 -32.213124,12.823301 -51.293205,12.823301Zm0,-23.416463c14.124216,0 26.637776,-3.159364 37.540679,-9.478092c10.902904,-6.318728 19.513719,-15.239286 25.832448,-26.761672c6.318728,-11.522387 9.478092,-24.841274 9.478092,-39.956663c0,-15.363182 -3.159364,-28.744018 -9.478092,-40.142508c-6.318728,-11.39849 -14.929544,-20.257099 -25.832448,-26.575827c-10.902904,-6.318728 -23.292567,-9.478092 -37.168989,-9.478092c-13.876423,0 -26.266086,3.159364 -37.168989,9.478092c-10.902904,6.318728 -19.575668,15.177337 -26.018292,26.575827c-6.442625,11.39849 -9.663937,24.779326 -9.663937,40.142508c0,15.115389 3.221312,28.434277 9.663937,39.956663c6.442625,11.522387 15.115389,20.442944 26.018292,26.761672c10.902904,6.318728 23.16867,9.478092 36.797299,9.478092Z" style="fill-rule:nonzero;"/>
                <path d="M2241.701883,1716.561745c-16.849942,0 -32.089227,-3.902744 -45.717857,-11.708232c-13.628629,-7.805488 -24.469585,-19.080081 -32.522866,-33.82378c-8.053281,-14.743699 -12.079922,-32.770659 -12.079922,-54.080879c0,-21.310221 3.964692,-39.33718 11.894077,-54.080879c7.929384,-14.743699 18.708391,-25.956344 32.337021,-33.637935c13.628629,-7.681591 28.991812,-11.522387 46.089547,-11.522387c18.584495,0 35.248591,4.150537 49.992291,12.451611c14.743699,8.301074 26.328034,19.947358 34.753005,34.93885c8.424971,14.991492 12.637456,32.275072 12.637456,51.85074c0,19.823461 -4.212485,37.168989 -12.637456,52.036585c-8.424971,14.867596 -20.009306,26.513879 -34.753005,34.93885c-14.743699,8.424971 -31.407796,12.637456 -49.992291,12.637456Zm-100.727961,70.24939l0,-267.245033l25.274913,0l0,58.727003l-2.601829,39.027439l3.716899,39.399129l0,130.091462l-26.389982,0Zm98.869511,-93.665853c13.876423,0 26.266086,-3.159364 37.168989,-9.478092c10.902904,-6.318728 19.575668,-15.239286 26.018292,-26.761672c6.442625,-11.522387 9.663937,-24.841274 9.663937,-39.956663c0,-15.115389 -3.221312,-28.372328 -9.663937,-39.770819c-6.442625,-11.39849 -15.115389,-20.319047 -26.018292,-26.761672c-10.902904,-6.442625 -23.292567,-9.663937 -37.168989,-9.663937c-13.876423,0 -26.328034,3.221312 -37.354834,9.663937c-11.0268,6.442625 -19.699564,15.363182 -26.018292,26.761672c-6.318728,11.39849 -9.478092,24.65543 -9.478092,39.770819c0,15.115389 3.159364,28.434277 9.478092,39.956663c6.318728,11.522387 14.991492,20.442944 26.018292,26.761672c11.0268,6.318728 23.478412,9.478092 37.354834,9.478092Z" style="fill-rule:nonzero;"/>
                <path d="M2636.808239,1517.707652c15.858769,0 29.673243,3.035467 41.443423,9.106402c11.77018,6.070935 20.938531,15.301234 27.505052,27.690897c6.566521,12.389663 9.849782,28.000639 9.849782,46.832926l0,113.365417l-26.389982,0l0,-110.763588c0,-20.566841 -4.893917,-36.115868 -14.681751,-46.647082c-9.787834,-10.531214 -23.602308,-15.79682 -41.443423,-15.79682c-13.380836,0 -24.965171,2.787674 -34.753005,8.363023c-9.787834,5.575348 -17.345528,13.628629 -22.673083,24.159843c-5.327555,10.531214 -7.991333,23.230618 -7.991333,38.098214l0,102.58641l-26.389982,0l0,-110.763588c0,-20.566841 -4.955865,-36.115868 -14.867596,-46.647082c-9.91173,-10.531214 -23.788153,-15.79682 -41.629268,-15.79682c-13.133043,0 -24.65543,2.787674 -34.56716,8.363023c-9.91173,5.575348 -17.531373,13.628629 -22.858928,24.159843c-5.327555,10.531214 -7.991333,23.230618 -7.991333,38.098214l0,102.58641l-26.389982,0l0,-195.137194l25.274913,0l0,52.779965l-4.088589,-9.292247c5.947038,-14.124216 15.549027,-25.212964 28.805967,-33.266245c13.25694,-8.053281 28.929863,-12.079922 47.018771,-12.079922c19.080081,0 35.31054,4.77002 48.691376,14.310061c13.380836,9.540041 22.0536,23.850101 26.018292,42.930183l-10.407317,-4.088589c5.699245,-15.858769 15.79682,-28.68207 30.292726,-38.469904c14.495906,-9.787834 31.903382,-14.681751 52.22243,-14.681751Z" style="fill-rule:nonzero;"/>
                <path d="M2870.229492,1716.561745c-20.319047,0 -38.160162,-4.274434 -53.523345,-12.823301c-15.363182,-8.548868 -27.381155,-20.319047 -36.05392,-35.31054c-8.672764,-14.991492 -13.009146,-32.151176 -13.009146,-51.47905c0,-19.327874 4.150537,-36.425609 12.451611,-51.293205c8.301074,-14.867596 19.699564,-26.575827 34.19547,-35.124695c14.495906,-8.548868 30.788313,-12.823301 48.877221,-12.823301c18.336701,0 34.629108,4.150537 48.877221,12.451611c14.248113,8.301074 25.460758,19.947358 33.637935,34.93885c8.177178,14.991492 12.265766,32.275072 12.265766,51.85074c0,1.238966 -0.061948,2.539881 -0.185845,3.902744c-0.123897,1.362863 -0.185845,2.787674 -0.185845,4.274434l-169.862281,0l0,-19.699564l155.738065,0l-10.407317,7.805488c0,-14.124216 -3.035467,-26.699724 -9.106402,-37.726524c-6.070935,-11.0268 -14.310061,-19.637616 -24.717378,-25.832448c-10.407317,-6.194832 -22.42529,-9.292247 -36.05392,-9.292247c-13.380836,0 -25.398809,3.097416 -36.05392,9.292247c-10.65511,6.194832 -18.956185,14.867596 -24.903223,26.018292c-5.947038,11.150697 -8.920557,23.91205 -8.920557,38.284059l0,4.088589c0,14.867596 3.283261,27.93869 9.849782,39.213284c6.566521,11.274593 15.734872,20.071254 27.505052,26.389982c11.77018,6.318728 25.212964,9.478092 40.328353,9.478092c11.894077,0 22.982825,-2.106243 33.266245,-6.318728c10.28342,-4.212485 19.142029,-10.65511 26.575827,-19.327874l14.867596,17.097735c-8.672764,10.407317 -19.513719,18.336701 -32.522866,23.788153c-13.009146,5.451452 -27.319207,8.177178 -42.930183,8.177178Z" style="fill-rule:nonzero;"/>
                <path d="M3111.456232,1517.707652c15.858769,0 29.79714,3.035467 41.815113,9.106402c12.017973,6.070935 21.434117,15.301234 28.248432,27.690897c6.814315,12.389663 10.221472,28.000639 10.221472,46.832926l0,113.365417l-26.389982,0l0,-110.763588c0,-20.566841 -5.14171,-36.115868 -15.425131,-46.647082c-10.28342,-10.531214 -24.717378,-15.79682 -43.301872,-15.79682c-13.876423,0 -25.956344,2.787674 -36.239765,8.363023c-10.28342,5.575348 -18.212805,13.628629 -23.788153,24.159843c-5.575348,10.531214 -8.363023,23.230618 -8.363023,38.098214l0,102.58641l-26.389982,0l0,-195.137194l25.274913,0l0,53.523345l-4.088589,-10.035627c6.194832,-14.124216 16.106562,-25.212964 29.735191,-33.266245c13.628629,-8.053281 29.859088,-12.079922 48.691376,-12.079922Z" style="fill-rule:nonzero;"/>
                <path d="M3324.80623,1716.561745c-18.336701,0 -32.460917,-4.955865 -42.372648,-14.867596c-9.91173,-9.91173 -14.867596,-23.91205 -14.867596,-42.000958l0,-183.243117l26.389982,0l0,181.756357c0,11.39849 2.911571,20.195151 8.734712,26.389982c5.823142,6.194832 14.186164,9.292247 25.089068,9.292247c11.646283,0 21.310221,-3.345209 28.991812,-10.035627l9.292247,18.956185c-5.203658,4.708072 -11.460438,8.177178 -18.77034,10.407317c-7.309901,2.230139 -14.805647,3.345209 -22.487238,3.345209Zm-92.179093,-175.065939l0,-21.929704l120.799215,0l0,21.929704l-120.799215,0Z" style="fill-rule:nonzero;"/>
                <path d="M1000.629332,2186.1571c-19.575668,0 -37.664576,-3.283261 -54.266724,-9.849782c-16.602149,-6.566521 -30.974158,-15.79682 -43.116028,-27.690897c-12.14187,-11.894077 -21.619962,-25.894396 -28.434277,-42.000958c-6.814315,-16.106562 -10.221472,-33.699884 -10.221472,-52.779965c0,-19.080081 3.407157,-36.673403 10.221472,-52.779965c6.814315,-16.106562 16.354355,-30.106881 28.620122,-42.000958c12.265766,-11.894077 26.699724,-21.124376 43.301872,-27.690897c16.602149,-6.566521 34.691057,-9.849782 54.266724,-9.849782c18.832288,0 36.549506,3.159364 53.151655,9.478092c16.602149,6.318728 30.602468,15.79682 42.000958,28.434277l-17.469425,17.469425c-10.65511,-10.902904 -22.42529,-18.77034 -35.31054,-23.602308c-12.88525,-4.831969 -26.761672,-7.247953 -41.629268,-7.247953c-15.610975,0 -30.106881,2.663778 -43.487717,7.991333c-13.380836,5.327555 -25.027119,12.88525 -34.93885,22.673083c-9.91173,9.787834 -17.65527,21.186324 -23.230618,34.19547c-5.575348,13.009146 -8.363023,27.319207 -8.363023,42.930183c0,15.610975 2.787674,29.921036 8.363023,42.930183c5.575348,13.009146 13.318888,24.407636 23.230618,34.19547c9.91173,9.787834 21.558014,17.345528 34.93885,22.673083c13.380836,5.327555 27.876742,7.991333 43.487717,7.991333c14.867596,0 28.744018,-2.477933 41.629268,-7.433798c12.88525,-4.955865 24.65543,-12.88525 35.31054,-23.788153l17.469425,17.469425c-11.39849,12.637456 -25.398809,22.177497 -42.000958,28.620122c-16.602149,6.442625 -34.443263,9.663937 -53.523345,9.663937Z" style="fill-rule:nonzero;"/>
                <path d="M1220.298059,2185.78541c-18.832288,0 -35.744178,-4.274434 -50.73567,-12.823301c-14.991492,-8.548868 -26.823621,-20.319047 -35.496385,-35.31054c-8.672764,-14.991492 -13.009146,-32.151176 -13.009146,-51.47905c0,-19.575668 4.336382,-36.797299 13.009146,-51.664895c8.672764,-14.867596 20.442944,-26.513879 35.31054,-34.93885c14.867596,-8.424971 31.841434,-12.637456 50.921515,-12.637456c19.327874,0 36.487558,4.212485 51.47905,12.637456c14.991492,8.424971 26.761672,20.071254 35.31054,34.93885c8.548868,14.867596 12.823301,32.089227 12.823301,51.664895c0,19.327874 -4.274434,36.487558 -12.823301,51.47905c-8.548868,14.991492 -20.380996,26.761672 -35.496385,35.31054c-15.115389,8.548868 -32.213124,12.823301 -51.293205,12.823301Zm0,-23.416463c14.124216,0 26.637776,-3.159364 37.540679,-9.478092c10.902904,-6.318728 19.513719,-15.239286 25.832448,-26.761672c6.318728,-11.522387 9.478092,-24.841274 9.478092,-39.956663c0,-15.363182 -3.159364,-28.744018 -9.478092,-40.142508c-6.318728,-11.39849 -14.929544,-20.257099 -25.832448,-26.575827c-10.902904,-6.318728 -23.292567,-9.478092 -37.168989,-9.478092c-13.876423,0 -26.266086,3.159364 -37.168989,9.478092c-10.902904,6.318728 -19.575668,15.177337 -26.018292,26.575827c-6.442625,11.39849 -9.663937,24.779326 -9.663937,40.142508c0,15.115389 3.221312,28.434277 9.663937,39.956663c6.442625,11.522387 15.115389,20.442944 26.018292,26.761672c10.902904,6.318728 23.16867,9.478092 36.797299,9.478092Z" style="fill-rule:nonzero;"/>
                <path d="M1617.634554,1986.931318c15.858769,0 29.673243,3.035467 41.443423,9.106402c11.77018,6.070935 20.938531,15.301234 27.505052,27.690897c6.566521,12.389663 9.849782,28.000639 9.849782,46.832926l0,113.365417l-26.389982,0l0,-110.763588c0,-20.566841 -4.893917,-36.115868 -14.681751,-46.647082c-9.787834,-10.531214 -23.602308,-15.79682 -41.443423,-15.79682c-13.380836,0 -24.965171,2.787674 -34.753005,8.363023c-9.787834,5.575348 -17.345528,13.628629 -22.673083,24.159843c-5.327555,10.531214 -7.991333,23.230618 -7.991333,38.098214l0,102.58641l-26.389982,0l0,-110.763588c0,-20.566841 -4.955865,-36.115868 -14.867596,-46.647082c-9.91173,-10.531214 -23.788153,-15.79682 -41.629268,-15.79682c-13.133043,0 -24.65543,2.787674 -34.56716,8.363023c-9.91173,5.575348 -17.531373,13.628629 -22.858928,24.159843c-5.327555,10.531214 -7.991333,23.230618 -7.991333,38.098214l0,102.58641l-26.389982,0l0,-195.137194l25.274913,0l0,52.779965l-4.088589,-9.292247c5.947038,-14.124216 15.549027,-25.212964 28.805967,-33.266245c13.25694,-8.053281 28.929863,-12.079922 47.018771,-12.079922c19.080081,0 35.31054,4.77002 48.691376,14.310061c13.380836,9.540041 22.0536,23.850101 26.018292,42.930183l-10.407317,-4.088589c5.699245,-15.858769 15.79682,-28.68207 30.292726,-38.469904c14.495906,-9.787834 31.903382,-14.681751 52.22243,-14.681751Z" style="fill-rule:nonzero;"/>
                <path d="M1868.896921,2185.78541c-16.849942,0 -32.089227,-3.902744 -45.717857,-11.708232c-13.628629,-7.805488 -24.469585,-19.080081 -32.522866,-33.82378c-8.053281,-14.743699 -12.079922,-32.770659 -12.079922,-54.080879c0,-21.310221 3.964692,-39.33718 11.894077,-54.080879c7.929384,-14.743699 18.708391,-25.956344 32.337021,-33.637935c13.628629,-7.681591 28.991812,-11.522387 46.089547,-11.522387c18.584495,0 35.248591,4.150537 49.992291,12.451611c14.743699,8.301074 26.328034,19.947358 34.753005,34.93885c8.424971,14.991492 12.637456,32.275072 12.637456,51.85074c0,19.823461 -4.212485,37.168989 -12.637456,52.036585c-8.424971,14.867596 -20.009306,26.513879 -34.753005,34.93885c-14.743699,8.424971 -31.407796,12.637456 -49.992291,12.637456Zm-100.727961,70.24939l0,-267.245033l25.274913,0l0,58.727003l-2.601829,39.027439l3.716899,39.399129l0,130.091462l-26.389982,0Zm98.869511,-93.665853c13.876423,0 26.266086,-3.159364 37.168989,-9.478092c10.902904,-6.318728 19.575668,-15.239286 26.018292,-26.761672c6.442625,-11.522387 9.663937,-24.841274 9.663937,-39.956663c0,-15.115389 -3.221312,-28.372328 -9.663937,-39.770819c-6.442625,-11.39849 -15.115389,-20.319047 -26.018292,-26.761672c-10.902904,-6.442625 -23.292567,-9.663937 -37.168989,-9.663937c-13.876423,0 -26.328034,3.221312 -37.354834,9.663937c-11.0268,6.442625 -19.699564,15.363182 -26.018292,26.761672c-6.318728,11.39849 -9.478092,24.65543 -9.478092,39.770819c0,15.115389 3.159364,28.434277 9.478092,39.956663c6.318728,11.522387 14.991492,20.442944 26.018292,26.761672c11.0268,6.318728 23.478412,9.478092 37.354834,9.478092Z" style="fill-rule:nonzero;"/>
                <path d="M2141.345612,2183.926961l0,-43.116028l-1.11507,-7.062108l0,-72.107839c0,-16.602149 -4.646124,-29.363502 -13.938371,-38.284059c-9.292247,-8.920557 -23.106722,-13.380836 -41.443423,-13.380836c-12.637456,0 -24.65543,2.106243 -36.05392,6.318728c-11.39849,4.212485 -21.062427,9.787834 -28.991812,16.726045l-11.894077,-19.699564c9.91173,-8.424971 21.805807,-14.929544 35.68223,-19.513719c13.876423,-4.584175 28.496225,-6.876263 43.859407,-6.876263c25.274913,0 44.788632,6.25678 58.541158,18.77034c13.752526,12.51356 20.628789,31.531693 20.628789,57.054399l0,121.170905l-25.274913,0Zm-67.275871,1.858449c-14.619802,0 -27.319207,-2.415984 -38.098214,-7.247953c-10.779007,-4.831969 -19.018133,-11.522387 -24.717378,-20.071254c-5.699245,-8.548868 -8.548868,-18.39865 -8.548868,-29.549346c0,-10.159524 2.415984,-19.389823 7.247953,-27.690897c4.831969,-8.301074 12.761353,-14.991492 23.788153,-20.071254c11.0268,-5.079762 25.832448,-7.619643 44.416942,-7.619643l67.275871,0l0,19.699564l-66.532491,0c-18.832288,0 -31.903382,3.345209 -39.213284,10.035627c-7.309901,6.690418 -10.964852,14.991492 -10.964852,24.903223c0,11.150697 4.336382,20.071254 13.009146,26.761672c8.672764,6.690418 20.814634,10.035627 36.425609,10.035627c14.867596,0 27.690897,-3.407157 38.469904,-10.221472c10.779007,-6.814315 18.646443,-16.664097 23.602308,-29.549346l5.947038,18.212805c-4.955865,12.88525 -13.566681,23.16867 -25.832448,30.850261c-12.265766,7.681591 -27.690897,11.522387 -46.275392,11.522387Z" style="fill-rule:nonzero;"/>
                <path d="M2337.969565,1986.931318c15.858769,0 29.79714,3.035467 41.815113,9.106402c12.017973,6.070935 21.434117,15.301234 28.248432,27.690897c6.814315,12.389663 10.221472,28.000639 10.221472,46.832926l0,113.365417l-26.389982,0l0,-110.763588c0,-20.566841 -5.14171,-36.115868 -15.425131,-46.647082c-10.28342,-10.531214 -24.717378,-15.79682 -43.301872,-15.79682c-13.876423,0 -25.956344,2.787674 -36.239765,8.363023c-10.28342,5.575348 -18.212805,13.628629 -23.788153,24.159843c-5.575348,10.531214 -8.363023,23.230618 -8.363023,38.098214l0,102.58641l-26.389982,0l0,-195.137194l25.274913,0l0,53.523345l-4.088589,-10.035627c6.194832,-14.124216 16.106562,-25.212964 29.735191,-33.266245c13.628629,-8.053281 29.859088,-12.079922 48.691376,-12.079922Z" style="fill-rule:nonzero;"/>
                <path d="M2487.388902,2257.893249c-9.168351,0 -17.903063,-1.48676 -26.204137,-4.460279c-8.301074,-2.973519 -15.425131,-7.433798 -21.372169,-13.380836l12.265766,-19.699564c4.955865,4.708072 10.345369,8.363023 16.16851,10.964852c5.823142,2.601829 12.327715,3.902744 19.513719,3.902744c8.672764,0 16.16851,-2.415984 22.487238,-7.247953c6.318728,-4.831969 12.327715,-13.318888 18.02696,-25.460758l12.637456,-28.620122l2.973519,-4.088589l80.285017,-181.012978l26.018292,0l-97.754442,218.553657c-5.451452,12.637456 -11.460438,22.673083 -18.02696,30.106881c-6.566521,7.433798 -13.690578,12.699405 -21.372169,15.79682c-7.681591,3.097416 -16.230459,4.646124 -25.646603,4.646124Zm52.036585,-68.39094l-89.948954,-200.712542l27.505052,0l79.541637,179.154528l-17.097735,21.558014Z" style="fill-rule:nonzero;"/>
            </g>
            <g>
                <rect x="233.936192" y="388.718283" width="507.458639" height="1922.563433" style="fill:#014388;"/>
                <g>
                    <path d="M477.258194,780.716243c-20.814634,0 -40.761992,-2.787674 -59.842073,-8.363023c-19.080081,-5.575348 -34.443263,-12.823301 -46.089547,-21.743859l20.442944,-45.346167c11.150697,7.929384 24.345688,14.433957 39.584974,19.513719c15.239286,5.079762 30.664416,7.619643 46.275392,7.619643c11.894077,0 21.496065,-1.177018 28.805967,-3.531054c7.309901,-2.354036 12.699405,-5.637297 16.16851,-9.849782c3.469106,-4.212485 5.203658,-9.044454 5.203658,-14.495906c0,-6.938211 -2.725726,-12.451611 -8.177178,-16.5402c-5.451452,-4.088589 -12.637456,-7.433798 -21.558014,-10.035627c-8.920557,-2.601829 -18.77034,-5.079762 -29.549346,-7.433798c-10.779007,-2.354036 -21.558014,-5.265607 -32.337021,-8.734712c-10.779007,-3.469106 -20.628789,-7.929384 -29.549346,-13.380836c-8.920557,-5.451452 -16.16851,-12.637456 -21.743859,-21.558014c-5.575348,-8.920557 -8.363023,-20.319047 -8.363023,-34.19547c0,-14.867596 4.026641,-28.434277 12.079922,-40.700043c8.053281,-12.265766 20.195151,-22.0536 36.425609,-29.363502c16.230459,-7.309901 36.611454,-10.964852 61.142987,-10.964852c16.354355,0 32.460917,1.920398 48.319686,5.761193c15.858769,3.840796 29.859088,9.601989 42.000958,17.28358l-18.584495,45.717857c-12.14187,-6.938211 -24.28374,-12.079922 -36.425609,-15.425131c-12.14187,-3.345209 -24.035946,-5.017814 -35.68223,-5.017814c-11.646283,0 -21.186324,1.362863 -28.620122,4.088589c-7.433798,2.725726 -12.761353,6.25678 -15.982665,10.593162c-3.221312,4.336382 -4.831969,9.354196 -4.831969,15.053441c0,6.690418 2.725726,12.079922 8.177178,16.16851c5.451452,4.088589 12.637456,7.37185 21.558014,9.849782c8.920557,2.477933 18.77034,4.955865 29.549346,7.433798c10.779007,2.477933 21.558014,5.327555 32.337021,8.548868c10.779007,3.221312 20.628789,7.557694 29.549346,13.009146c8.920557,5.451452 16.16851,12.637456 21.743859,21.558014c5.575348,8.920557 8.363023,20.195151 8.363023,33.82378c0,14.619802 -4.088589,28.000639 -12.265766,40.142508c-8.177178,12.14187 -20.380996,21.929704 -36.611454,29.363502c-16.230459,7.433798 -36.735351,11.150697 -61.514677,11.150697Z" style="fill:#ebebeb;fill-rule:nonzero;"/>
                    <path d="M374.300094,1245.47963l0,-260.182925l112.622037,0c23.292567,0 43.363821,3.778847 60.213763,11.336542c16.849942,7.557694 29.859088,18.39865 39.027439,32.522866c9.168351,14.124216 13.752526,30.974158 13.752526,50.549825c0,19.327874 -4.584175,36.05392 -13.752526,50.178135c-9.168351,14.124216 -22.177497,24.965171 -39.027439,32.522866c-16.849942,7.557694 -36.921196,11.336542 -60.213763,11.336542l-79.169947,0l26.761672,-27.133362l0,98.869511l-60.213763,0Zm60.213763,-92.179093l-26.761672,-28.620122l75.824738,0c18.584495,0 32.460917,-3.964692 41.629268,-11.894077c9.168351,-7.929384 13.752526,-18.956185 13.752526,-33.0804c0,-14.372009 -4.584175,-25.522706 -13.752526,-33.45209c-9.168351,-7.929384 -23.044773,-11.894077 -41.629268,-11.894077l-75.824738,0l26.761672,-28.620122l0,147.560887Z" style="fill:#ebebeb;fill-rule:nonzero;"/>
                    <path d="M356.830669,1714.703295l0,-260.182925l118.197386,0c28.248432,0 53.151655,5.389503 74.709668,16.16851c21.558014,10.779007 38.407956,25.832448 50.549825,45.160322c12.14187,19.327874 18.212805,42.248751 18.212805,68.76263c0,26.266086 -6.070935,49.125014 -18.212805,68.576785c-12.14187,19.451771 -28.991812,34.56716 -50.549825,45.346167c-21.558014,10.779007 -46.461237,16.16851 -74.709668,16.16851l-118.197386,0Zm60.213763,-49.434756l55.010104,0c17.345528,0 32.398969,-3.283261 45.160322,-9.849782c12.761353,-6.566521 22.673083,-15.920717 29.735191,-28.062587c7.062108,-12.14187 10.593162,-26.389982 10.593162,-42.744338c0,-16.602149 -3.531054,-30.912209 -10.593162,-42.930183c-7.062108,-12.017973 -16.973838,-21.310221 -29.735191,-27.876742c-12.761353,-6.566521 -27.814794,-9.849782 -45.160322,-9.849782l-55.010104,0l0,161.313413Z" style="fill:#ebebeb;fill-rule:nonzero;"/>
                    <path d="M498.630363,2188.387239c-20.071254,0 -38.717697,-3.283261 -55.939329,-9.849782c-17.221632,-6.566521 -32.151176,-15.920717 -44.788632,-28.062587c-12.637456,-12.14187 -22.487238,-26.389982 -29.549346,-42.744338c-7.062108,-16.354355 -10.593162,-34.319367 -10.593162,-53.895034c0,-19.575668 3.531054,-37.540679 10.593162,-53.895034c7.062108,-16.354355 16.973838,-30.602468 29.735191,-42.744338c12.761353,-12.14187 27.690897,-21.496065 44.788632,-28.062587c17.097735,-6.566521 35.806126,-9.849782 56.125174,-9.849782c22.549187,0 42.930183,3.902744 61.142987,11.708232c18.212805,7.805488 33.514039,19.265926 45.903702,34.381315l-38.655749,35.68223c-8.920557,-10.159524 -18.832288,-17.779167 -29.735191,-22.858928c-10.902904,-5.079762 -22.79698,-7.619643 -35.68223,-7.619643c-12.14187,0 -23.292567,1.982346 -33.45209,5.947038c-10.159524,3.964692 -18.956185,9.663937 -26.389982,17.097735c-7.433798,7.433798 -13.194991,16.230459 -17.28358,26.389982c-4.088589,10.159524 -6.132883,21.434117 -6.132883,33.82378c0,12.389663 2.044294,23.664256 6.132883,33.82378c4.088589,10.159524 9.849782,18.956185 17.28358,26.389982c7.433798,7.433798 16.230459,13.133043 26.389982,17.097735c10.159524,3.964692 21.310221,5.947038 33.45209,5.947038c12.88525,0 24.779326,-2.539881 35.68223,-7.619643c10.902904,-5.079762 20.814634,-12.823301 29.735191,-23.230618l38.655749,35.68223c-12.389663,15.115389 -27.690897,26.637776 -45.903702,34.56716c-18.212805,7.929384 -38.717697,11.894077 -61.514677,11.894077Z" style="fill:#ebebeb;fill-rule:nonzero;"/>
                </g>
            </g>
        </g>
    </g>
</svg>
