<?xml version="1.0" encoding="UTF-8" standalone="no"?><!DOCTYPE svg PUBLIC "-//W3C//DTD SVG 1.1//EN" "http://www.w3.org/Graphics/SVG/1.1/DTD/svg11.dtd"><svg width="100%" height="100%" viewBox="0 0 480 480" version="1.1" xmlns="http://www.w3.org/2000/svg" xmlns:xlink="http://www.w3.org/1999/xlink" xml:space="preserve" xmlns:serif="http://www.serif.com/" style="fill-rule:evenodd;clip-rule:evenodd;stroke-linecap:round;stroke-linejoin:round;stroke-miterlimit:1.5;"><rect id="_1" serif:id="1" x="0" y="0" width="480" height="480" style="fill:none;"/><g id="_11" serif:id="1"><g><g><circle cx="240" cy="245.386" r="189.287" style="fill:none;stroke:#000;stroke-width:16px;"/><path d="M205.891,210.341l119.243,-50.089l-50.089,120.179l-120.179,50.089l51.025,-120.179Z" style="fill:none;stroke:#000;stroke-width:16px;"/></g><circle cx="240" cy="94.647" r="12.177"/><path d="M402.915,245.386c0,6.72 -5.456,12.177 -12.177,12.177c-6.72,0 -12.177,-5.456 -12.177,-12.177c0,-6.72 5.456,-12.177 12.177,-12.177c6.72,-0 12.177,5.456 12.177,12.177Z"/><circle cx="240" cy="396.125" r="12.177"/><path d="M71.699,240c0,-6.72 5.456,-12.177 12.177,-12.177c6.72,0 12.177,5.456 12.177,12.177c0,6.72 -5.456,12.177 -12.177,12.177c-6.72,-0 -12.177,-5.456 -12.177,-12.177Z"/></g></g></svg>