<?xml version="1.0" encoding="UTF-8" standalone="no"?><!DOCTYPE svg PUBLIC "-//W3C//DTD SVG 1.1//EN" "http://www.w3.org/Graphics/SVG/1.1/DTD/svg11.dtd"><svg width="100%" height="100%" viewBox="0 0 480 481" version="1.1" xmlns="http://www.w3.org/2000/svg" xmlns:xlink="http://www.w3.org/1999/xlink" xml:space="preserve" xmlns:serif="http://www.serif.com/" style="fill-rule:evenodd;clip-rule:evenodd;stroke-linecap:round;stroke-linejoin:round;stroke-miterlimit:1.5;"><rect id="_10" serif:id="10" x="0" y="0.18" width="480" height="480" style="fill:none;"/><g><circle cx="95.809" cy="387.525" r="28.451" style="fill:none;stroke:#000;stroke-width:16px;"/><circle cx="382.807" cy="387.525" r="28.451" style="fill:none;stroke:#000;stroke-width:16px;"/><path d="M239.687,271.411l-121.831,0c-32.839,0 -59.501,-26.661 -59.501,-59.501c0,-31.702 24.847,-57.647 56.113,-59.406c2.725,-50.982 44.983,-91.541 96.64,-91.541c29.319,0 55.61,13.066 73.364,33.687c4.873,-1.292 9.99,-1.98 15.266,-1.98c32.839,0 59.501,26.661 59.501,59.501c-0,0.103 -0,0.205 -0.001,0.308c0.963,-0.046 1.931,-0.07 2.905,-0.07c32.839,0 59.501,26.661 59.501,59.501c0,32.839 -26.661,59.501 -59.501,59.501l-62.405,-0" style="fill:none;stroke:#000;stroke-width:16px;"/><path d="M116.106,232.003c-10.913,0 -19.773,-8.86 -19.773,-19.773c0,-10.913 8.86,-19.773 19.773,-19.773" style="fill:none;stroke:#000;stroke-width:16px;"/><path d="M239.308,328.721l0,90.674" style="fill:none;stroke:#000;stroke-width:16px;"/><path d="M178.878,271.411l0,79.712c0,6.486 -3.84,22.189 -54.618,32.003" style="fill:none;stroke:#000;stroke-width:16px;"/><path d="M299.738,271.411l0,79.712c0,6.486 3.84,22.189 54.618,32.003" style="fill:none;stroke:#000;stroke-width:16px;"/></g></svg>