<?xml version="1.0" encoding="UTF-8" standalone="no"?><!DOCTYPE svg PUBLIC "-//W3C//DTD SVG 1.1//EN" "http://www.w3.org/Graphics/SVG/1.1/DTD/svg11.dtd"><svg width="100%" height="100%" viewBox="0 0 480 481" version="1.1" xmlns="http://www.w3.org/2000/svg" xmlns:xlink="http://www.w3.org/1999/xlink" xml:space="preserve" xmlns:serif="http://www.serif.com/" style="fill-rule:evenodd;clip-rule:evenodd;stroke-linecap:round;stroke-linejoin:round;stroke-miterlimit:1.5;"><rect id="_11" serif:id="11" x="0" y="0.173" width="480" height="480" style="fill:none;"/><g><path d="M346.768,312.483l16.188,16.188l37.444,-37.444" style="fill:none;stroke:#000;stroke-width:16px;"/><path d="M172.497,152.438l132.402,0" style="fill:none;stroke:#000;stroke-width:16px;"/><path d="M172.497,196.443l132.402,0" style="fill:none;stroke:#000;stroke-width:16px;"/><path d="M172.497,240.449l104.898,0" style="fill:none;stroke:#000;stroke-width:16px;"/><path d="M172.497,284.455l104.898,0" style="fill:none;stroke:#000;stroke-width:16px;"/><path d="M304.899,394.883l-221.857,0c-24.991,0 -42.947,-19.987 -42.947,-44.606l0,-14.162l221.857,0c-1.513,4.45 -2.333,9.212 -2.333,14.162c-0,24.619 20.289,44.606 45.28,44.606Z" style="fill:none;stroke:#000;stroke-width:16px;"/><path d="M438.405,144.231l-88.227,0l0,-14.162c-0,-24.619 20.289,-44.606 45.28,-44.606c24.991,0 42.947,19.987 42.947,44.606l0,14.162Z" style="fill:none;stroke:#000;stroke-width:16px;"/><path d="M320.31,389.87c-1.672,1.672 -9.19,5.013 -15.411,5.013c-24.991,0 -45.28,-19.987 -45.28,-44.606l0,-14.162l-131.297,0l0,-206.045c0,-24.619 20.289,-44.606 45.28,-44.606l221.857,0c-24.991,0 -45.28,19.987 -45.28,44.606l-0,77.871" style="fill:none;stroke:#000;stroke-width:16px;"/><path d="M307.263,245.866l66.321,-20.068l66.321,20.068l0,71.106c0,33.554 -44.214,77.129 -66.321,77.129c-8.73,0 -20.908,-6.796 -32.449,-17.086c-17.683,-15.767 -33.872,-39.74 -33.872,-60.043l0,-71.106Z" style="fill:none;stroke:#000;stroke-width:16px;"/></g></svg>