<?xml version="1.0" encoding="UTF-8" standalone="no"?><!DOCTYPE svg PUBLIC "-//W3C//DTD SVG 1.1//EN" "http://www.w3.org/Graphics/SVG/1.1/DTD/svg11.dtd"><svg width="100%" height="100%" viewBox="0 0 480 481" version="1.1" xmlns="http://www.w3.org/2000/svg" xmlns:xlink="http://www.w3.org/1999/xlink" xml:space="preserve" xmlns:serif="http://www.serif.com/" style="fill-rule:evenodd;clip-rule:evenodd;stroke-linecap:round;stroke-linejoin:round;stroke-miterlimit:1.5;"><rect id="_12" serif:id="12" x="0" y="0.056" width="480" height="480" style="fill:none;"/><g><path d="M271.926,330.631c0.636,1.475 0.593,3.13 0.044,4.856m-62.575,9.62c-3.708,-0.086 -8.133,1.065 -10.463,1.671m10.463,-1.671c-3.708,-0.086 -8.133,1.065 -10.463,1.671m10.463,-48.679c10.992,2.996 22.888,7.913 33.368,13.129c12.803,6.372 23.492,13.19 27.838,17.495c0.597,0.591 1.033,1.231 1.325,1.908c0.636,1.475 0.593,3.13 0.044,4.856m-62.575,9.62c-3.708,-0.086 -8.133,1.065 -10.463,1.671" style="fill:none;stroke:#000;stroke-width:16px;"/><path d="M270.601,335.696l1.369,-0.21m-1.369,0.21l1.369,-0.21m-1.369,0.21l1.369,-0.21" style="fill:none;stroke:#000;stroke-width:16px;"/><path d="M204.126,295.451l0,-61.895l33.368,-19.885l0,91.578" style="fill:none;stroke:#000;stroke-width:16px;"/><path d="M135.741,305.249l0,-89.72l33.368,14.352l0,66.98c-10.924,1.294 -22.565,4.581 -33.368,8.387Z" style="fill:none;stroke:#000;stroke-width:16px;"/><path d="M112.894,159.932l78.485,33.281c0,0 196.427,-116.924 203.305,-121.017" style="fill:none;stroke:#000;stroke-width:16px;"/><path d="M272.511,331.674l0,-138.894l33.368,-19.885l0,148.805" style="fill:none;stroke:#000;stroke-width:16px;"/><path d="M340.896,304.078l0,-151.489l33.368,-19.885l-0,153.322" style="fill:none;stroke:#000;stroke-width:16px;"/><rect x="78.826" y="307.216" width="36.431" height="97.604" style="fill:none;stroke:#000;stroke-width:16px;"/><path d="M271.926,335.621l0.044,-0.134l19.872,-3.047c0,0 5.343,-3.094 13.453,-7.683c7.891,-4.465 18.403,-10.345 29.163,-16.166c11.885,-6.429 24.073,-12.787 33.368,-17.087c4.864,-2.25 8.936,-3.937 11.758,-4.776c7.951,-2.365 25.009,6.124 20.985,13.378c-3.915,7.058 -17.749,20.419 -32.743,33.168c-8.524,7.248 -17.424,14.298 -25.088,19.879c-2.543,1.852 -5.322,3.798 -8.28,5.81c-8.674,5.898 -18.884,12.35 -29.163,18.58c-11.766,7.131 -23.622,13.97 -33.368,19.351c-6.301,3.479 -11.72,6.349 -15.662,8.296c-18.608,9.186 -40.904,-7.469 -61.597,-9.027c-4.4,-0.331 -9.283,-0.597 -14.435,-0.808c-10.597,-0.436 -22.337,-0.645 -33.368,-0.74c-12.254,-0.106 -23.634,-0.069 -31.605,-0.044l0,-77.527c7.843,-3.511 19.169,-8.581 31.605,-12.962c10.803,-3.806 22.445,-7.093 33.368,-8.387c4.819,-0.571 9.498,-0.754 13.904,-0.422c4.685,0.352 9.863,1.36 15.259,2.83" style="fill:none;stroke:#000;stroke-width:16px;"/><path d="M209.394,298.099c10.992,2.996 22.888,7.913 33.368,13.129c12.803,6.372 23.492,13.19 27.838,17.495c0.597,0.591 1.033,1.231 1.325,1.908l-0,4.99c-2.319,6.975 -12.784,15.047 -19.894,16.998c-2.459,0.675 -5.68,0.627 -9.269,0.156c-11.003,-1.443 -25.436,-7.59 -32.149,-7.59c-6.713,0 -17.729,1.954 -18.146,1.945" style="fill:none;stroke:#000;stroke-width:16px;"/><path d="M360.01,77.957l34.683,-5.782l-21.512,27.813" style="fill:none;stroke:#000;stroke-width:16px;"/></g></svg>