<?xml version="1.0" encoding="UTF-8" standalone="no"?><!DOCTYPE svg PUBLIC "-//W3C//DTD SVG 1.1//EN" "http://www.w3.org/Graphics/SVG/1.1/DTD/svg11.dtd"><svg width="100%" height="100%" viewBox="0 0 481 481" version="1.1" xmlns="http://www.w3.org/2000/svg" xmlns:xlink="http://www.w3.org/1999/xlink" xml:space="preserve" xmlns:serif="http://www.serif.com/" style="fill-rule:evenodd;clip-rule:evenodd;stroke-linecap:round;stroke-linejoin:round;stroke-miterlimit:1.5;"><rect id="_2-2" serif:id="2-2" x="0.21" y="0.159" width="480" height="480" style="fill:none;"/><g><g><path d="M180.759,102.558c0.719,-21.147 7.617,-60.123 58.347,-60.337l0.622,-0c50.821,0.214 57.653,39.329 58.351,60.45c-17.368,2.411 -28.352,10.172 -35.285,19.782c-6.667,-1.764 -14.29,-2.767 -23.006,-2.804l-0.736,0c-8.405,0.035 -15.794,0.969 -22.289,2.618c-7.053,-9.681 -18.255,-17.453 -36.005,-19.71Z" style="fill:none;stroke:#000;stroke-width:14.78px;"/><path d="M157.722,241.629c-27.339,-11.402 -46.583,-57.843 -46.583,-74.935c0,-19.5 3.858,-64.571 58.42,-64.8l0.622,-0c3.762,0.016 7.282,0.245 10.578,0.664c17.75,2.257 28.951,10.029 36.005,19.71c-11.961,3.037 -20.891,8.498 -27.552,15.238c-17.526,17.736 -19.342,44.324 -19.342,58.88c0,9.646 5.175,27.185 14.097,44.365c-4.335,2.098 -8.886,3.329 -13.607,3.426c-0.163,0.003 -0.817,0.003 -0.981,-0c-4.019,-0.082 -7.915,-0.986 -11.659,-2.548Z" style="fill:none;stroke:#000;stroke-width:14.78px;"/><path d="M262.794,122.454c6.932,-9.61 17.917,-17.372 35.285,-19.782c3.539,-0.491 7.343,-0.76 11.432,-0.778l0.622,-0c54.563,0.23 58.42,45.3 58.42,64.8c0,17.014 -19.066,63.105 -46.204,74.775c-3.86,1.66 -7.882,2.623 -12.037,2.708c-0.163,0.003 -0.817,0.003 -0.981,-0c-4.968,-0.101 -9.748,-1.459 -14.285,-3.762c8.815,-17.072 13.923,-34.446 13.923,-44.029c0,-14.557 -1.816,-41.15 -19.346,-58.885c-6.526,-6.603 -15.231,-11.978 -26.83,-15.048Z" style="fill:none;stroke:#000;stroke-width:14.78px;"/><path d="M305.821,391.991l-197.006,-0c0,-21.336 3.8,-37.129 10.031,-49.112c9.795,-18.837 25.596,-28.261 42.081,-35.009c13.237,-5.418 26.916,-9.111 38.281,-14.566c9.566,-4.592 13.141,-11.227 14.43,-14.834c7.726,5.824 16.203,9.489 25.202,9.672c0.193,0.004 0.968,0.004 1.161,0c16.575,-0.338 31.381,-12.489 42.985,-28.182c4.539,-6.138 8.588,-12.818 12.061,-19.545c4.537,2.302 9.317,3.66 14.285,3.762c0.163,0.003 0.817,0.003 0.981,0c4.154,-0.085 8.177,-1.048 12.037,-2.708c1.365,0.929 2.945,1.845 4.772,2.723c25.146,12.07 45.45,18.496 45.45,18.496" style="fill:none;stroke:#000;stroke-width:14.78px;"/><path d="M157.722,241.629c3.744,1.561 7.64,2.466 11.659,2.548c0.163,0.003 0.817,0.003 0.981,0c4.721,-0.096 9.272,-1.328 13.607,-3.426c3.513,6.765 7.608,13.474 12.196,19.624c5.227,7.006 11.095,13.286 17.474,18.094c-1.289,3.606 -4.864,10.242 -14.43,14.834c-11.365,5.455 -25.044,9.148 -38.281,14.566c-16.485,6.748 -32.286,16.172 -42.081,35.009l-56.052,0c0,-91.424 55.871,-82.116 90.393,-98.687c1.722,-0.827 3.225,-1.688 4.535,-2.562Z" style="fill:none;stroke:#000;stroke-width:14.78px;"/></g><g><path d="M358.25,362.689l14.957,14.957l34.595,-34.595" style="fill:none;stroke:#000;stroke-width:14.78px;"/><path d="M321.751,301.141l61.275,-18.542l61.275,18.542l0,65.696c0,31.001 -40.85,71.261 -61.275,71.261c-8.066,0 -19.317,-6.279 -29.98,-15.786c-16.338,-14.568 -31.295,-36.716 -31.295,-55.475l0,-65.696Z" style="fill:none;stroke:#000;stroke-width:14.78px;"/></g></g></svg>