<?xml version="1.0" encoding="UTF-8" standalone="no"?><!DOCTYPE svg PUBLIC "-//W3C//DTD SVG 1.1//EN" "http://www.w3.org/Graphics/SVG/1.1/DTD/svg11.dtd"><svg width="100%" height="100%" viewBox="0 0 480 481" version="1.1" xmlns="http://www.w3.org/2000/svg" xmlns:xlink="http://www.w3.org/1999/xlink" xml:space="preserve" xmlns:serif="http://www.serif.com/" style="fill-rule:evenodd;clip-rule:evenodd;stroke-linecap:round;stroke-linejoin:round;stroke-miterlimit:1.5;"><rect id="_3-1" serif:id="3-1" x="0" y="0.011" width="480" height="480" style="fill:none;"/><g><path d="M157.887,67.474c7.199,-1.828 15.389,-2.863 24.705,-2.902l0.816,-0c9.661,0.041 18.11,1.152 25.5,3.108c12.857,3.403 22.505,9.361 29.739,16.679c19.431,19.659 21.444,49.134 21.444,65.27c0,10.622 -5.662,29.88 -15.433,48.803c-3.85,7.456 -8.338,14.86 -13.369,21.664c-12.862,17.394 -29.273,30.863 -47.645,31.238c-0.214,0.004 -1.073,0.004 -1.287,-0c-9.974,-0.203 -19.371,-4.266 -27.935,-10.721c-7.071,-5.33 -13.575,-12.29 -19.369,-20.056c-5.085,-6.816 -9.624,-14.253 -13.518,-21.752c-9.889,-19.042 -15.626,-38.483 -15.626,-49.175c0,-16.134 2.012,-45.606 21.439,-65.264c7.383,-7.471 17.281,-13.524 30.539,-16.89Z" style="fill:none;stroke:#000;stroke-width:16.53px;"/><path d="M111.167,366.441l-72.933,0c0,-23.65 4.213,-41.154 11.119,-54.437c10.857,-20.879 28.371,-31.325 46.644,-38.805c14.672,-6.006 29.834,-10.099 42.431,-16.146c10.604,-5.09 14.566,-12.445 15.995,-16.442c8.564,6.455 17.96,10.518 27.935,10.721c0.214,0.004 1.073,0.004 1.287,0c18.372,-0.375 34.783,-13.843 47.645,-31.238c5.031,-6.804 8.798,-13.04 12.648,-20.496" style="fill:none;stroke:#000;stroke-width:16.53px;"/><g><path d="M265.094,396.142c-10.957,11.87 -26.645,19.308 -44.057,19.308c-33.089,0 -59.953,-26.864 -59.953,-59.953c0,-33.089 26.864,-59.953 59.953,-59.953c12.287,0 23.716,3.704 33.23,10.056" style="fill:none;stroke:#000;stroke-width:16.53px;"/><path d="M287.398,323.669l133.436,0l20.932,31.76l-20.932,31.265c-7.476,3.003 -15.411,-13.249 -23.922,-13.249c-8.511,0 -18.095,13.249 -27.142,13.249c-9.047,0 -18.325,-13.249 -27.142,-13.249c-8.817,0 -17.558,13.249 -25.762,13.249c-8.204,0 -19.042,-10.896 -23.462,-13.249c-0.935,-0.498 -3.056,-0.867 -3.056,-0.867" style="fill:none;stroke:#000;stroke-width:16.53px;"/><path d="M237.458,372.165c-4.194,4.084 -9.921,6.602 -16.231,6.602c-12.843,0 -23.27,-10.427 -23.27,-23.27c0,-12.843 10.427,-23.27 23.27,-23.27c6.31,0 12.038,2.517 16.231,6.602" style="fill:none;stroke:#000;stroke-width:16px;"/></g></g></svg>