<?xml version="1.0" encoding="UTF-8" standalone="no"?><!DOCTYPE svg PUBLIC "-//W3C//DTD SVG 1.1//EN" "http://www.w3.org/Graphics/SVG/1.1/DTD/svg11.dtd"><svg width="100%" height="100%" viewBox="0 0 480 481" version="1.1" xmlns="http://www.w3.org/2000/svg" xmlns:xlink="http://www.w3.org/1999/xlink" xml:space="preserve" xmlns:serif="http://www.serif.com/" style="fill-rule:evenodd;clip-rule:evenodd;stroke-linecap:round;stroke-linejoin:round;stroke-miterlimit:1.5;"><rect id="_4" serif:id="4" x="0" y="0.171" width="480" height="480" style="fill:none;"/><g><path d="M384.765,303.766c16.931,0 30.677,13.746 30.677,30.677c0,16.931 -13.746,30.677 -30.677,30.677l-142.157,0c-1.7,0 -3.367,-0.139 -4.992,-0.405c14.56,-2.387 25.685,-15.04 25.685,-30.272c0,-15.231 -11.125,-27.885 -25.685,-30.272c1.625,-0.266 3.292,-0.405 4.992,-0.405l142.157,0Z" style="fill:none;stroke:#000;stroke-width:16px;"/><path d="M384.765,242.413c16.931,0 30.677,13.746 30.677,30.677c0,16.931 -13.746,30.677 -30.677,30.677l-142.157,0c-1.7,0 -3.367,-0.139 -4.992,-0.405c14.56,-2.387 25.685,-15.04 25.685,-30.272c0,-15.231 -11.125,-27.885 -25.685,-30.272c1.625,-0.266 3.292,-0.405 4.992,-0.405l142.157,0Z" style="fill:none;stroke:#000;stroke-width:16px;"/><path d="M237.616,181.464c1.625,-0.266 3.292,-0.405 4.992,-0.405l142.157,0c16.931,0 30.677,13.746 30.677,30.677c0,16.931 -13.746,30.677 -30.677,30.677l-142.157,0c-1.7,0 -3.367,-0.139 -4.992,-0.405c14.56,-2.387 25.685,-15.04 25.685,-30.272c0,-15.231 -11.125,-27.885 -25.685,-30.272Z" style="fill:none;stroke:#000;stroke-width:16px;"/><path d="M90.467,181.059c-16.931,0 -30.677,-13.746 -30.677,-30.677c0,-16.931 13.746,-30.677 30.677,-30.677l142.157,0c16.931,0 30.677,13.746 30.677,30.677c0,16.931 -13.746,30.677 -30.677,30.677l-142.157,0Z" style="fill:none;stroke:#000;stroke-width:16px;"/><path d="M232.624,181.059c1.7,0 3.367,0.139 4.992,0.405c14.56,2.387 25.685,15.04 25.685,30.272c0,15.231 -11.125,27.885 -25.685,30.272c-1.625,0.266 -3.292,0.405 -4.992,0.405l-142.157,0c-16.931,0 -30.677,-13.746 -30.677,-30.677c0,-16.931 13.746,-30.677 30.677,-30.677l142.157,0Z" style="fill:none;stroke:#000;stroke-width:16px;"/><path d="M90.467,303.766c-16.931,0 -30.677,-13.746 -30.677,-30.677c0,-16.931 13.746,-30.677 30.677,-30.677l142.157,0c1.7,-0 3.367,0.139 4.992,0.405c14.56,2.387 25.685,15.04 25.685,30.272c0,15.231 -11.125,27.885 -25.685,30.272c-1.625,0.266 -3.292,0.405 -4.992,0.405l-142.157,0Z" style="fill:none;stroke:#000;stroke-width:16px;"/><path d="M237.616,364.714c-1.625,0.266 -3.292,0.405 -4.992,0.405l-142.157,0c-16.931,0 -30.677,-13.746 -30.677,-30.677c0,-16.931 13.746,-30.677 30.677,-30.677l142.157,0c1.7,0 3.367,0.139 4.992,0.405c14.56,2.387 25.685,15.04 25.685,30.272c0,15.231 -11.125,27.885 -25.685,30.272Z" style="fill:none;stroke:#000;stroke-width:16px;"/></g></svg>