<?xml version="1.0" encoding="UTF-8" standalone="no"?><!DOCTYPE svg PUBLIC "-//W3C//DTD SVG 1.1//EN" "http://www.w3.org/Graphics/SVG/1.1/DTD/svg11.dtd"><svg width="100%" height="100%" viewBox="0 0 480 481" version="1.1" xmlns="http://www.w3.org/2000/svg" xmlns:xlink="http://www.w3.org/1999/xlink" xml:space="preserve" xmlns:serif="http://www.serif.com/" style="fill-rule:evenodd;clip-rule:evenodd;stroke-linecap:round;stroke-linejoin:round;stroke-miterlimit:1.5;"><rect id="_5" serif:id="5" x="0" y="0.164" width="480" height="480" style="fill:none;"/><g><path d="M118.028,322.624c0,0 27.672,22.566 42.69,30.407c16.177,8.446 54.372,20.271 54.372,20.271" style="fill:none;stroke:#000;stroke-width:16.66px;"/><path d="M89.734,238.18l-46.865,-25.502l52.397,-101.357l48.853,22.713l-54.385,104.147Z" style="fill:none;stroke:#000;stroke-width:16.66px;"/><path d="M335.049,134.082l47.539,-22.762l54.544,101.357l-48.491,24.035l-53.592,-102.629Z" style="fill:none;stroke:#000;stroke-width:16.66px;"/><path d="M262.762,134.082l72.286,0l53.592,102.629l-27.527,33.516l-0.019,0.018l-73.852,-51.985c0,0 -30.35,26.413 -47.243,25.769c-16.893,-0.644 -54.114,-29.634 -54.114,-29.634l76.877,-80.313Z" style="fill:none;stroke:#000;stroke-width:16.66px;"/><path d="M294.544,134.082l-31.782,0l-76.877,80.313c0,0 37.222,28.99 54.114,29.634c16.893,0.644 47.243,-25.769 47.243,-25.769l73.852,51.985c0,0 -57.1,64.531 -70.416,67.41c-21.556,4.662 -74.774,-12.214 -108.229,-28.775c-33.491,-16.579 -92.716,-70.701 -92.716,-70.701l54.385,-104.147c0,0 84.621,-27.007 95.674,-27.007c18.21,0 54.752,27.057 54.752,27.057Z" style="fill:none;stroke:#000;stroke-width:16.66px;"/></g></svg>