<?xml version="1.0" encoding="UTF-8" standalone="no"?><!DOCTYPE svg PUBLIC "-//W3C//DTD SVG 1.1//EN" "http://www.w3.org/Graphics/SVG/1.1/DTD/svg11.dtd"><svg width="100%" height="100%" viewBox="0 0 480 481" version="1.1" xmlns="http://www.w3.org/2000/svg" xmlns:xlink="http://www.w3.org/1999/xlink" xml:space="preserve" xmlns:serif="http://www.serif.com/" style="fill-rule:evenodd;clip-rule:evenodd;stroke-linecap:round;stroke-linejoin:round;stroke-miterlimit:1.5;"><rect id="_6" serif:id="6" x="0" y="0.12" width="480" height="480" style="fill:none;"/><g><circle cx="240" cy="84.663" r="24.075" style="fill:none;stroke:#000;stroke-width:17.08px;"/><circle cx="387.664" cy="288.655" r="31.894" style="fill:none;stroke:#000;stroke-width:17.08px;"/><circle cx="387.664" cy="387.759" r="31.894" style="fill:none;stroke:#000;stroke-width:17.08px;"/><circle cx="240" cy="387.759" r="31.894" style="fill:none;stroke:#000;stroke-width:17.08px;"/><circle cx="92.336" cy="387.759" r="31.894" style="fill:none;stroke:#000;stroke-width:17.08px;"/><path d="M240,135.123c27.327,0 49.514,22.186 49.514,49.514c0,0 -22.186,14.197 -49.514,14.197c-27.327,0 -49.514,-14.197 -49.514,-14.197c0,-27.327 22.186,-49.514 49.514,-49.514Z" style="fill:none;stroke:#000;stroke-width:17.08px;"/><path d="M240,198.834l0,27.273l147.664,0l0,30.653" style="fill:none;stroke:#000;stroke-width:17.08px;"/><path d="M248.181,226.108l-155.832,0l0,129.762" style="fill:none;stroke:#000;stroke-width:17.08px;"/><path d="M355.77,288.655l-115.77,0l0,67.215" style="fill:none;stroke:#000;stroke-width:17.08px;"/><path d="M387.664,320.549l0,35.321" style="fill:none;stroke:#000;stroke-width:17.08px;"/></g></svg>