<?xml version="1.0" encoding="UTF-8" standalone="no"?><!DOCTYPE svg PUBLIC "-//W3C//DTD SVG 1.1//EN" "http://www.w3.org/Graphics/SVG/1.1/DTD/svg11.dtd"><svg width="100%" height="100%" viewBox="0 0 480 481" version="1.1" xmlns="http://www.w3.org/2000/svg" xmlns:xlink="http://www.w3.org/1999/xlink" xml:space="preserve" xmlns:serif="http://www.serif.com/" style="fill-rule:evenodd;clip-rule:evenodd;stroke-linecap:round;stroke-linejoin:round;stroke-miterlimit:1.5;"><rect id="_7-1" serif:id="7-1" x="0" y="0.108" width="480" height="480" style="fill:none;"/><g><circle cx="240" cy="168.996" r="73.364" style="fill:none;stroke:#000;stroke-width:16px;"/><circle cx="114.642" cy="333.623" r="32.833" style="fill:none;stroke:#000;stroke-width:16px;"/><circle cx="365.358" cy="333.623" r="32.833" style="fill:none;stroke:#000;stroke-width:16px;"/><circle cx="240" cy="378.068" r="18.864" style="fill:none;stroke:#000;stroke-width:16px;"/><path d="M123.028,185.908c-0.793,-5.524 -1.203,-11.171 -1.203,-16.912c0,-7.028 0.615,-13.914 1.794,-20.606c5.029,-1.813 9.746,-4.733 13.773,-8.76c11.173,-11.173 13.823,-27.663 7.95,-41.358c7.54,-10.072 16.649,-18.902 26.963,-26.128c4.83,2.266 10.221,3.532 15.905,3.532c15.813,0 29.354,-9.8 34.878,-23.652c5.524,-0.793 11.171,-1.203 16.912,-1.203c7.028,0 13.914,0.615 20.606,1.794c1.813,5.029 4.733,9.746 8.76,13.773c11.173,11.173 27.663,13.823 41.358,7.95c10.072,7.54 18.902,16.649 26.128,26.963c-2.266,4.83 -3.532,10.221 -3.532,15.905c0,15.813 9.8,29.354 23.652,34.878c0.793,5.524 1.203,11.171 1.203,16.912c0,7.028 -0.615,13.914 -1.794,20.606c-5.029,1.813 -9.746,4.733 -13.773,8.76c-11.173,11.173 -13.823,27.663 -7.95,41.358c-7.54,10.072 -16.649,18.902 -26.963,26.128c-4.83,-2.266 -10.221,-3.532 -15.905,-3.532c-15.813,0 -29.354,9.8 -34.878,23.652c-5.524,0.793 -11.171,1.203 -16.912,1.203c-7.028,0 -13.914,-0.615 -20.606,-1.794c-1.813,-5.029 -4.733,-9.746 -8.76,-13.773c-11.173,-11.173 -27.663,-13.823 -41.358,-7.95c-10.072,-7.54 -18.902,-16.649 -26.128,-26.963c2.266,-4.83 3.532,-10.221 3.532,-15.905c0,-15.813 -9.8,-29.354 -23.652,-34.878Z" style="fill:none;stroke:#000;stroke-width:16px;"/><path d="M189.196,385.414c-0.344,-2.399 -0.523,-4.852 -0.523,-7.345c0,-3.052 0.267,-6.043 0.779,-8.95c2.184,-0.787 4.233,-2.055 5.982,-3.805c4.853,-4.853 6.004,-12.015 3.453,-17.963c3.275,-4.374 7.231,-8.21 11.711,-11.348c2.098,0.984 4.439,1.534 6.908,1.534c6.868,0 12.749,-4.256 15.148,-10.273c2.399,-0.344 4.852,-0.523 7.345,-0.523c3.052,0 6.043,0.267 8.95,0.779c0.787,2.184 2.055,4.233 3.805,5.982c4.853,4.853 12.015,6.004 17.963,3.453c4.374,3.275 8.21,7.231 11.348,11.711c-0.984,2.098 -1.534,4.439 -1.534,6.908c0,6.868 4.256,12.749 10.273,15.148c0.344,2.399 0.523,4.852 0.523,7.345c0,3.052 -0.267,6.043 -0.779,8.95c-2.184,0.787 -4.233,2.055 -5.982,3.805c-4.853,4.853 -6.004,12.015 -3.453,17.963c-3.275,4.374 -7.231,8.21 -11.711,11.348c-2.098,-0.984 -4.439,-1.534 -6.908,-1.534c-6.868,0 -12.749,4.256 -15.148,10.273c-2.399,0.344 -4.852,0.523 -7.345,0.523c-3.052,0 -6.043,-0.267 -8.95,-0.779c-0.787,-2.184 -2.055,-4.233 -3.805,-5.982c-4.853,-4.853 -12.015,-6.004 -17.963,-3.453c-4.374,-3.275 -8.21,-7.231 -11.348,-11.711c0.984,-2.098 1.534,-4.439 1.534,-6.908c0,-6.868 -4.256,-12.749 -10.273,-15.148Z" style="fill:none;stroke:#000;stroke-width:16px;"/><path d="M50.296,342.926c-0.436,-3.039 -0.662,-6.145 -0.662,-9.304c0,-3.866 0.338,-7.654 0.987,-11.335c2.766,-0.997 5.361,-2.603 7.577,-4.819c6.146,-6.146 7.604,-15.217 4.373,-22.751c4.148,-5.54 9.159,-10.398 14.832,-14.373c2.657,1.246 5.623,1.943 8.749,1.943c8.699,0 16.148,-5.391 19.187,-13.011c3.039,-0.436 6.145,-0.662 9.304,-0.662c3.866,0 7.654,0.338 11.335,0.987c0.997,2.766 2.603,5.361 4.819,7.577c6.146,6.146 15.217,7.604 22.751,4.373c5.54,4.148 10.398,9.159 14.373,14.832c-1.246,2.657 -1.943,5.623 -1.943,8.749c0,8.699 5.391,16.148 13.011,19.187c0.436,3.039 0.662,6.145 0.662,9.304c0,3.866 -0.338,7.654 -0.987,11.335c-2.766,0.997 -5.361,2.603 -7.577,4.819c-6.146,6.146 -7.604,15.217 -4.373,22.751c-4.148,5.54 -9.159,10.398 -14.832,14.373c-2.657,-1.246 -5.623,-1.943 -8.749,-1.943c-8.699,0 -16.148,5.391 -19.187,13.011c-3.039,0.436 -6.145,0.662 -9.304,0.662c-3.866,0 -7.654,-0.338 -11.335,-0.987c-0.997,-2.766 -2.603,-5.361 -4.819,-7.577c-6.146,-6.146 -15.217,-7.604 -22.751,-4.373c-5.54,-4.148 -10.398,-9.159 -14.373,-14.832c1.246,-2.657 1.943,-5.623 1.943,-8.749c0,-8.699 -5.391,-16.148 -13.011,-19.187Z" style="fill:none;stroke:#000;stroke-width:16px;"/><path d="M301.011,342.926c-0.436,-3.039 -0.662,-6.145 -0.662,-9.304c0,-3.866 0.338,-7.654 0.987,-11.335c2.766,-0.997 5.361,-2.603 7.577,-4.819c6.146,-6.146 7.604,-15.217 4.373,-22.751c4.148,-5.54 9.159,-10.398 14.832,-14.373c2.657,1.246 5.623,1.943 8.749,1.943c8.699,0 16.148,-5.391 19.187,-13.011c3.039,-0.436 6.145,-0.662 9.304,-0.662c3.866,0 7.654,0.338 11.335,0.987c0.997,2.766 2.603,5.361 4.819,7.577c6.146,6.146 15.217,7.604 22.751,4.373c5.54,4.148 10.398,9.159 14.373,14.832c-1.246,2.657 -1.943,5.623 -1.943,8.749c0,8.699 5.391,16.148 13.011,19.187c0.436,3.039 0.662,6.145 0.662,9.304c0,3.866 -0.338,7.654 -0.987,11.335c-2.766,0.997 -5.361,2.603 -7.577,4.819c-6.146,6.146 -7.604,15.217 -4.373,22.751c-4.148,5.54 -9.159,10.398 -14.832,14.373c-2.657,-1.246 -5.623,-1.943 -8.749,-1.943c-8.699,0 -16.148,5.391 -19.187,13.011c-3.039,0.436 -6.145,0.662 -9.304,0.662c-3.866,0 -7.654,-0.338 -11.335,-0.987c-0.997,-2.766 -2.603,-5.361 -4.819,-7.577c-6.146,-6.146 -15.217,-7.604 -22.751,-4.373c-5.54,-4.148 -10.398,-9.159 -14.373,-14.832c1.246,-2.657 1.943,-5.623 1.943,-8.749c0,-8.699 -5.391,-16.148 -13.011,-19.187Z" style="fill:none;stroke:#000;stroke-width:16px;"/><path d="M279.159,146.787l0,44.416c0,7.588 -6.16,13.748 -13.748,13.748l-50.821,0c-7.588,0 -13.748,-6.16 -13.748,-13.748l0,-44.416c0,-7.588 6.16,-13.748 13.748,-13.748l50.821,0c7.588,0 13.748,6.16 13.748,13.748Z" style="fill:none;stroke:#000;stroke-width:16px;"/><path d="M252.738,137.196l0,13.428c0,2.294 -1.862,4.156 -4.156,4.156l-17.164,0c-2.294,0 -4.156,-1.862 -4.156,-4.156l0,-13.428c0,-2.294 1.862,-4.156 4.156,-4.156l17.164,0c2.294,0 4.156,1.862 4.156,4.156Z" style="fill:none;stroke:#000;stroke-width:16px;"/></g></svg>