<?xml version="1.0" encoding="UTF-8" standalone="no"?><!DOCTYPE svg PUBLIC "-//W3C//DTD SVG 1.1//EN" "http://www.w3.org/Graphics/SVG/1.1/DTD/svg11.dtd"><svg width="100%" height="100%" viewBox="0 0 481 481" version="1.1" xmlns="http://www.w3.org/2000/svg" xmlns:xlink="http://www.w3.org/1999/xlink" xml:space="preserve" xmlns:serif="http://www.serif.com/" style="fill-rule:evenodd;clip-rule:evenodd;stroke-linecap:round;stroke-linejoin:round;stroke-miterlimit:1.5;"><rect id="_8-2" serif:id="8-2" x="0.042" y="0.033" width="480" height="480" style="fill:none;"/><g><g><path d="M102.767,164.266l0.536,0c0,1.559 -0.091,3.097 -0.268,4.609c-0.177,-1.512 -0.268,-3.05 -0.268,-4.609Zm-59.958,-33.122l-18.137,33.122m18.137,-33.122l-18.137,33.122m18.137,-33.122l-18.137,33.122" style="fill:none;stroke:#000;stroke-width:16.97px;"/><path d="M180.863,164.266l0.536,0c0,1.559 -0.091,3.097 -0.268,4.609c-0.177,-1.512 -0.268,-3.05 -0.268,-4.609Zm-78.096,0l0.536,0c0,1.559 -0.091,3.097 -0.268,4.609c-0.177,-1.512 -0.268,-3.05 -0.268,-4.609Z" style="fill:none;stroke:#000;stroke-width:16.97px;"/><path d="M258.959,164.266l0.536,0c0,1.559 -0.091,3.097 -0.268,4.609c-0.177,-1.512 -0.268,-3.05 -0.268,-4.609Zm-78.096,0l0.536,0c0,1.559 -0.091,3.097 -0.268,4.609c-0.177,-1.512 -0.268,-3.05 -0.268,-4.609Z" style="fill:none;stroke:#000;stroke-width:16.97px;"/><path d="M258.959,164.266l0.536,0c0,1.559 -0.091,3.097 -0.268,4.609c-0.177,-1.512 -0.268,-3.05 -0.268,-4.609Zm78.631,-0l-14.896,-27.203m14.896,27.203l-14.896,-27.203m14.896,27.203l-14.896,-27.203" style="fill:none;stroke:#000;stroke-width:16.97px;"/><path d="M24.671,164.266l46.938,-85.717l219.043,0l46.938,85.717l-312.919,0Z" style="fill:none;stroke:#000;stroke-width:16.97px;"/><path d="M159.612,350.654l0,-101.371c0,-6.627 -5.38,-12.007 -12.007,-12.007l-39.182,0c-6.627,0 -12.007,5.38 -12.007,12.007l0,101.371l63.197,0Z" style="fill:none;stroke:#000;stroke-width:16.97px;"/><path d="M24.671,164.266l78.096,0c0,1.559 0.091,3.097 0.268,4.609c-0.997,8.526 -4.728,16.223 -10.29,22.189c-7.179,7.7 -17.41,12.518 -28.757,12.518c-4.639,0 -9.091,-0.805 -13.225,-2.283c-15.201,-5.436 -26.091,-19.972 -26.091,-37.032Z" style="fill:none;stroke:#000;stroke-width:16.97px;"/><path d="M259.494,164.266l78.096,-0c0,17.06 -10.889,31.597 -26.091,37.032c-4.134,1.478 -8.586,2.283 -13.225,2.283c-11.347,0 -21.578,-4.818 -28.757,-12.518c-5.563,-5.966 -9.293,-13.663 -10.29,-22.189c0.177,-1.512 0.268,-3.05 0.268,-4.609Z" style="fill:none;stroke:#000;stroke-width:16.97px;"/><path d="M223.651,350.654l-64.04,0l0,-101.371c0,-6.627 -5.38,-12.007 -12.007,-12.007l-39.182,0c-6.627,0 -12.007,5.38 -12.007,12.007l0,101.371l-45.652,0l0,-149.355c4.134,1.478 8.586,2.283 13.225,2.283c11.347,0 21.578,-4.818 28.757,-12.518c5.563,-5.966 9.293,-13.663 10.29,-22.189c0.997,8.526 4.728,16.223 10.29,22.189c7.179,7.7 17.41,12.518 28.757,12.518c11.347,0 21.578,-4.818 28.757,-12.518c5.563,-5.966 9.293,-13.663 10.29,-22.189c0.997,8.526 4.728,16.223 10.29,22.189c7.179,7.7 17.41,12.518 28.757,12.518c11.347,0 21.578,-4.818 28.757,-12.518c5.563,-5.966 9.293,-13.663 10.29,-22.189c0.997,8.526 4.728,16.223 10.29,22.189c7.179,7.7 17.41,12.518 28.757,12.518c4.639,0 9.091,-0.805 13.225,-2.283l0,83.718m-46.16,-36.97c0,-5.945 -5.021,-10.771 -11.206,-10.771l-46.221,0c-6.185,0 -11.206,4.826 -11.206,10.771l0,35.147c0,5.945 5.021,10.771 11.206,10.771l46.221,0c6.185,0 11.206,-4.826 11.206,-10.771l0,-35.147Z" style="fill:none;stroke:#000;stroke-width:16.97px;"/><g><g><path d="M331.179,388.026c-7.656,8.294 -18.617,13.491 -30.783,13.491c-23.12,0 -41.89,-18.77 -41.89,-41.89c0,-23.12 18.77,-41.89 41.89,-41.89c8.585,0 16.571,2.588 23.218,7.027" style="fill:none;stroke:#000;stroke-width:16.97px;"/><path d="M347.555,337.389l93.234,0l14.625,22.191l-14.625,21.846c-5.223,2.098 -10.768,-9.257 -16.715,-9.257c-5.947,0 -12.643,9.257 -18.965,9.257c-6.322,0 -12.804,-9.257 -18.965,-9.257c-6.161,0 -12.268,9.257 -18,9.257c-5.732,0 -13.305,-7.613 -16.393,-9.257c-0.653,-0.348 -2.135,-0.606 -2.135,-0.606" style="fill:none;stroke:#000;stroke-width:16.97px;"/><path d="M304.829,369.423c-2.474,2.41 -5.853,3.895 -9.576,3.895c-7.577,0 -13.728,-6.151 -13.728,-13.728c0,-7.577 6.151,-13.728 13.728,-13.728c3.723,0 7.102,1.485 9.576,3.895" style="fill:none;stroke:#000;stroke-width:16px;"/></g></g></g></g></svg>