<?xml version="1.0" encoding="UTF-8" standalone="no"?><!DOCTYPE svg PUBLIC "-//W3C//DTD SVG 1.1//EN" "http://www.w3.org/Graphics/SVG/1.1/DTD/svg11.dtd"><svg width="100%" height="100%" viewBox="0 0 480 481" version="1.1" xmlns="http://www.w3.org/2000/svg" xmlns:xlink="http://www.w3.org/1999/xlink" xml:space="preserve" xmlns:serif="http://www.serif.com/" style="fill-rule:evenodd;clip-rule:evenodd;stroke-linecap:round;stroke-linejoin:round;stroke-miterlimit:1.5;"><rect id="_9-1" serif:id="9-1" x="0" y="0.193" width="480" height="480" style="fill:none;"/><g><g id="windows"><path d="M190.607,189.806l0,15.989c0,2.704 -2.196,4.9 -4.9,4.9l-15.989,0c-2.704,0 -4.9,-2.196 -4.9,-4.9l0,-15.989c0,-2.704 2.196,-4.9 4.9,-4.9l15.989,0c2.704,0 4.9,2.196 4.9,4.9Z"/><path d="M234.289,189.769l0,15.989c0,2.704 -2.196,4.9 -4.9,4.9l-15.989,0c-2.704,0 -4.9,-2.196 -4.9,-4.9l0,-15.989c0,-2.704 2.196,-4.9 4.9,-4.9l15.989,0c2.704,0 4.9,2.196 4.9,4.9Z"/><path d="M190.607,234.058l0,15.989c0,2.704 -2.196,4.9 -4.9,4.9l-15.989,0c-2.704,0 -4.9,-2.196 -4.9,-4.9l0,-15.989c0,-2.704 2.196,-4.9 4.9,-4.9l15.989,0c2.704,0 4.9,2.196 4.9,4.9Z"/><path d="M234.289,234.021l0,15.989c0,2.704 -2.196,4.9 -4.9,4.9l-15.989,0c-2.704,0 -4.9,-2.196 -4.9,-4.9l0,-15.989c0,-2.704 2.196,-4.9 4.9,-4.9l15.989,0c2.704,0 4.9,2.196 4.9,4.9Z"/><path d="M190.607,278.31l0,15.989c0,2.704 -2.196,4.9 -4.9,4.9l-15.989,0c-2.704,0 -4.9,-2.196 -4.9,-4.9l0,-15.989c0,-2.704 2.196,-4.9 4.9,-4.9l15.989,0c2.704,0 4.9,2.196 4.9,4.9Z"/><path d="M234.289,282.214l0,54.826c0,2.704 -2.196,4.9 -4.9,4.9l-15.989,0c-2.704,0 -4.9,-2.196 -4.9,-4.9l0,-54.826c0,-2.704 2.196,-4.9 4.9,-4.9l15.989,0c2.704,0 4.9,2.196 4.9,4.9Z"/></g><path d="M370.465,348.79c5.085,0.152 10.124,2.167 14.002,6.044l48.392,48.392c8.071,8.071 8.071,21.177 0,29.248c-8.071,8.071 -21.177,8.071 -29.248,-0l-48.392,-48.392c-3.847,-3.847 -5.861,-8.839 -6.04,-13.884c-0.197,-5.538 1.817,-11.141 6.04,-15.364c4.194,-4.194 9.747,-6.208 15.246,-6.044Z" style="fill:none;stroke:#000;stroke-width:16px;"/><path d="M138.477,313.001c-27.304,-22.653 -44.706,-56.836 -44.706,-95.052c0,-68.138 55.319,-123.457 123.457,-123.457c68.138,0 123.457,55.319 123.457,123.457c0,31.16 -11.569,59.639 -30.642,81.373c-13.333,15.192 -30.332,27.089 -49.61,34.301l0,-151.822c0,-12.789 -10.383,-23.172 -23.172,-23.172l-75.613,0c-12.789,0 -23.172,10.383 -23.172,23.172l0,131.2Z" style="fill:none;stroke:#000;stroke-width:16px;"/><path d="M310.044,299.322c-13.333,15.192 -30.332,27.089 -49.61,34.301l0,-127.747l26.438,0c12.789,0 23.172,10.383 23.172,23.172l0,70.274Z" style="fill:none;stroke:#000;stroke-width:16px;"/><path d="M260.434,333.623l0,-151.822c0,-12.789 -10.383,-23.172 -23.172,-23.172l-75.613,0c-12.789,0 -23.172,10.383 -23.172,23.172l0,131.2c14.207,11.787 31.096,20.452 49.61,24.94c9.345,2.265 19.104,3.465 29.142,3.465c15.197,0 29.756,-2.752 43.206,-7.783Z" style="fill:none;stroke:#000;stroke-width:16px;"/><path d="M319.128,340.148c-1.985,1.657 -4.011,3.267 -6.075,4.828c-16.319,12.334 -35.084,21.598 -55.435,26.93c-12.899,3.38 -26.436,5.179 -40.389,5.179c-10.285,0 -20.343,-0.978 -30.086,-2.845c-18.39,-3.525 -35.66,-10.219 -51.218,-19.492c-46.593,-27.77 -77.832,-78.665 -77.832,-136.799c0,-87.83 71.306,-159.136 159.136,-159.136c87.83,0 159.136,71.306 159.136,159.136c0,38.217 -13.501,73.305 -35.989,100.752c-6.391,7.801 -13.509,14.984 -21.248,21.447Z" style="fill:none;stroke:#000;stroke-width:16px;"/><path d="M340.376,318.701l30.089,30.089c-5.5,-0.164 -11.053,1.85 -15.246,6.044c-4.224,4.224 -6.237,9.826 -6.04,15.364l-30.051,-30.051c7.74,-6.463 14.857,-13.646 21.248,-21.447Z" style="fill:none;stroke:#000;stroke-width:16px;"/></g></svg>