<?xml version="1.0" encoding="UTF-8"?>
<svg id="Layer_1" xmlns="http://www.w3.org/2000/svg" version="1.1" xmlns:serif="http://www.serif.com/" viewBox="0 0 1024 1024">
  <!-- Generator: Adobe Illustrator 29.8.6, SVG Export Plug-In . SVG Version: 2.1.1 Build 1)  -->
  <defs>
    <style>
      .st0 {
        fill: #014388;
        fill-rule: evenodd;
      }
    </style>
  </defs>
  <path class="st0" d="M513.75,512l94.5,94.5-22.63,87.71c4.25-1.61,8.44-3.38,12.57-5.3,25.5-11.88,48.68-29.99,69.54-54.33l90.41,83.45c-28.98,35.35-64.76,62.3-107.36,80.85-30.21,13.15-63.13,21.64-98.73,25.47l-38.3,148.44v-460.77h0ZM56.08,512h457.67l-94.5,94.5-87.62-22.61c.86,2.43,1.77,4.84,2.73,7.21,9.56,23.76,23.04,44.33,40.42,61.72,17.39,17.39,37.96,30.72,61.72,39.99,2.45.96,4.93,1.86,7.43,2.72l33.57,130.12c-35.87-2.57-69.68-9.9-101.41-22-40.28-15.36-75.19-37.23-104.75-65.63-29.56-28.4-52.59-61.72-69.11-99.97-12.53-29.02-20.31-60.21-23.33-93.56l-93.59-24.15-29.22-8.34ZM967.92,512h-454.17s94.5-94.5,94.5-94.5l244.64,63.12,115.03,31.38ZM513.75,512l-94.5-94.5,22.8-88.38c-1.87.66-3.72,1.35-5.56,2.07-23.76,9.27-44.33,22.6-61.72,39.99-17.39,17.39-30.86,37.96-40.42,61.72-1.2,2.99-2.33,6.02-3.38,9.08l-152.24,39.28c2.91-34.01,10.74-65.78,23.49-95.31,16.52-38.25,39.7-71.57,69.54-99.97,29.85-28.4,64.76-50.27,104.75-65.63,30.84-11.84,63.91-19.12,99.23-21.83l38-147.29v460.77h0ZM550.27,199.4c36.16,3.65,69.66,12.08,100.51,25.3,42.6,18.26,78.38,45.06,107.36,80.41l-90.41,83.45c-20.86-23.76-44.04-41.58-69.54-53.46-4.74-2.21-9.55-4.21-14.45-6.01l-33.46-129.69h0Z"/>
</svg>