<?xml version="1.0" encoding="UTF-8" standalone="no"?>
<!DOCTYPE svg PUBLIC "-//W3C//DTD SVG 1.1//EN" "http://www.w3.org/Graphics/SVG/1.1/DTD/svg11.dtd">
<svg width="100%" height="100%" viewBox="0 0 3600 2700" version="1.1" xmlns="http://www.w3.org/2000/svg" xmlns:xlink="http://www.w3.org/1999/xlink" xml:space="preserve" xmlns:serif="http://www.serif.com/" style="fill-rule:evenodd;clip-rule:evenodd;stroke-linejoin:round;stroke-miterlimit:2;">
    <rect id="SPDC-Logo-Color-Small" x="0" y="0" width="3600" height="2700" style="fill:none;"/>
    <g>
        <rect x="1546.27068" y="388.718283" width="507.458639" height="1922.563433" style="fill:#014388;"/>
        <g>
            <path d="M1789.592683,780.716243c-20.814634,0 -40.761992,-2.787674 -59.842073,-8.363023c-19.080081,-5.575348 -34.443263,-12.823301 -46.089547,-21.743859l20.442944,-45.346167c11.150697,7.929384 24.345688,14.433957 39.584974,19.513719c15.239286,5.079762 30.664416,7.619643 46.275392,7.619643c11.894077,0 21.496065,-1.177018 28.805967,-3.531054c7.309901,-2.354036 12.699405,-5.637297 16.16851,-9.849782c3.469106,-4.212485 5.203658,-9.044454 5.203658,-14.495906c0,-6.938211 -2.725726,-12.451611 -8.177178,-16.5402c-5.451452,-4.088589 -12.637456,-7.433798 -21.558014,-10.035627c-8.920557,-2.601829 -18.77034,-5.079762 -29.549346,-7.433798c-10.779007,-2.354036 -21.558014,-5.265607 -32.337021,-8.734712c-10.779007,-3.469106 -20.628789,-7.929384 -29.549346,-13.380836c-8.920557,-5.451452 -16.16851,-12.637456 -21.743859,-21.558014c-5.575348,-8.920557 -8.363023,-20.319047 -8.363023,-34.19547c0,-14.867596 4.026641,-28.434277 12.079922,-40.700043c8.053281,-12.265766 20.195151,-22.0536 36.425609,-29.363502c16.230459,-7.309901 36.611454,-10.964852 61.142987,-10.964852c16.354355,0 32.460917,1.920398 48.319686,5.761193c15.858769,3.840796 29.859088,9.601989 42.000958,17.28358l-18.584495,45.717857c-12.14187,-6.938211 -24.28374,-12.079922 -36.425609,-15.425131c-12.14187,-3.345209 -24.035946,-5.017814 -35.68223,-5.017814c-11.646283,0 -21.186324,1.362863 -28.620122,4.088589c-7.433798,2.725726 -12.761353,6.25678 -15.982665,10.593162c-3.221312,4.336382 -4.831969,9.354196 -4.831969,15.053441c0,6.690418 2.725726,12.079922 8.177178,16.16851c5.451452,4.088589 12.637456,7.37185 21.558014,9.849782c8.920557,2.477933 18.77034,4.955865 29.549346,7.433798c10.779007,2.477933 21.558014,5.327555 32.337021,8.548868c10.779007,3.221312 20.628789,7.557694 29.549346,13.009146c8.920557,5.451452 16.16851,12.637456 21.743859,21.558014c5.575348,8.920557 8.363023,20.195151 8.363023,33.82378c0,14.619802 -4.088589,28.000639 -12.265766,40.142508c-8.177178,12.14187 -20.380996,21.929704 -36.611454,29.363502c-16.230459,7.433798 -36.735351,11.150697 -61.514677,11.150697Z" style="fill:#ebebeb;fill-rule:nonzero;"/>
            <path d="M1686.634583,1245.47963l0,-260.182925l112.622037,0c23.292567,0 43.363821,3.778847 60.213763,11.336542c16.849942,7.557694 29.859088,18.39865 39.027439,32.522866c9.168351,14.124216 13.752526,30.974158 13.752526,50.549825c0,19.327874 -4.584175,36.05392 -13.752526,50.178135c-9.168351,14.124216 -22.177497,24.965171 -39.027439,32.522866c-16.849942,7.557694 -36.921196,11.336542 -60.213763,11.336542l-79.169947,0l26.761672,-27.133362l0,98.869511l-60.213763,0Zm60.213763,-92.179093l-26.761672,-28.620122l75.824738,0c18.584495,0 32.460917,-3.964692 41.629268,-11.894077c9.168351,-7.929384 13.752526,-18.956185 13.752526,-33.0804c0,-14.372009 -4.584175,-25.522706 -13.752526,-33.45209c-9.168351,-7.929384 -23.044773,-11.894077 -41.629268,-11.894077l-75.824738,0l26.761672,-28.620122l0,147.560887Z" style="fill:#ebebeb;fill-rule:nonzero;"/>
            <path d="M1669.165158,1714.703295l0,-260.182925l118.197386,0c28.248432,0 53.151655,5.389503 74.709668,16.16851c21.558014,10.779007 38.407956,25.832448 50.549825,45.160322c12.14187,19.327874 18.212805,42.248751 18.212805,68.76263c0,26.266086 -6.070935,49.125014 -18.212805,68.576785c-12.14187,19.451771 -28.991812,34.56716 -50.549825,45.346167c-21.558014,10.779007 -46.461237,16.16851 -74.709668,16.16851l-118.197386,0Zm60.213763,-49.434756l55.010104,0c17.345528,0 32.398969,-3.283261 45.160322,-9.849782c12.761353,-6.566521 22.673083,-15.920717 29.735191,-28.062587c7.062108,-12.14187 10.593162,-26.389982 10.593162,-42.744338c0,-16.602149 -3.531054,-30.912209 -10.593162,-42.930183c-7.062108,-12.017973 -16.973838,-21.310221 -29.735191,-27.876742c-12.761353,-6.566521 -27.814794,-9.849782 -45.160322,-9.849782l-55.010104,0l0,161.313413Z" style="fill:#ebebeb;fill-rule:nonzero;"/>
            <path d="M1810.964852,2188.387239c-20.071254,0 -38.717697,-3.283261 -55.939329,-9.849782c-17.221632,-6.566521 -32.151176,-15.920717 -44.788632,-28.062587c-12.637456,-12.14187 -22.487238,-26.389982 -29.549346,-42.744338c-7.062108,-16.354355 -10.593162,-34.319367 -10.593162,-53.895034c0,-19.575668 3.531054,-37.540679 10.593162,-53.895034c7.062108,-16.354355 16.973838,-30.602468 29.735191,-42.744338c12.761353,-12.14187 27.690897,-21.496065 44.788632,-28.062587c17.097735,-6.566521 35.806126,-9.849782 56.125174,-9.849782c22.549187,0 42.930183,3.902744 61.142987,11.708232c18.212805,7.805488 33.514039,19.265926 45.903702,34.381315l-38.655749,35.68223c-8.920557,-10.159524 -18.832288,-17.779167 -29.735191,-22.858928c-10.902904,-5.079762 -22.79698,-7.619643 -35.68223,-7.619643c-12.14187,0 -23.292567,1.982346 -33.45209,5.947038c-10.159524,3.964692 -18.956185,9.663937 -26.389982,17.097735c-7.433798,7.433798 -13.194991,16.230459 -17.28358,26.389982c-4.088589,10.159524 -6.132883,21.434117 -6.132883,33.82378c0,12.389663 2.044294,23.664256 6.132883,33.82378c4.088589,10.159524 9.849782,18.956185 17.28358,26.389982c7.433798,7.433798 16.230459,13.133043 26.389982,17.097735c10.159524,3.964692 21.310221,5.947038 33.45209,5.947038c12.88525,0 24.779326,-2.539881 35.68223,-7.619643c10.902904,-5.079762 20.814634,-12.823301 29.735191,-23.230618l38.655749,35.68223c-12.389663,15.115389 -27.690897,26.637776 -45.903702,34.56716c-18.212805,7.929384 -38.717697,11.894077 -61.514677,11.894077Z" style="fill:#ebebeb;fill-rule:nonzero;"/>
        </g>
    </g>
</svg>
