<svg xmlns="http://www.w3.org/2000/svg" width="793.701" height="795.048"><defs><clipPath clipPathUnits="userSpaceOnUse" id="a"><path d="M0 596.286h595.276V0H0z"/></clipPath></defs><g clip-path="url(#a)" transform="matrix(1.33333 0 0 -1.33333 0 795.048)"><path d="M131.749 472.265c-1.233-.528-26.636-32.308-35.396-52.65C262.952 487.812 406.67 182.878 281.945 82.978c12.862-2.094 45.036-2.471 59.99 2.914 2.064 1.25 5.814 3.687 7.814 5.937 99.084 111.469-42.825 415.113-213.75 381.877-1.95-.378-3.813-1.253-4.25-1.44" fill="#006e9e"/><path d="M95.211 270.781c136.096-73.52 400.422 114.284 349.575 244.094 17.228-7.244 47.931-37.048 48.998-41.949C519.94 352.653 238.183 150.464 94.511 218.318c0 0 8.482 22.046 9.482 27.468z" fill="#006e9e"/><path d="M155.973 349.213c18.944 82.064 100.827 133.23 182.89 114.282 82.066-18.947 133.234-100.83 114.288-182.895-18.945-82.065-100.826-133.23-182.891-114.283-82.064 18.947-133.232 100.832-114.287 182.896" fill="#231f20"/><path d="M157.363 332.717l1.506-10.489 3.227-10.466 4.627-9.986 6.144-9.786 7.626-9.11 8.919-8.45 10.197-7.597 11.293-6.854 8.127-4.017 8.393-3.715 13.524-4.598 14.125-3.603 14.525-2.528 15.017-1.345 15.229-.284 15.243.864 15.066 1.998 14.797 3.123 14.348 4.047 13.69 5.242 12.862 6.138 12.034 7.038 11.02 7.824 9.92 8.512 8.526 9.275 7.162 9.656 5.686 10.223 4.334 10.416 2.586 10.773 1.152 10.768-.56 10.65-1.996 10.646-2.217 7.004-4.026 7.619m15.405-56.252l.392-6.954-1.023-11.237-2.75-11.166-4.498-10.808-5.944-10.623-7.332-9.955-5.853-6.514-9.783-9.074-10.981-8.395-12.095-7.517-13.012-6.723-14.051-5.553-9.711-3.343-14.844-3.795-15.388-2.88-15.76-1.661-15.841-.524-15.643.73-15.424 1.702-9.992 1.98-14.695 3.563-13.83 4.865-8.876 3.775-12.408 6.395-11.333 7.424-10.054 8.275-8.85 8.834-7.381 9.7-5.783 10.099-2.992 7.143-3.341 10.742-1.642 11.053m14.355-54.264l3.964-7.36 4.277-6.384 7.627-9.112 5.753-5.613 6.405-5.38 6.964-5.147 11.286-6.758 8.127-4.02 8.393-3.714 13.532-4.694 9.257-2.414 14.457-2.912 9.939-1.221 15.193-1.142 10.042.025 10.198.516 10.076.888 15.04 2.377 14.49 3.389 9.644 2.957 9.14 3.305 8.924 3.672 12.644 6.505 7.883 4.84 7.485 5.098 10.224 8.248 6.076 6.05 5.684 6.216 4.906 6.35 5.594 9.507 3.383 7.43 3.683 10.953m-48.298-73.11l-10.223-6.91-7.272-4.035-7.673-3.775-12.186-4.852-8.31-2.865-8.637-2.316-8.758-1.942-8.875-1.664-13.576-1.416-13.646-.467-9.212.412-8.946.717-8.877 1.104-8.633 1.693-12.751 3.125-11.961 4.135-7.693 3.285-7.244 3.697-10.09 6.078-10.116 7.795m53.484 220.431l-12.055-1.31-9.363-1.508-13.342-3.405-8.494-2.973-7.896-3.314-7.57-3.864-7.061-4.306-9.538-7.15-5.654-5.258-4.955-5.687-6.345-9.029-3.371-6.436-3.462-9.21m21.215 42.735l3.338 5.058 4.552 4.61 5.15 4.27 5.578 3.63 6.183 3.196 6.509 2.645 7.113 2.21 7.446 1.565 7.77 1.015 8.289.478 8.512.016 8.654-.64 2.223-.325m5.79 6.032l-9.1 2.901-7.096 1.61-6.77 1.057-6.438.413-6.2-.238-8.602-1.454-7.637-2.914-4.598-2.609-3.007-2.117m29.013 18.518l2.604 1.04 3.679.731 6.214.048 6.81-1.628 7.197-3.033 7.78-4.52 3.832-2.788m9.235 3.311l-4.935 7.58-4.068 4.776-3.77 3.27-3.46 1.574-2.97.081m27.892 4.602l1.422-20.134m10.177-.537l3.904 8.383 3.355 5.29 3.275 3.758 3.012 2.022 3.12.502m29.345-6.463l-2.916.657-3.746.218-6.16-.808-6.42-2.544-6.606-3.988-7.068-5.548-3.674-3.499m8.488-3.707l5.067 2.737 6.877 2.862 9.826 3.065 6.412 1.303 6.174.618 8.723-.256 8.066-1.827 4.922-1.949 3.179-1.689m31.65-25.58l-4.001 3.825-5.156 3.938-5.606 3.525-6.033 2.827-6.572 2.313-6.817 1.723-7.355 1.21-7.594.523-7.933-.07-8.18-.663-8.432-1.156-8.383-1.82-2.252-.634m4.094-6.493l2.563.273 9.845.11 9.389-.21 13.785-1.528 8.735-1.78 8.38-2.188 11.873-4.237 7.338-3.69 6.782-3.922 6.435-4.422 5.705-4.95 7.553-8.066 4.148-5.916 4.143-8.71m13.887-53.574l-.65 8.516-2.585 10.892-4.287 10.583-5.972 10.084-7.381 9.701-8.66 8.848-10.157 8.364-7.521 4.92-12.061 6.895-13.027 5.683-13.832 4.865-14.701 3.66-15.104 2.58-2.7.291m96.997-182.82l2.445 5.99 1.74 6.513 1.149 6.76.367 6.992-.59 11.03-1.865 11.515-2.181 7.865-2.76 7.921-3.432 7.97-3.916 8.032-4.588 8.08-5.146 7.852-5.725 7.906-6.178 7.59-10.173 11.32-7.215 7.326-7.756 6.908-12.277 9.934-17.303 12.068-8.903 5.492-6.964 3.812m-5.58-6.302l13.177-11.877 14.54-14.93 13.49-16.246 12.283-16.805 10.703-17.488 9.27-17.49 7.253-17.346 5.213-16.912 1.908-8.074 1.319-7.83.822-7.579.232-7.332-.285-6.796-.877-6.55-1.296-6.007-1.903-5.572-2.41-5.129-2.936-4.498m-35.127-26.248l3.397 2.701 2.75 3.22 2.437 3.413 2.112 3.962 1.588 4.596 1.256 5.24.84 5.69.51 6.334-.212 13.822-1.875 15.713-3.396 16.943-4.82 18.086-6.391 18.74-7.571 19.135-8.615 19.063-9.636 18.611-12.952 22.2-11.107 16.41-1.576 1.99m-9.147-3.21l.936-2.417 8.02-22.825 6.068-19.526 7.129-25.083 4.978-20.365 4.578-20.106 3.66-19.311 2.926-18.408 2.537-21.01 1.053-14.91.227-12.678-.791-10.457-1.647-7.844-1.137-2.847-1.461-2.932-1.765-2.66m-29.151-4.481l-16.073 226.029m-10.075.449l-.587-2.522-3.743-18.774-4.252-25.107-2.76-20.518-2.445-20.88-2.098-25.816-1.004-19.634-.31-18.631.444-21.156 1.053-14.91 1.654-12.578 2.159-10.252 2.828-7.535 1.528-2.663 1.582-2.086 1.377-1.554 2.234-1.258m-25.366 5.261l-8.261 4.062-3.037 2.368-2.798 3.05-2.648 3.635-2.22 4.332-2.075 5.01-1.633 5.517-1.3 6.21-1.734 13.716-.353 15.818.887 17.241 2.32 18.578 3.602 19.431 4.805 19.993 5.85 20.065 8.876 24.663 7.944 18.873 8.69 17.78 1.275 2.283m-8.482 3.612l-1.79-1.745-12.938-15.88-11.893-17.141-10.873-18.026-9.311-18.49-7.85-18.867-4.852-13.888-4.742-18.174-2.974-17.478-.66-8.254-.11-7.928.252-7.62.802-7.292 1.143-6.696 1.693-6.373 2.32-5.755 2.667-5.256 3.11-4.748 3.538-4.05m-24.05 19.522l-2.71 3.155-3.814 5.269-3.265 5.596-2.64 6.213-2.9 9.914-1.081 7.18-.516 7.312.418 11.672.96 8.082 1.618 8.225 2.279 8.365 2.843 8.499 3.312 8.627 3.992 8.484 7.034 12.797 5.236 8.475 5.82 8.324 6.113 8.248 6.71 7.909 7.004 7.833 7.322 7.377 15.853 13.886 10.246 7.962m-4.1 6.587l-12.006-6.08-13.495-7.995-12.77-8.805-7.972-6.278-7.573-6.536-10.446-10.553-9.27-10.948-7.991-11.433-4.44-7.56-4.04-7.82-4.612-11.865-3.098-11.667-1.163-7.906-.523-7.48.418-11.328 2.186-10.633 2.203-6.815 2.499-5.627m-14.331 53.958l-.238 7.427 1.315 11.162 2.757 11.07 4.307 10.796 5.945 10.623 4.887 6.637 8.297 9.83 9.784 9.076 10.974 8.489 12.197 7.43 13.01 6.722 14.045 5.648 9.623 3.242 7.52 1.857m-.02.285l.819-4.811 2.674-5.35 3.443-4.056 5.272-4.217 5.355-2.682 7.346-2.45 7.838-1.272 8.13-.01 7.955 1.123 6.46 1.974 5.939 2.606 6.224 3.962 4.934 4.636 3.35 5.385 1.669 4.792.36 5.75-.908 4.71-2.578 5.357-4.075 4.87-5.543 4.008-5.54 2.575-7.428 2.254-7.912.979-6.792.007-6.724-.942-7.698-2.06-7.04-3.255-6.027-4.043-4.021-4.001-3.445-5.391-1.582-4.691zm77.133-1.871l12.838-4.361 14.488-6.06 13.789-6.966 13.086-7.874 12.188-8.701 7.513-6.16 6.957-6.39 9.522-10.221 8.203-10.503 6.707-10.987 3.772-7.374 3.01-7.427 2.265-7.67 1.57-7.334.99-11.288-.912-10.676-2.39-10.353" fill="none" stroke="#fff" stroke-width=".5" stroke-linecap="round" stroke-linejoin="round" stroke-miterlimit="3.864"/><path d="M222.95 402.152l-.063 3.622.555 5.669 1.33 5.532 2.202 5.4 3.064 5.367 3.669 4.93 4.444 4.793 5.137 4.459 5.647 4.017 6.244 3.677 11.413 4.989 7.296 2.318 7.52 1.857 13.084 1.668 7.824.256 7.872-.41 12.752-1.79 11.908-3.375 6.606-2.788 6.348-3.187 5.523-3.721 5.17-4.128 4.326-4.377 3.789-4.891 2.844-5.053 2.19-5.288.929-3.657.865-5.475-.08-5.637-.412-3.654-1.418-5.634-2.105-5.395-2.051-3.482-3.457-5.201-4.152-4.87-4.94-4.54-5.443-4.194-6.047-3.76-6.461-3.31-6.973-2.867-12.375-3.528-7.746-1.395-7.784-.825-8.016-.268-7.675.327-12.752 1.79-12.01 3.463-6.694 2.687-6.157 3.2-5.714 3.708-5.074 4.135-4.334 4.47-3.782 4.798-2.94 5.045-2.102 5.39-1.016 3.556zm-29.93-19.06l1.12-7.747 2.17-7.675 2.266-4.997 4.235-7.15 5.079-6.902 6.276-6.246 7.113-5.902 8.01-5.076 5.675-3.14 9.276-4.033 9.807-3.426 10.42-2.62 10.65-1.84 7.329-.827 11.122-.376 11.17.296 11.103 1.245 10.867 1.897 10.512 2.828 10.173 3.566 9.842 4.213 5.986 3.277 8.524 5.266 7.898 5.987 4.592 4.039 6.309 6.83 5.336 7.05 4.154 7.54 3.094 7.659 1.93 7.864.785 7.879-.084 5.244-.663 5.298-1.882 7.696-3.018 7.52-4.135 7.063-3.381 4.538-5.916 6.557-6.834 6.018-7.648 5.387-8.664 4.84-9.182 4.04-9.902 3.42-10.23 2.632-10.745 1.833-7.234.835-11.026.383-11.17-.296-11.103-1.246-10.961-1.904-10.61-2.833-10.268-3.573-9.651-4.2-9.025-4.92-5.674-3.636-7.708-5.973-6.818-6.39-4.076-4.576-5.337-7.05-4.06-7.533-3.194-7.57-1.932-7.864-.671-5.39zm210.537 45.873l4.497-4.08 4.964-5.286 6.328-8.342 3.573-5.861 2.904-5.907 3.328-9.217 1.725-9.52.494-9.7-.94-9.704-1.466-6.304-2.034-6.44-4.23-9.168-5.672-9.077-6.86-8.491-5.253-5.517-5.756-5.17-6.15-5.007-6.762-4.476-10.742-6.373-7.672-3.777-7.99-3.321-12.5-4.49-8.637-2.316-8.766-1.848-13.427-2.17-13.606-1.035-9.07-.246-9.204.316-8.94.623-8.877 1.104-12.915 2.732-12.492 3.526-11.785 4.337-7.516 3.489-6.964 3.812-9.927 6.47-5.978 4.74-5.414 4.875-7.26 7.99-5.86 8.47-4.65 8.937-3.233 9.224-1.401 6.297-.742 6.438m0 0l-.171 6.478.503 6.428 1.905 9.58 2.045 6.249 2.712 6.296 3.194 6.234 3.888 5.899 10.794 13.062" fill="none" stroke="#fff" stroke-width=".5" stroke-linecap="round" stroke-linejoin="round" stroke-miterlimit="3.864"/><path d="M176 246.303l-.143.658-.712 1.955-1.384 3.34-3.635 9.483.722 1.959.138 2.109-.153 3.519-1.384 3.34-2.479 2.596-1.123 5.076-2.144 4.623-.666 1.29-.63.816-2.609 3.064-.949 2.608-2.496 6.888-1.13 11.947.06 7.257.292 6.7.461 5.663.293 1.26.245.59 1.4 4.583 3.441 9.495 5.028 4.642 1.884.417 2.976-1.512 3.838 3.892 3.031-.935 2.557 1.704 1.15-6.792 4.057-1.914 6.661-8.987 1.38-.573.922-2.226-1.55-1.062-.568-2.807-2.897-.964.548-3.684 3.427-6.54-.363-2.982 3.114-6.18 1.557-.368 1.512 2.968 3.773-.598 3.413-6.35 14.67-9.958-.1-5.352-2.472-2.94-1.217 6.407-.412-3.656 2.571-13.373-.736-1.77 1.99-3.775-.144-7.453 1.942-3.11 2.312-6.998 6.252-8.635.706-1.86-1.978-.421 1.766-.642 2.533-3.356 15.893-1.572-.567-2.807-2.369-4.363-5.56-6.588-4.15-2.195-9.399-3.705-4.259-3.348-.696-2.34 4.868-7.965 2.148-7.39-9.355-.266 4.305-5.43-2.57-.177-.579-1.28-13.77 9.246-5.41 4.219-5 4.719-3.329 3.59-12.973 17.797z" fill="#fff"/><path d="M176 246.303l-.143.658-.712 1.955-1.384 3.34-3.635 9.483.722 1.959.138 2.109-.153 3.519-1.384 3.34-2.479 2.596-1.123 5.076-2.144 4.623-.666 1.29-.63.816-2.609 3.064-.949 2.608-2.496 6.888-1.13 11.947.06 7.257.292 6.7.461 5.663.293 1.26.245.59 1.4 4.583 3.441 9.495 5.028 4.642 1.884.417 2.976-1.512 3.838 3.892 3.031-.935 2.557 1.704 1.15-6.792 4.057-1.914 6.661-8.987 1.38-.573.922-2.226-1.55-1.062-.568-2.807-2.897-.964.548-3.684 3.427-6.54-.363-2.982 3.114-6.18 1.557-.368 1.512 2.968 3.773-.598 3.413-6.35 14.67-9.958-.1-5.352-2.472-2.94-1.217 6.407-.412-3.656 2.571-13.373-.736-1.77 1.99-3.775-.144-7.453 1.942-3.11 2.312-6.998 6.252-8.635.706-1.86-1.978-.421 1.766-.642 2.533-3.356 15.893-1.572-.567-2.807-2.369-4.363-5.56-6.588-4.15-2.195-9.399-3.705-4.259-3.348-.696-2.34 4.868-7.965 2.148-7.39-9.355-.266 4.305-5.43-2.57-.177-.579-1.28-13.77 9.246-5.41 4.219-5 4.719-3.329 3.59-12.973 17.797z" fill="none" stroke="#fff" stroke-width=".5" stroke-linecap="round" stroke-linejoin="round" stroke-miterlimit="3.864"/><path d="M395.625 232.584l2.52-3.166 7.916 4.365 1.285-.58 3.185 4.992-.658 1.196 2.814 7.543 1.75.98-1.95.533-1.138 3.93 2.662 4.287-4.338.465-3.072-6.608-2.231-2.253-1.89-4.426-6.197-5.678.067-.949-1.096-.744z" fill="#fff"/><path d="M395.625 232.584l2.52-3.166 7.916 4.365 1.285-.58 3.185 4.992-.658 1.196 2.814 7.543 1.75.98-1.95.533-1.138 3.93 2.662 4.287-4.338.465-3.072-6.608-2.231-2.253-1.89-4.426-6.197-5.678.067-.949-1.096-.744z" fill="none" stroke="#fff" stroke-width=".5" stroke-linecap="round" stroke-linejoin="round" stroke-miterlimit="3.864"/><path d="M441.717 261.158l.74 5.777-4.109-4.1-.666 1.29-1.348-2.576-2.52.494 1.694 4.412 2.266 1.78.38-2.647 1.237.086 2.87 8.12 3.292 3.471 5.158 5.512.89-1.752-1.58-4.689-1.88-1.85-3.129-8.519z" fill="#fff"/><path d="M441.717 261.158l.74 5.777-4.109-4.1-.666 1.29-1.348-2.576-2.52.494 1.694 4.412 2.266 1.78.38-2.647 1.237.086 2.87 8.12 3.292 3.471 5.158 5.512.89-1.752-1.58-4.689-1.88-1.85-3.129-8.519z" fill="none" stroke="#fff" stroke-width=".5" stroke-linecap="round" stroke-linejoin="round" stroke-miterlimit="3.864"/><path d="M327.895 464.193l-6.756.87-6.738.582-6.62.305-6.888.001-6.765-.373-6.656-.556-6.724-.942-6.61-1.22-6.684-1.513-6.569-1.79-6.352-2.158-6.33-2.443-6.224-2.625-5.646-2.68-5.802-3.17-.49-1.18-4.238-2.297-3.769-3.506 9.06 4.445 6.606 5.324-2.723-3.433-7.456-5.479-1.716-2.79.802-.518 13.317 6.457 7.112.874-1.243 1.345 5.136 3.123 2.208-1.469 9.99 3.46-2.655 2.392-7.736 1.182 3.591 1.967 5.262-.018 15.538 3.461 3.956-.49.495-1.588-3.673-2.163-2.703-3.718-2.135-.91-1.239-1.423 1.528-1.326 4.488.12 3.15 2.795 3.12-.834 2.921-2.089.286.02.315 2.312-3.324 1.011.94 1.592 7.03.677 4.003-1.154 3.842 1.125 5.167-.024.741-.999 8.936-3.294 7.424.514 3.947-3.068 6.25-4.53 1.242-2.682 11.555-3.78.893 2.256 5.531-2.48 1.225 1.611-3.967 3.352 2.767.097 7.51-3.394 2.641 3.237-5.34 3.83 12.381-4.679-3.53 2.62-9.66 4.007-11.119 3.048-1.555 1.706-6.576 5.08-2.767-.096-.12 1.71-2.06 2.052.742.337-1.922 1.49-5.804 2.27 5.853-.263z" fill="#fff"/><path d="M327.895 464.193l-6.756.87-6.738.582-6.62.305-6.888.001-6.765-.373-6.656-.556-6.724-.942-6.61-1.22-6.684-1.513-6.569-1.79-6.352-2.158-6.33-2.443-6.224-2.625-5.646-2.68-5.802-3.17-.49-1.18-4.238-2.297-3.769-3.506 9.06 4.445 6.606 5.324-2.723-3.433-7.456-5.479-1.716-2.79.802-.518 13.317 6.457 7.112.874-1.243 1.345 5.136 3.123 2.208-1.469 9.99 3.46-2.655 2.392-7.736 1.182 3.591 1.967 5.262-.018 15.538 3.461 3.956-.49.495-1.588-3.673-2.163-2.703-3.718-2.135-.91-1.239-1.423 1.528-1.326 4.488.12 3.15 2.795 3.12-.834 2.921-2.089.286.02.315 2.312-3.324 1.011.94 1.592 7.03.677 4.003-1.154 3.842 1.125 5.167-.024.741-.999 8.936-3.294 7.424.514 3.947-3.068 6.25-4.53 1.242-2.682 11.555-3.78.893 2.256 5.531-2.48 1.225 1.611-3.967 3.352 2.767.097 7.51-3.394 2.641 3.237-5.34 3.83 12.381-4.679-3.53 2.62-9.66 4.007-11.119 3.048-1.555 1.706-6.576 5.08-2.767-.096-.12 1.71-2.06 2.052.742.337-1.922 1.49-5.804 2.27 5.853-.263z" fill="none" stroke="#fff" stroke-width=".5" stroke-linecap="round" stroke-linejoin="round" stroke-miterlimit="3.864"/><path d="M231.775 358.48l.428-.637-1.6-3.07-1.313-.377-.62-2.047z" fill="#fff"/><path d="M231.775 358.48l.428-.637-1.6-3.07-1.313-.377-.62-2.047z" fill="none" stroke="#fff" stroke-width=".5" stroke-miterlimit="3.864"/><path d="M231.775 358.48l.428-.637-1.6-3.07-1.313-.377-.62-2.047" fill="none" stroke="#fff" stroke-width=".5" stroke-linecap="round" stroke-linejoin="round" stroke-miterlimit="3.864"/><path d="M228.67 352.349l-.886-2.352-3.979-1.898-1.443-1.245.299-1.506 2.37-2.413 2.705-.385-.167-4.402-1.403-3.151 1.827-1.496-3.239-2.896-3.02-1.927.032-1.811.303-2.937-1.997 1.198-3.012-.686.565 1.47-1.874 2.16-1.123-1.7-1.807 2.549-2.049-3.483 1.18-3.163-.586-1.185-.976 2.986-2.025 1.578.29 4.028-.188 2.659 1.892 2.994-.433 2.07-1.028 5.082 1.01 4.65-1.169.3.743 1.675-1.522 1.23-1.723-2.695-.672-6.727 1.549-8.386-1.793 2.357-1.206-3.233-2.694-1.141 2.412 5.13-1.371 9.926 1.425 4.202-.562 2.538-1.93.248-2.224.323-2.076 3.674-1.239-1.422-.98-1.022-5.928-.03-.722-1.957-3.978-.562-1.275 3.157-1.557.37.896 4.928-.706 1.86 2.227 3.685 5.062 4.168 1.735 2.506 1.55-.274 2.242-8.721 5.348 4.188 2.026 7.87 3.629-1.276.603-3.107 4.549.6.699-.428 4.597 1.273 1.161-1.542 4.101 1.524 3.457 3.866 2.896-.372-2.278-1.59-.002-1.336-2.005-.044-1.633-1.258 1.601-3.706-.098-2.68 5.057-1.176.923-2.227 2.722-3.342z" fill="#fff"/><path d="M228.67 352.349l-.886-2.352-3.979-1.898-1.443-1.245.299-1.506 2.37-2.413 2.705-.385-.167-4.402-1.403-3.151 1.827-1.496-3.239-2.896-3.02-1.927.032-1.811.303-2.937-1.997 1.198-3.012-.686.565 1.47-1.874 2.16-1.123-1.7-1.807 2.549-2.049-3.483 1.18-3.163-.586-1.185-.976 2.986-2.025 1.578.29 4.028-.188 2.659 1.892 2.994-.433 2.07-1.028 5.082 1.01 4.65-1.169.3.743 1.675-1.522 1.23-1.723-2.695-.672-6.727 1.549-8.386-1.793 2.357-1.206-3.233-2.694-1.141 2.412 5.13-1.371 9.926 1.425 4.202-.562 2.538-1.93.248-2.224.323-2.076 3.674-1.239-1.422-.98-1.022-5.928-.03-.722-1.957-3.978-.562-1.275 3.157-1.557.37.896 4.928-.706 1.86 2.227 3.685 5.062 4.168 1.735 2.506 1.55-.274 2.242-8.721 5.348 4.188 2.026 7.87 3.629-1.276.603-3.107 4.549.6.699-.428 4.597 1.273 1.161-1.542 4.101 1.524 3.457 3.866 2.896-.372-2.278-1.59-.002-1.336-2.005-.044-1.633-1.258 1.601-3.706-.098-2.68 5.057-1.176.923-2.227 2.722-3.342z" fill="none" stroke="#fff" stroke-width=".5" stroke-miterlimit="3.864"/><path d="M228.67 352.349l-.886-2.352-3.979-1.898-1.443-1.245.299-1.506 2.37-2.413 2.705-.385-.167-4.402-1.403-3.151 1.827-1.496-3.239-2.896-3.02-1.927.032-1.811.303-2.937-1.997 1.198-3.012-.686.565 1.47-1.874 2.16-1.123-1.7-1.807 2.549-2.049-3.483 1.18-3.163-.586-1.185-.976 2.986-2.025 1.578.29 4.028-.188 2.659 1.892 2.994-.433 2.07-1.028 5.082 1.01 4.65-1.169.3.743 1.675-1.522 1.23-1.723-2.695-.672-6.727 1.549-8.386-1.793 2.357-1.206-3.233-2.694-1.141 2.412 5.13-1.371 9.926 1.425 4.202-.562 2.538-1.93.248-2.224.323-2.076 3.674-1.239-1.422-.98-1.022-5.928-.03-.722-1.957-3.978-.562-1.275 3.157-1.557.37.896 4.928-.706 1.86 2.227 3.685 5.062 4.168 1.735 2.506 1.55-.274 2.242-8.721 5.348 4.188 2.026 7.87 3.629-1.276.603-3.107 4.549.6.699-.428 4.597 1.273 1.161-1.542 4.101 1.524 3.457 3.866 2.896-.372-2.278-1.59-.002-1.336-2.005-.044-1.633-1.258 1.601-3.706-.098-2.68 5.057-1.176.923-2.227 2.722-3.342" fill="none" stroke="#fff" stroke-width=".5" stroke-linecap="round" stroke-linejoin="round" stroke-miterlimit="3.864"/><path d="M231.775 358.48l-2.723 3.343 3.333 1.567-.218-.97 1.517 1.537 2.497 2.559.972-.22.195-2.753 1.783 1.84.898.827-.809.61 1.212 1.803 2.706-.385 1.956-1.965 2.794-.283-1.08 1.739.613.805-1.074.308-5.369 1.537.782 1.104-.786 1.664 4.375 4.406 6.208 1.479.662 2.814-1.97.818-2.599-2.471-6.35-.821-3.28-3.662-.412-2.32-1.177-.94-2.753-.286-4.899-3.774-1.413 1.047-1.455-1.055-.938 1.08 5.637 8.216 1.008 1.978-1.633-1.258-3.766.503.268 2.977 6.763 5.812 5.553-1.43 12.051 4.08 5.283 1.034 2.596-1.54 4.57.318.09-4.002 1.4-.857 3.4-7.496-3.837-2.556.386-1.405 4.377-1.033 2.561 5.713 2.69-2.868 6.195 1.669.508-1.777 6.761 3.139 6.23-4.245.851 1.49-1.844 5.79 2.404 3.888 2.42-.405-.554-2.997-1.962-11.492 2.372-1.077 2.615 3.617-.796 7.198 2.962 4.118 5.108-4.61-.451 3.69-3.064 4.084 4.012 1.423-1.256 1.535 3.438 4.15 4.21 2.678-.106 2.856 7.594-.524 1.099-2.024-1.482-7.451 5.104 6.27 4.243.866-.473 2.64 4.318 1.158 3.426.237 3.795 1.789-.006 1.43-3.023 2.178 3.355 3.954 4.168.575.106 3.92 4.162.67-2.78 9.542 3.858 9.047 5.41-2.107.816-4.811 1.971-2.154 4.936.532-.559-1.565 8.438-7.051-1.225-1.612 2.254-3.471 4.836-3.482 6.877-3.914 6.383-7.766 1.513-2.472-12.849 5.887-9.325 11.475-1.427-.1 2.248-3.375-2.844-1.723 3.96-4.594 1.61.207.16-3.615-2.699-1.046-1.449-6.59 5.006-13.968 4.006 1.517.062 1.818 2.951.204 8.965-9.114 5.098-15.298-.317-3.65-2.568-.177.527-3.4.006-.093-.515.536-.53 2.063-2.459 2.31-.052 2.098 1.252 1.23-4.493 8.088-1.806-5.565-2.61 1.729-4.08-1.81-5.93 4.076-1.755.45-2.815-.767-2.185-2.918-.057-1.913 1.781-.831 1.422-5.246-.885-2.352-2.455-.456-.273-.21-2.236-.822-1.057-2.65-3.422-3.005-.285-.02-8.479-.491-2.626-2.09-2.725 2.006-4.5.07-1.158-2.561 1.111-3.55-4.373-1.734-1.406.953-3.869-.745-5.329-5.81-.904-.73-2.09-1.575.243-3.42-1.096-.743-3.549.136-.207-5.168-4.19-1.626 1.696-3.7-.194-2.685-.21-1.064-7.102-5.073-2.78.094-1.73-1.265-.273-1.546-.267-1.641 2.271-.988.112-2.95-2.609.39-3.674-2.161-.323 3.223-1.346 1.433-3.286-3.568-2.945-.3-2.548.874-2.059.717-1.578-.682-.982-2.357-2.89-1.061-.946-1.496-2.637.772-.353.929-.154 2.186-7.854 5.564-6.324-1.201-.178-1.541-4.799.24-4.579 3.884-.086 2.57-1.515 1.137.836.343-.419 1.88-2.91-.774-.844-.25-1.819 2.738-.313.36-1.24 4.018-.686 1.575-2.079 1 .65 3.005-1.413 2.383-3.815 6.608 3.666.92-.509 1.78 2.64.564-1.259.199-4.337.463-1.489-.58-1.903 1.205.99-3.177 2.448-.785-.606-.901-1.502.946-2.917-.68-1.016 3.558 2.345.639-2.33 1.843.668 1.382-2.882.182-1.885-1.752-1.828 1.496 1.403 3.15.168 4.402-2.706.386-2.37 2.412-.298 1.507 1.442 1.245 3.979 1.897.887 2.352.62 2.047 1.313.377 1.6 3.07z" fill="#fff"/><path d="M231.775 358.48l-2.723 3.343 3.333 1.567-.218-.97 1.517 1.537 2.497 2.559.972-.22.195-2.753 1.783 1.84.898.827-.809.61 1.212 1.803 2.706-.385 1.956-1.965 2.794-.283-1.08 1.739.613.805-1.074.308-5.369 1.537.782 1.104-.786 1.664 4.375 4.406 6.208 1.479.662 2.814-1.97.818-2.599-2.471-6.35-.821-3.28-3.662-.412-2.32-1.177-.94-2.753-.286-4.899-3.774-1.413 1.047-1.455-1.055-.938 1.08 5.637 8.216 1.008 1.978-1.633-1.258-3.766.503.268 2.977 6.763 5.812 5.553-1.43 12.051 4.08 5.283 1.034 2.596-1.54 4.57.318.09-4.002 1.4-.857 3.4-7.496-3.837-2.556.386-1.405 4.377-1.033 2.561 5.713 2.69-2.868 6.195 1.669.508-1.777 6.761 3.139 6.23-4.245.851 1.49-1.844 5.79 2.404 3.888 2.42-.405-.554-2.997-1.962-11.492 2.372-1.077 2.615 3.617-.796 7.198 2.962 4.118 5.108-4.61-.451 3.69-3.064 4.084 4.012 1.423-1.256 1.535 3.438 4.15 4.21 2.678-.106 2.856 7.594-.524 1.099-2.024-1.482-7.451 5.104 6.27 4.243.866-.473 2.64 4.318 1.158 3.426.237 3.795 1.789-.006 1.43-3.023 2.178 3.355 3.954 4.168.575.106 3.92 4.162.67-2.78 9.542 3.858 9.047 5.41-2.107.816-4.811 1.971-2.154 4.936.532-.559-1.565 8.438-7.051-1.225-1.612 2.254-3.471 4.836-3.482 6.877-3.914 6.383-7.766 1.513-2.472-12.849 5.887-9.325 11.475-1.427-.1 2.248-3.375-2.844-1.723 3.96-4.594 1.61.207.16-3.615-2.699-1.046-1.449-6.59 5.006-13.968 4.006 1.517.062 1.818 2.951.204 8.965-9.114 5.098-15.298-.317-3.65-2.568-.177.527-3.4.006-.093-.515.536-.53 2.063-2.459 2.31-.052 2.098 1.252 1.23-4.493 8.088-1.806-5.565-2.61 1.729-4.08-1.81-5.93 4.076-1.755.45-2.815-.767-2.185-2.918-.057-1.913 1.781-.831 1.422-5.246-.885-2.352-2.455-.456-.273-.21-2.236-.822-1.057-2.65-3.422-3.005-.285-.02-8.479-.491-2.626-2.09-2.725 2.006-4.5.07-1.158-2.561 1.111-3.55-4.373-1.734-1.406.953-3.869-.745-5.329-5.81-.904-.73-2.09-1.575.243-3.42-1.096-.743-3.549.136-.207-5.168-4.19-1.626 1.696-3.7-.194-2.685-.21-1.064-7.102-5.073-2.78.094-1.73-1.265-.273-1.546-.267-1.641 2.271-.988.112-2.95-2.609.39-3.674-2.161-.323 3.223-1.346 1.433-3.286-3.568-2.945-.3-2.548.874-2.059.717-1.578-.682-.982-2.357-2.89-1.061-.946-1.496-2.637.772-.353.929-.154 2.186-7.854 5.564-6.324-1.201-.178-1.541-4.799.24-4.579 3.884-.086 2.57-1.515 1.137.836.343-.419 1.88-2.91-.774-.844-.25-1.819 2.738-.313.36-1.24 4.018-.686 1.575-2.079 1 .65 3.005-1.413 2.383-3.815 6.608 3.666.92-.509 1.78 2.64.564-1.259.199-4.337.463-1.489-.58-1.903 1.205.99-3.177 2.448-.785-.606-.901-1.502.946-2.917-.68-1.016 3.558 2.345.639-2.33 1.843.668 1.382-2.882.182-1.885-1.752-1.828 1.496 1.403 3.15.168 4.402-2.706.386-2.37 2.412-.298 1.507 1.442 1.245 3.979 1.897.887 2.352.62 2.047 1.313.377 1.6 3.07z" fill="none" stroke="#fff" stroke-width=".5" stroke-linecap="round" stroke-linejoin="round" stroke-miterlimit="3.864"/><path d="M394.143 349.675l-.529 2.063-2.459 2.311-.053 2.096 1.252 1.232-4.492 8.087-1.807-5.565-2.609 1.729-4.08-1.81-5.932 4.075-1.754.451-2.814-.767-2.186-2.919-.057-1.912 1.782-.832 1.422-5.245-.885-2.352-2.455-.456-.274-.21-2.236-.823-1.057-2.65-3.422-3.004-.285-.02-8.478-.491-2.627-2.091-2.725 2.007-4.5.07-1.158-2.561 1.111-3.55-4.373-1.734-1.406.953-3.869-.746-5.328-5.808-.905-.731-2.089-1.575.242-3.419-1.096-.744-3.549.136-.207-5.168-4.189-1.626 1.695-3.7-.193-2.685-.21-1.065-7.103-5.073-2.78.095-1.729-1.265-.274-1.546-.267-1.641 2.271-.988.112-2.95-2.609.391-3.674-2.162-.323 3.222-1.345 1.434-3.287-3.569-2.944-.298-2.549.873-2.059.716-1.578-.681-.98-2.358-2.89-1.06-.948-1.496-2.637.771-.352.93-.155 2.185-7.854 5.564-6.324-1.201-.178-1.54-4.799.241-4.579 3.882-.086 2.571-1.515 1.136.837.344-.42 1.88-2.91-.774-.844-.25-1.819 2.738-.312.36-1.24 4.018-.686 1.575-2.079 1.001-2.516-.938-6.279 3.574-1.167 2.973-3.153 1.309-3.978-.562-2.54 2.115.318-1.791-5.764 1.701-2.017-3.957 1.054-1.359-1.085-3.606 3.308-3.493 1.843.987 2.865-4.001 5.982-.732-1.165-2.466-.77-2.63-3.035-3.073-2.818-3.439-.1-5.352.19.014-1.423-2.867.897-.51 4.195-13.358.232-7.332 2.987-4.375 2.99-8.476-.397-2.51 1.6-6.379 3.03-.935 9.076.152 8.418 1.346 2.062 1.955 4.602-.158 6.911 3.722 5.201 7.613-7.669 7.008-.134 1.901.572 1.375-.945-.16-5.068-4.075-4.853 1.002-.788 1.662.65 3.004-.626.721-1.403-3.15-4.002 10.601-.077 3.813 1.264-.295.688 1.097 4.588-8.08 6.556-4.797 4.243.868 1.995-3.871 9.747-2.571 11.4-.26 3.73-4.037 5.86-7.132 4.972 2.728 4.004-14.705 8.452-14.018 2.886-1.613 5.078 5.315.092 12.222 4.422 2.405 6.248 7.685 2.904 2.205 1.08 3.701 4.57 1.653 3.714 4.265 1.822-.064 2.471-3.838 5.953-4.359.762-5.387 2.658.279 2.527 4.852 2.576-1.254 3.658-7.096 1.272-5.828-.262-4.408 4.914-1.856 1.424-3.91 2.051-1.957 5.12-.695 1.604 1.638-2.14 1.856-.432 3.406-3.133 1.024-3.976.773-2.24 3.281-.862 9.485 6.893-1.432 1.746-1.693 2.053.715 1.353-.194.69-3.006 2.95 5.645 4.403 5.363-2.433 7.371-8.659 4.744 1.018 4.557 2.152 3.393 3.102 2.123 1.9-2.539-.2 2.847 4.294 4.211.48 2.705 4.89 3.869 2.884 9.266-.963 2.797 1.33 5.532-.898 4.614-2.092 3.864-5.61 3.619-2.103-.05-.295 4.179 2.227 3.685-.495 1.589-2.794-1.053-1.868-3.374-4.109 2.674 2.822 8.785 1.393-.763 1.015-4.892 2.331 6.269 1.98.423 1.137-3.929 2.668 1.52 4.064-7.448 2.037 3.671-.105 4.192-4.932 3.476-2.019.147-.87 1.467.711 4.821-1.34 4.106z" fill="#fff"/><path d="M394.143 349.675l-.529 2.063-2.459 2.311-.053 2.096 1.252 1.232-4.492 8.087-1.807-5.565-2.609 1.729-4.08-1.81-5.932 4.075-1.754.451-2.814-.767-2.186-2.919-.057-1.912 1.782-.832 1.422-5.245-.885-2.352-2.455-.456-.274-.21-2.236-.823-1.057-2.65-3.422-3.004-.285-.02-8.478-.491-2.627-2.091-2.725 2.007-4.5.07-1.158-2.561 1.111-3.55-4.373-1.734-1.406.953-3.869-.746-5.328-5.808-.905-.731-2.089-1.575.242-3.419-1.096-.744-3.549.136-.207-5.168-4.189-1.626 1.695-3.7-.193-2.685-.21-1.065-7.103-5.073-2.78.095-1.729-1.265-.274-1.546-.267-1.641 2.271-.988.112-2.95-2.609.391-3.674-2.162-.323 3.222-1.345 1.434-3.287-3.569-2.944-.298-2.549.873-2.059.716-1.578-.681-.98-2.358-2.89-1.06-.948-1.496-2.637.771-.352.93-.155 2.185-7.854 5.564-6.324-1.201-.178-1.54-4.799.241-4.579 3.882-.086 2.571-1.515 1.136.837.344-.42 1.88-2.91-.774-.844-.25-1.819 2.738-.312.36-1.24 4.018-.686 1.575-2.079 1.001-2.516-.938-6.279 3.574-1.167 2.973-3.153 1.309-3.978-.562-2.54 2.115.318-1.791-5.764 1.701-2.017-3.957 1.054-1.359-1.085-3.606 3.308-3.493 1.843.987 2.865-4.001 5.982-.732-1.165-2.466-.77-2.63-3.035-3.073-2.818-3.439-.1-5.352.19.014-1.423-2.867.897-.51 4.195-13.358.232-7.332 2.987-4.375 2.99-8.476-.397-2.51 1.6-6.379 3.03-.935 9.076.152 8.418 1.346 2.062 1.955 4.602-.158 6.911 3.722 5.201 7.613-7.669 7.008-.134 1.901.572 1.375-.945-.16-5.068-4.075-4.853 1.002-.788 1.662.65 3.004-.626.721-1.403-3.15-4.002 10.601-.077 3.813 1.264-.295.688 1.097 4.588-8.08 6.556-4.797 4.243.868 1.995-3.871 9.747-2.571 11.4-.26 3.73-4.037 5.86-7.132 4.972 2.728 4.004-14.705 8.452-14.018 2.886-1.613 5.078 5.315.092 12.222 4.422 2.405 6.248 7.685 2.904 2.205 1.08 3.701 4.57 1.653 3.714 4.265 1.822-.064 2.471-3.838 5.953-4.359.762-5.387 2.658.279 2.527 4.852 2.576-1.254 3.658-7.096 1.272-5.828-.262-4.408 4.914-1.856 1.424-3.91 2.051-1.957 5.12-.695 1.604 1.638-2.14 1.856-.432 3.406-3.133 1.024-3.976.773-2.24 3.281-.862 9.485 6.893-1.432 1.746-1.693 2.053.715 1.353-.194.69-3.006 2.95 5.645 4.403 5.363-2.433 7.371-8.659 4.744 1.018 4.557 2.152 3.393 3.102 2.123 1.9-2.539-.2 2.847 4.294 4.211.48 2.705 4.89 3.869 2.884 9.266-.963 2.797 1.33 5.532-.898 4.614-2.092 3.864-5.61 3.619-2.103-.05-.295 4.179 2.227 3.685-.495 1.589-2.794-1.053-1.868-3.374-4.109 2.674 2.822 8.785 1.393-.763 1.015-4.892 2.331 6.269 1.98.423 1.137-3.929 2.668 1.52 4.064-7.448 2.037 3.671-.105 4.192-4.932 3.476-2.019.147-.87 1.467.711 4.821-1.34 4.106z" fill="none" stroke="#fff" stroke-width=".5" stroke-linecap="round" stroke-linejoin="round" stroke-miterlimit="3.864"/><path d="M358.38 434.81l.379-1.31-.945-.162-.541 2.253z" fill="#fff"/><path d="M358.38 434.81l.379-1.31-.945-.162-.541 2.253z" fill="none" stroke="#fff" stroke-width=".5" stroke-miterlimit="3.864"/><path d="M358.38 434.81l.379-1.31-.945-.162-.541 2.253z" fill="#fff"/><path d="M358.38 434.81l.379-1.31-.945-.162-.541 2.253z" fill="none" stroke="#fff" stroke-width=".5" stroke-linecap="round" stroke-linejoin="round" stroke-miterlimit="3.864"/><path d="M309.284 446.013l2.81 2.198-1.433 1.333-7.5-2.14 3.954-1.828z" fill="#fff"/><path d="M309.284 446.013l2.81 2.198-1.433 1.333-7.5-2.14 3.954-1.828z" fill="none" stroke="#fff" stroke-width=".5" stroke-miterlimit="3.864"/><path d="M309.284 446.013l2.81 2.198-1.433 1.333-7.5-2.14 3.954-1.828z" fill="#fff"/><path d="M309.284 446.013l2.81 2.198-1.433 1.333-7.5-2.14 3.954-1.828z" fill="none" stroke="#fff" stroke-width=".5" stroke-linecap="round" stroke-linejoin="round" stroke-miterlimit="3.864"/><path d="M304.247 452.345l2.079-1.001.528-2.063-4.19-1.626-3.48.523-2.461-.362-1.8 2.452-3.507.903 2 1.475 3.284-.441 6.337 1.01z" fill="#fff"/><path d="M304.247 452.345l2.079-1.001.528-2.063-4.19-1.626-3.48.523-2.461-.362-1.8 2.452-3.507.903 2 1.475 3.284-.441 6.337 1.01z" fill="none" stroke="#fff" stroke-width=".5" stroke-miterlimit="3.864"/><path d="M304.247 452.345l2.079-1.001.528-2.063-4.19-1.626-3.48.523-2.461-.362-1.8 2.452-3.507.903 2 1.475 3.284-.441 6.337 1.01z" fill="#fff"/><path d="M304.247 452.345l2.079-1.001.528-2.063-4.19-1.626-3.48.523-2.461-.362-1.8 2.452-3.507.903 2 1.475 3.284-.441 6.337 1.01z" fill="none" stroke="#fff" stroke-width=".5" stroke-linecap="round" stroke-linejoin="round" stroke-miterlimit="3.864"/><path d="M291.19 448.96l2.27-.988-1.436-1.34-2.277-.253-1.4 2.193 1.47.866z" fill="#fff"/><path d="M291.19 448.96l2.27-.988-1.436-1.34-2.277-.253-1.4 2.193 1.47.866z" fill="none" stroke="#fff" stroke-width=".5" stroke-miterlimit="3.864"/><path d="M291.19 448.96l2.27-.988-1.436-1.34-2.277-.253-1.4 2.193 1.47.866z" fill="#fff"/><path d="M291.19 448.96l2.27-.988-1.436-1.34-2.277-.253-1.4 2.193 1.47.866z" fill="none" stroke="#fff" stroke-width=".5" stroke-linecap="round" stroke-linejoin="round" stroke-miterlimit="3.864"/><path d="M287.69 451.104l2.224 1.013-3.155-.027-.829-.44z" fill="#fff"/><path d="M287.69 451.104l2.224 1.013-3.155-.027-.829-.44z" fill="none" stroke="#fff" stroke-width=".5" stroke-miterlimit="3.864"/><path d="M287.69 451.104l2.224 1.013-3.155-.027-.829-.44z" fill="#fff"/><path d="M287.69 451.104l2.224 1.013-3.155-.027-.829-.44z" fill="none" stroke="#fff" stroke-width=".5" stroke-linecap="round" stroke-linejoin="round" stroke-miterlimit="3.864"/><path d="M291.09 443.61l-.095 1.33 1.618.11 1.665-.552-.49-1.18-.74-.337z" fill="#fff"/><path d="M291.09 443.61l-.095 1.33 1.618.11 1.665-.552-.49-1.18-.74-.337z" fill="none" stroke="#fff" stroke-width=".5" stroke-miterlimit="3.864"/><path d="M291.09 443.61l-.095 1.33 1.618.11 1.665-.552-.49-1.18-.74-.337z" fill="#fff"/><path d="M291.09 443.61l-.095 1.33 1.618.11 1.665-.552-.49-1.18-.74-.337z" fill="none" stroke="#fff" stroke-width=".5" stroke-linecap="round" stroke-linejoin="round" stroke-miterlimit="3.864"/><path d="M290.427 440.796l1.123.364 1.06-1.454z" fill="#fff"/><path d="M290.427 440.796l1.123.364 1.06-1.454z" fill="none" stroke="#fff" stroke-width=".5" stroke-miterlimit="3.864"/><path d="M290.427 440.796l1.123.364 1.06-1.454z" fill="#fff"/><path d="M290.427 440.796l1.123.364 1.06-1.454z" fill="none" stroke="#fff" stroke-width=".5" stroke-linecap="round" stroke-linejoin="round" stroke-miterlimit="3.864"/><path d="M293.445 440.05l-.284 1.316 2.623-.582.652-1.099z" fill="#fff"/><path d="M293.445 440.05l-.284 1.316 2.623-.582.652-1.099z" fill="none" stroke="#fff" stroke-width=".5" stroke-miterlimit="3.864"/><path d="M293.445 440.05l-.284 1.316 2.623-.582.652-1.099z" fill="#fff"/><path d="M293.445 440.05l-.284 1.316 2.623-.582.652-1.099z" fill="none" stroke="#fff" stroke-width=".5" stroke-linecap="round" stroke-linejoin="round" stroke-miterlimit="3.864"/><path d="M298.84 443.572l-.824-.534-1.807 1.211.573 1.376 4.834.621 2.378-1.172-2.089-1.576z" fill="#fff"/><path d="M298.84 443.572l-.824-.534-1.807 1.211.573 1.376 4.834.621 2.378-1.172-2.089-1.576z" fill="none" stroke="#fff" stroke-width=".5" stroke-miterlimit="3.864"/><path d="M298.84 443.572l-.824-.534-1.807 1.211.573 1.376 4.834.621 2.378-1.172-2.089-1.576z" fill="#fff"/><path d="M298.84 443.572l-.824-.534-1.807 1.211.573 1.376 4.834.621 2.378-1.172-2.089-1.576z" fill="none" stroke="#fff" stroke-width=".5" stroke-linecap="round" stroke-linejoin="round" stroke-miterlimit="3.864"/><path d="M304.659 442.448l-2.665-.185 3.503 1.865 1.393-.763z" fill="#fff"/><path d="M304.659 442.448l-2.665-.185 3.503 1.865 1.393-.763z" fill="none" stroke="#fff" stroke-width=".5" stroke-miterlimit="3.864"/><path d="M304.659 442.448l-2.665-.185 3.503 1.865 1.393-.763z" fill="#fff"/><path d="M304.659 442.448l-2.665-.185 3.503 1.865 1.393-.763z" fill="none" stroke="#fff" stroke-width=".5" stroke-linecap="round" stroke-linejoin="round" stroke-miterlimit="3.864"/><path d="M299.66 441.434l-1.148.016 1.368.954.618-.626z" fill="#fff"/><path d="M299.66 441.434l-1.148.016 1.368.954.618-.626z" fill="none" stroke="#fff" stroke-width=".5" stroke-miterlimit="3.864"/><path d="M299.66 441.434l-1.148.016 1.368.954.618-.626z" fill="#fff"/><path d="M299.66 441.434l-1.148.016 1.368.954.618-.626z" fill="none" stroke="#fff" stroke-width=".5" stroke-linecap="round" stroke-linejoin="round" stroke-miterlimit="3.864"/><path d="M291.94 436.988l.176-1.133-5.485 1.815 1.095.744-.474 1.303 1.686.499 2.501-1.545z" fill="#fff"/><path d="M291.94 436.988l.176-1.133-5.485 1.815 1.095.744-.474 1.303 1.686.499 2.501-1.545z" fill="none" stroke="#fff" stroke-width=".5" stroke-miterlimit="3.864"/><path d="M291.94 436.988l.176-1.133-5.485 1.815 1.095.744-.474 1.303 1.686.499 2.501-1.545z" fill="#fff"/><path d="M291.94 436.988l.176-1.133-5.485 1.815 1.095.744-.474 1.303 1.686.499 2.501-1.545z" fill="none" stroke="#fff" stroke-width=".5" stroke-linecap="round" stroke-linejoin="round" stroke-miterlimit="3.864"/><path d="M289.96 442.004l1.014.548-2.495.113-1.957 1.964-7.677-2.344 2.18-1.09 4.258 2.013.842-1.087z" fill="#fff"/><path d="M289.96 442.004l1.014.548-2.495.113-1.957 1.964-7.677-2.344 2.18-1.09 4.258 2.013.842-1.087z" fill="none" stroke="#fff" stroke-width=".5" stroke-miterlimit="3.864"/><path d="M289.96 442.004l1.014.548-2.495.113-1.957 1.964-7.677-2.344 2.18-1.09 4.258 2.013.842-1.087z" fill="#fff"/><path d="M289.96 442.004l1.014.548-2.495.113-1.957 1.964-7.677-2.344 2.18-1.09 4.258 2.013.842-1.087z" fill="none" stroke="#fff" stroke-width=".5" stroke-linecap="round" stroke-linejoin="round" stroke-miterlimit="3.864"/><path d="M289.166 443.762l-1.407.953 2.108-.045z" fill="#fff"/><path d="M289.166 443.762l-1.407.953 2.108-.045z" fill="none" stroke="#fff" stroke-width=".5" stroke-miterlimit="3.864"/><path d="M289.166 443.762l-1.407.953 2.108-.045z" fill="#fff"/><path d="M289.166 443.762l-1.407.953 2.108-.045z" fill="none" stroke="#fff" stroke-width=".5" stroke-linecap="round" stroke-linejoin="round" stroke-miterlimit="3.864"/><path d="M288.447 445.812l-3.406-.522 2.28 2.926z" fill="#fff"/><path d="M288.447 445.812l-3.406-.522 2.28 2.926z" fill="none" stroke="#fff" stroke-width=".5" stroke-miterlimit="3.864"/><path d="M288.447 445.812l-3.406-.522 2.28 2.926z" fill="#fff"/><path d="M288.447 445.812l-3.406-.522 2.28 2.926z" fill="none" stroke="#fff" stroke-width=".5" stroke-linecap="round" stroke-linejoin="round" stroke-miterlimit="3.864"/><path d="M274.808 452.026l-7.608-.622 7.08 2.685z" fill="#fff"/><path d="M274.808 452.026l-7.608-.622 7.08 2.685z" fill="none" stroke="#fff" stroke-width=".5" stroke-miterlimit="3.864"/><path d="M274.808 452.026l-7.608-.622 7.08 2.685z" fill="#fff"/><path d="M274.808 452.026l-7.608-.622 7.08 2.685z" fill="none" stroke="#fff" stroke-width=".5" stroke-linecap="round" stroke-linejoin="round" stroke-miterlimit="3.864"/><path d="M268.78 446.646l-2.114.14 1.469.865z" fill="#fff"/><path d="M268.78 446.646l-2.114.14 1.469.865z" fill="none" stroke="#fff" stroke-width=".5" stroke-miterlimit="3.864"/><path d="M268.78 446.646l-2.114.14 1.469.865z" fill="#fff"/><path d="M268.78 446.646l-2.114.14 1.469.865z" fill="none" stroke="#fff" stroke-width=".5" stroke-linecap="round" stroke-linejoin="round" stroke-miterlimit="3.864"/><path d="M288.93 432.198l2.479 2.843-6.872 2.483 2.415 1.027-.107 1.52-1.476.565.947 1.497-5.066-1.4-1.164-1.13 1.827-1.497-.844-1.585 2.495-.114-1.898-1.563.33-3.317 1.358-1.624z" fill="#fff"/><path d="M288.93 432.198l2.479 2.843-6.872 2.483 2.415 1.027-.107 1.52-1.476.565.947 1.497-5.066-1.4-1.164-1.13 1.827-1.497-.844-1.585 2.495-.114-1.898-1.563.33-3.317 1.358-1.624z" fill="none" stroke="#fff" stroke-width=".5" stroke-linecap="round" stroke-linejoin="round" stroke-miterlimit="3.864"/><path d="M276.982 442.92l-2.76-.192 2.401 1.216 1.665-.553z" fill="#fff"/><path d="M276.982 442.92l-2.76-.192 2.401 1.216 1.665-.553z" fill="none" stroke="#fff" stroke-width=".5" stroke-miterlimit="3.864"/><path d="M276.982 442.92l-2.76-.192 2.401 1.216 1.665-.553z" fill="#fff"/><path d="M276.982 442.92l-2.76-.192 2.401 1.216 1.665-.553z" fill="none" stroke="#fff" stroke-width=".5" stroke-linecap="round" stroke-linejoin="round" stroke-miterlimit="3.864"/><path d="M362.854 436.455l-1.439 1.427 1.365-.382z" fill="#fff"/><path d="M362.854 436.455l-1.439 1.427 1.365-.382z" fill="none" stroke="#fff" stroke-width=".5" stroke-miterlimit="3.864"/><path d="M362.854 436.455l-1.439 1.427 1.365-.382z" fill="#fff"/><path d="M362.854 436.455l-1.439 1.427 1.365-.382z" fill="none" stroke="#fff" stroke-width=".5" stroke-linecap="round" stroke-linejoin="round" stroke-miterlimit="3.864"/><path d="M225.35 437.247l-1.176 1.73-1.223-.274-8.13-6.766 4.556 1.843 3.688 3.309z" fill="#fff"/><path d="M225.35 437.247l-1.176 1.73-1.223-.274-8.13-6.766 4.556 1.843 3.688 3.309z" fill="none" stroke="#fff" stroke-width=".5" stroke-miterlimit="3.864"/><path d="M225.35 437.247l-1.176 1.73-1.223-.274-8.13-6.766 4.556 1.843 3.688 3.309z" fill="#fff"/><path d="M225.35 437.247l-1.176 1.73-1.223-.274-8.13-6.766 4.556 1.843 3.688 3.309z" fill="none" stroke="#fff" stroke-width=".5" stroke-linecap="round" stroke-linejoin="round" stroke-miterlimit="3.864"/><path d="M253.114 444.99l4.13 2.48 4.276.391 4.442 2.121.25-.842-1.79-1.746-.362-1.648 3.848-.306 1.45 1.15 2.738-.86 2.191 1.488 6.888 1.335 1.767-.64.767-1.38-.477-1.369-1.946-.898-1.576.655-.953-1.403-2.215 1.565-3.198-2.13-1.386.668-17.474-3.118-.754 1.188 5.557 2.58z" fill="#fff"/><path d="M253.114 444.99l4.13 2.48 4.276.391 4.442 2.121.25-.842-1.79-1.746-.362-1.648 3.848-.306 1.45 1.15 2.738-.86 2.191 1.488 6.888 1.335 1.767-.64.767-1.38-.477-1.369-1.946-.898-1.576.655-.953-1.403-2.215 1.565-3.198-2.13-1.386.668-17.474-3.118-.754 1.188 5.557 2.58z" fill="none" stroke="#fff" stroke-width=".5" stroke-miterlimit="3.864"/><path d="M253.114 444.99l4.13 2.48 4.276.391 4.442 2.121.25-.842-1.79-1.746-.362-1.648 3.848-.306 1.45 1.15 2.738-.86 2.191 1.488 6.888 1.335 1.767-.64.767-1.38-.477-1.369-1.946-.898-1.576.655-.953-1.403-2.215 1.565-3.198-2.13-1.386.668-17.474-3.118-.754 1.188 5.557 2.58z" fill="#fff"/><path d="M253.114 444.99l4.13 2.48 4.276.391 4.442 2.121.25-.842-1.79-1.746-.362-1.648 3.848-.306 1.45 1.15 2.738-.86 2.191 1.488 6.888 1.335 1.767-.64.767-1.38-.477-1.369-1.946-.898-1.576.655-.953-1.403-2.215 1.565-3.198-2.13-1.386.668-17.474-3.118-.754 1.188 5.557 2.58z" fill="none" stroke="#fff" stroke-width=".5" stroke-linecap="round" stroke-linejoin="round" stroke-miterlimit="3.864"/><path d="M256.954 435.33l-2.91-.774 1.823 1.272z" fill="#fff"/><path d="M256.954 435.33l-2.91-.774 1.823 1.272z" fill="none" stroke="#fff" stroke-width=".5" stroke-miterlimit="3.864"/><path d="M256.954 435.33l-2.91-.774 1.823 1.272z" fill="#fff"/><path d="M256.954 435.33l-2.91-.774 1.823 1.272z" fill="none" stroke="#fff" stroke-width=".5" stroke-linecap="round" stroke-linejoin="round" stroke-miterlimit="3.864"/><path d="M231 410.057l.887 2.352 1.638-.173 2.288 2.83 2.134-.425-2.078-4.438 1.957-.628-2.83-3.25-2.306.127-2.172 2.33z" fill="#fff"/><path d="M231 410.057l.887 2.352 1.638-.173 2.288 2.83 2.134-.425-2.078-4.438 1.957-.628-2.83-3.25-2.306.127-2.172 2.33z" fill="none" stroke="#fff" stroke-width=".5" stroke-miterlimit="3.864"/><path d="M231 410.057l.887 2.352 1.638-.173 2.288 2.83 2.134-.425-2.078-4.438 1.957-.628-2.83-3.25-2.306.127-2.172 2.33z" fill="#fff"/><path d="M231 410.057l.887 2.352 1.638-.173 2.288 2.83 2.134-.425-2.078-4.438 1.957-.628-2.83-3.25-2.306.127-2.172 2.33z" fill="none" stroke="#fff" stroke-width=".5" stroke-linecap="round" stroke-linejoin="round" stroke-miterlimit="3.864"/><path d="M274.796 408.888l1.047.073-1.104-3.322-6.27-1.96 1.28 2.188 2.937.394.3 1.166-2-.139 1.866 2.038z" fill="#fff"/><path d="M274.796 408.888l1.047.073-1.104-3.322-6.27-1.96 1.28 2.188 2.937.394.3 1.166-2-.139 1.866 2.038z" fill="none" stroke="#fff" stroke-width=".5" stroke-miterlimit="3.864"/><path d="M274.796 408.888l1.047.073-1.104-3.322-6.27-1.96 1.28 2.188 2.937.394.3 1.166-2-.139 1.866 2.038z" fill="#fff"/><path d="M274.796 408.888l1.047.073-1.104-3.322-6.27-1.96 1.28 2.188 2.937.394.3 1.166-2-.139 1.866 2.038z" fill="none" stroke="#fff" stroke-width=".5" stroke-linecap="round" stroke-linejoin="round" stroke-miterlimit="3.864"/><path d="M274.248 404.46l-.273-1.545-1.81-.125.92 1.877z" fill="#fff"/><path d="M274.248 404.46l-.273-1.545-1.81-.125.92 1.877z" fill="none" stroke="#fff" stroke-width=".5" stroke-miterlimit="3.864"/><path d="M274.248 404.46l-.273-1.545-1.81-.125.92 1.877z" fill="#fff"/><path d="M274.248 404.46l-.273-1.545-1.81-.125.92 1.877z" fill="none" stroke="#fff" stroke-width=".5" stroke-linecap="round" stroke-linejoin="round" stroke-miterlimit="3.864"/><path d="M278.486 408.094l-.72-.623 1.066-.212-.205-1.16-2.557-.367-.399 1.595.565 1.47z" fill="#fff"/><path d="M278.486 408.094l-.72-.623 1.066-.212-.205-1.16-2.557-.367-.399 1.595.565 1.47z" fill="none" stroke="#fff" stroke-width=".5" stroke-miterlimit="3.864"/><path d="M278.486 408.094l-.72-.623 1.066-.212-.205-1.16-2.557-.367-.399 1.595.565 1.47z" fill="#fff"/><path d="M278.486 408.094l-.72-.623 1.066-.212-.205-1.16-2.557-.367-.399 1.595.565 1.47z" fill="none" stroke="#fff" stroke-width=".5" stroke-linecap="round" stroke-linejoin="round" stroke-miterlimit="3.864"/><path d="M252.569 391.795l-.218-.97-1.951.533z" fill="#fff"/><path d="M252.569 391.795l-.218-.97-1.951.533z" fill="none" stroke="#fff" stroke-width=".5" stroke-miterlimit="3.864"/><path d="M252.569 391.795l-.218-.97-1.951.533z" fill="#fff"/><path d="M252.569 391.795l-.218-.97-1.951.533z" fill="none" stroke="#fff" stroke-width=".5" stroke-linecap="round" stroke-linejoin="round" stroke-miterlimit="3.864"/><path d="M243.41 418.55l-.528 3.4-3.398 2.056.235 3.45-9.307.406 4.382 4.312 8.964 3.102 6.642.746 1.665-.553.433-2.07 1.823-.065 3.305 1.946 4.364-.842 7.356.128 2.986 1.065 1.218 1.707 3.53.148 3.931-4.214.322-4.558-3.129-1.744 3.297-.63-.553-2.998-3.096-2.218-2.477-2.843-10.857.68-9.73-1.723-1.554 3.041-2.742-3.147-3.183-.984 1.894 4.33z" fill="#fff"/><path d="M243.41 418.55l-.528 3.4-3.398 2.056.235 3.45-9.307.406 4.382 4.312 8.964 3.102 6.642.746 1.665-.553.433-2.07 1.823-.065 3.305 1.946 4.364-.842 7.356.128 2.986 1.065 1.218 1.707 3.53.148 3.931-4.214.322-4.558-3.129-1.744 3.297-.63-.553-2.998-3.096-2.218-2.477-2.843-10.857.68-9.73-1.723-1.554 3.041-2.742-3.147-3.183-.984 1.894 4.33z" fill="none" stroke="#fff" stroke-width=".5" stroke-linecap="round" stroke-linejoin="round" stroke-miterlimit="3.864"/><path d="M209.98 373.196l2.462 1.697-.16 2.28 4.671 8.339 3.386.808-.378 2.646 2.563.272-1.644 1.604-7.164-5.553 1.161-1.542-2.884-2.49-1.794 1.021-2.136-.912-.179-2.875-3.569.421z" fill="#fff"/><path d="M209.98 373.196l2.462 1.697-.16 2.28 4.671 8.339 3.386.808-.378 2.646 2.563.272-1.644 1.604-7.164-5.553 1.161-1.542-2.884-2.49-1.794 1.021-2.136-.912-.179-2.875-3.569.421z" fill="none" stroke="#fff" stroke-width=".5" stroke-linecap="round" stroke-linejoin="round" stroke-miterlimit="3.864"/><path d="M214.344 387.24l-.005 1.432-.837-.344.423.792-3.1.549-1.37-2.29-2.21.134-1.162-1.13 2.145-3.288 3.749 2.455z" fill="#fff"/><path d="M214.344 387.24l-.005 1.432-.837-.344.423.792-3.1.549-1.37-2.29-2.21.134-1.162-1.13 2.145-3.288 3.749 2.455z" fill="none" stroke="#fff" stroke-width=".5" stroke-linecap="round" stroke-linejoin="round" stroke-miterlimit="3.864"/><path d="M192.167 350.49l-.966-1.211-.115 1.614z" fill="#fff"/><path d="M192.167 350.49l-.966-1.211-.115 1.614z" fill="none" stroke="#fff" stroke-width=".5" stroke-miterlimit="3.864"/><path d="M192.167 350.49l-.966-1.211-.115 1.614z" fill="#fff"/><path d="M192.167 350.49l-.966-1.211-.115 1.614z" fill="none" stroke="#fff" stroke-width=".5" stroke-linecap="round" stroke-linejoin="round" stroke-miterlimit="3.864"/><path d="M225.091 371.856l.605-.436-1.953-2.139-.114 1.615z" fill="#fff"/><path d="M225.091 371.856l.605-.436-1.953-2.139-.114 1.615z" fill="none" stroke="#fff" stroke-width=".5" stroke-miterlimit="3.864"/><path d="M225.091 371.856l.605-.436-1.953-2.139-.114 1.615z" fill="#fff"/><path d="M225.091 371.856l.605-.436-1.953-2.139-.114 1.615z" fill="none" stroke="#fff" stroke-width=".5" stroke-linecap="round" stroke-linejoin="round" stroke-miterlimit="3.864"/><path d="M210.477 314.73l-2.045 1.862 1.147-2.689 2.548-.873z" fill="#fff"/><path d="M210.477 314.73l-2.045 1.862 1.147-2.689 2.548-.873z" fill="none" stroke="#fff" stroke-width=".5" stroke-miterlimit="3.864"/><path d="M210.477 314.73l-2.045 1.862 1.147-2.689 2.548-.873z" fill="#fff"/><path d="M210.477 314.73l-2.045 1.862 1.147-2.689 2.548-.873z" fill="none" stroke="#fff" stroke-width=".5" stroke-linecap="round" stroke-linejoin="round" stroke-miterlimit="3.864"/><path d="M209.296 324.668l-1.795-.315-.302-2.502 1.616-2.56 1.579 2.017z" fill="#fff"/><path d="M209.296 324.668l-1.795-.315-.302-2.502 1.616-2.56 1.579 2.017z" fill="none" stroke="#fff" stroke-width=".5" stroke-miterlimit="3.864"/><path d="M209.296 324.668l-1.795-.315-.302-2.502 1.616-2.56 1.579 2.017z" fill="#fff"/><path d="M209.296 324.668l-1.795-.315-.302-2.502 1.616-2.56 1.579 2.017z" fill="none" stroke="#fff" stroke-width=".5" stroke-linecap="round" stroke-linejoin="round" stroke-miterlimit="3.864"/><path d="M201.518 331.86l-2.572-2.85-1.463 5.815z" fill="#fff"/><path d="M201.518 331.86l-2.572-2.85-1.463 5.815z" fill="none" stroke="#fff" stroke-width=".5" stroke-miterlimit="3.864"/><path d="M201.518 331.86l-2.572-2.85-1.463 5.815z" fill="#fff"/><path d="M201.518 331.86l-2.572-2.85-1.463 5.815z" fill="none" stroke="#fff" stroke-width=".5" stroke-linecap="round" stroke-linejoin="round" stroke-miterlimit="3.864"/><path d="M198.914 345.709l-2.166-4.54-1.543.18 2.43 4.844z" fill="#fff"/><path d="M198.914 345.709l-2.166-4.54-1.543.18 2.43 4.844z" fill="none" stroke="#fff" stroke-width=".5" stroke-miterlimit="3.864"/><path d="M198.914 345.709l-2.166-4.54-1.543.18 2.43 4.844z" fill="#fff"/><path d="M198.914 345.709l-2.166-4.54-1.543.18 2.43 4.844z" fill="none" stroke="#fff" stroke-width=".5" stroke-linecap="round" stroke-linejoin="round" stroke-miterlimit="3.864"/><path d="M201.65 348.952l-2.45-3.224.675 2.624z" fill="#fff"/><path d="M201.65 348.952l-2.45-3.224.675 2.624z" fill="none" stroke="#fff" stroke-width=".5" stroke-miterlimit="3.864"/><path d="M201.65 348.952l-2.45-3.224.675 2.624z" fill="#fff"/><path d="M201.65 348.952l-2.45-3.224.675 2.624z" fill="none" stroke="#fff" stroke-width=".5" stroke-linecap="round" stroke-linejoin="round" stroke-miterlimit="3.864"/><path d="M239.264 192.942l7.485-.34-.774 1.473 2.012-.051.58 1.28 1.84-1.684 2.186-3.858-2.578-8.195-3.942.299-6.298 5.195 1.531 1.348-2.43 3.267z" fill="#fff"/><path d="M239.264 192.942l7.485-.34-.774 1.473 2.012-.051.58 1.28 1.84-1.684 2.186-3.858-2.578-8.195-3.942.299-6.298 5.195 1.531 1.348-2.43 3.267z" fill="none" stroke="#fff" stroke-width=".5" stroke-miterlimit="3.864"/><path d="M239.264 192.942l7.485-.34-.774 1.473 2.012-.051.58 1.28 1.84-1.684 2.186-3.858-2.578-8.195-3.942.299-6.298 5.195 1.531 1.348-2.43 3.267z" fill="#fff"/><path d="M239.264 192.942l7.485-.34-.774 1.473 2.012-.051.58 1.28 1.84-1.684 2.186-3.858-2.578-8.195-3.942.299-6.298 5.195 1.531 1.348-2.43 3.267z" fill="none" stroke="#fff" stroke-width=".5" stroke-linecap="round" stroke-linejoin="round" stroke-miterlimit="3.864"/><path d="M306.413 405.445l1.807-1.21-1.26-1.138-1.168.301z" fill="#fff"/><path d="M306.413 405.445l1.807-1.21-1.26-1.138-1.168.301z" fill="none" stroke="#fff" stroke-width=".5" stroke-miterlimit="3.864"/><path d="M306.413 405.445l1.807-1.21-1.26-1.138-1.168.301z" fill="#fff"/><path d="M306.413 405.445l1.807-1.21-1.26-1.138-1.168.301z" fill="none" stroke="#fff" stroke-width=".5" stroke-linecap="round" stroke-linejoin="round" stroke-miterlimit="3.864"/><path d="M307.518 403.327l1.965.613 1.316-2.39-3.472.428z" fill="#fff"/><path d="M307.518 403.327l1.965.613 1.316-2.39-3.472.428z" fill="none" stroke="#fff" stroke-width=".5" stroke-miterlimit="3.864"/><path d="M307.518 403.327l1.965.613 1.316-2.39-3.472.428z" fill="#fff"/><path d="M307.518 403.327l1.965.613 1.316-2.39-3.472.428z" fill="none" stroke="#fff" stroke-width=".5" stroke-linecap="round" stroke-linejoin="round" stroke-miterlimit="3.864"/><path d="M311.608 400.938l-.363 2.456 2.765-1.24-1.865-2.038z" fill="#fff"/><path d="M311.608 400.938l-.363 2.456 2.765-1.24-1.865-2.038z" fill="none" stroke="#fff" stroke-width=".5" stroke-miterlimit="3.864"/><path d="M311.608 400.938l-.363 2.456 2.765-1.24-1.865-2.038z" fill="#fff"/><path d="M311.608 400.938l-.363 2.456 2.765-1.24-1.865-2.038z" fill="none" stroke="#fff" stroke-width=".5" stroke-linecap="round" stroke-linejoin="round" stroke-miterlimit="3.864"/><path d="M323.924 397.21l.543-.917-1.047-.072z" fill="#fff"/><path d="M323.924 397.21l.543-.917-1.047-.072z" fill="none" stroke="#fff" stroke-width=".5" stroke-miterlimit="3.864"/><path d="M323.924 397.21l.543-.917-1.047-.072z" fill="#fff"/><path d="M323.924 397.21l.543-.917-1.047-.072z" fill="none" stroke="#fff" stroke-width=".5" stroke-linecap="round" stroke-linejoin="round" stroke-miterlimit="3.864"/><path d="M331.747 409.68l-.053.76 2.875-.088-1.062-2.555-2.834.854z" fill="#fff"/><path d="M331.747 409.68l-.053.76 2.875-.088-1.062-2.555-2.834.854z" fill="none" stroke="#fff" stroke-width=".5" stroke-miterlimit="3.864"/><path d="M331.747 409.68l-.053.76 2.875-.088-1.062-2.555-2.834.854z" fill="#fff"/><path d="M331.747 409.68l-.053.76 2.875-.088-1.062-2.555-2.834.854z" fill="none" stroke="#fff" stroke-width=".5" stroke-linecap="round" stroke-linejoin="round" stroke-miterlimit="3.864"/><path d="M331.204 410.597l2.307 1.209 1.039-1.168z" fill="#fff"/><path d="M331.204 410.597l2.307 1.209 1.039-1.168z" fill="none" stroke="#fff" stroke-width=".5" stroke-miterlimit="3.864"/><path d="M331.204 410.597l2.307 1.209 1.039-1.168z" fill="#fff"/><path d="M331.204 410.597l2.307 1.209 1.039-1.168z" fill="none" stroke="#fff" stroke-width=".5" stroke-linecap="round" stroke-linejoin="round" stroke-miterlimit="3.864"/><path d="M333.674 412.199l2.482 1.413-.402-1.078z" fill="#fff"/><path d="M333.674 412.199l2.482 1.413-.402-1.078z" fill="none" stroke="#fff" stroke-width=".5" stroke-miterlimit="3.864"/><path d="M333.674 412.199l2.482 1.413-.402-1.078z" fill="#fff"/><path d="M333.674 412.199l2.482 1.413-.402-1.078z" fill="none" stroke="#fff" stroke-width=".5" stroke-linecap="round" stroke-linejoin="round" stroke-miterlimit="3.864"/><path d="M336.532 408.294l2.184.246-1.233-1.517z" fill="#fff"/><path d="M336.532 408.294l2.184.246-1.233-1.517z" fill="none" stroke="#fff" stroke-width=".5" stroke-miterlimit="3.864"/><path d="M336.532 408.294l2.184.246-1.233-1.517z" fill="#fff"/><path d="M336.532 408.294l2.184.246-1.233-1.517z" fill="none" stroke="#fff" stroke-width=".5" stroke-linecap="round" stroke-linejoin="round" stroke-miterlimit="3.864"/><path d="M342.981 428.017l.484 1.274 1.569-1.895z" fill="#fff"/><path d="M342.981 428.017l.484 1.274 1.569-1.895z" fill="none" stroke="#fff" stroke-width=".5" stroke-miterlimit="3.864"/><path d="M342.981 428.017l.484 1.274 1.569-1.895z" fill="#fff"/><path d="M342.981 428.017l.484 1.274 1.569-1.895z" fill="none" stroke="#fff" stroke-width=".5" stroke-linecap="round" stroke-linejoin="round" stroke-miterlimit="3.864"/><path d="M288.708 404.22l-1.809-.125-.382-1.363z" fill="#fff"/><path d="M288.708 404.22l-1.809-.125-.382-1.363z" fill="none" stroke="#fff" stroke-width=".5" stroke-miterlimit="3.864"/><path d="M288.708 404.22l-1.809-.125-.382-1.363z" fill="#fff"/><path d="M288.708 404.22l-1.809-.125-.382-1.363z" fill="none" stroke="#fff" stroke-width=".5" stroke-linecap="round" stroke-linejoin="round" stroke-miterlimit="3.864"/><path d="M292.589 403.44l-.701-.908 1.305.472z" fill="#fff"/><path d="M292.589 403.44l-.701-.908 1.305.472z" fill="none" stroke="#fff" stroke-width=".5" stroke-miterlimit="3.864"/><path d="M292.589 403.44l-.701-.908 1.305.472z" fill="#fff"/><path d="M292.589 403.44l-.701-.908 1.305.472z" fill="none" stroke="#fff" stroke-width=".5" stroke-linecap="round" stroke-linejoin="round" stroke-miterlimit="3.864"/><path d="M293.963 404.298l-.199-1.254.92.54z" fill="#fff"/><path d="M293.963 404.298l-.199-1.254.92.54z" fill="none" stroke="#fff" stroke-width=".5" stroke-miterlimit="3.864"/><path d="M293.963 404.298l-.199-1.254.92.54z" fill="#fff"/><path d="M293.963 404.298l-.199-1.254.92.54z" fill="none" stroke="#fff" stroke-width=".5" stroke-linecap="round" stroke-linejoin="round" stroke-miterlimit="3.864"/><path d="M276.57 379.713l1.147-1.353-1.992-.232z" fill="#fff"/><path d="M276.57 379.713l1.147-1.353-1.992-.232z" fill="none" stroke="#fff" stroke-width=".5" stroke-miterlimit="3.864"/><path d="M276.57 379.713l1.147-1.353-1.992-.232z" fill="#fff"/><path d="M276.57 379.713l1.147-1.353-1.992-.232z" fill="none" stroke="#fff" stroke-width=".5" stroke-linecap="round" stroke-linejoin="round" stroke-miterlimit="3.864"/><path d="M283.96 387.477l1.768-.64-1.451-2.487.35-3.602-2.563 1.062.662 1.478-1.774.736z" fill="#fff"/><path d="M283.96 387.477l1.768-.64-1.451-2.487.35-3.602-2.563 1.062.662 1.478-1.774.736z" fill="none" stroke="#fff" stroke-width=".5" stroke-miterlimit="3.864"/><path d="M283.96 387.477l1.768-.64-1.451-2.487.35-3.602-2.563 1.062.662 1.478-1.774.736z" fill="#fff"/><path d="M283.96 387.477l1.768-.64-1.451-2.487.35-3.602-2.563 1.062.662 1.478-1.774.736z" fill="none" stroke="#fff" stroke-width=".5" stroke-linecap="round" stroke-linejoin="round" stroke-miterlimit="3.864"/><path d="M284.166 388.636l2.287 2.831 4.156 2.101 4.814.905-.37-1.552-7.147-3.072-1.906-2.804-1.76.547z" fill="#fff"/><path d="M284.166 388.636l2.287 2.831 4.156 2.101 4.814.905-.37-1.552-7.147-3.072-1.906-2.804-1.76.547z" fill="none" stroke="#fff" stroke-width=".5" stroke-miterlimit="3.864"/><path d="M284.166 388.636l2.287 2.831 4.156 2.101 4.814.905-.37-1.552-7.147-3.072-1.906-2.804-1.76.547z" fill="#fff"/><path d="M284.166 388.636l2.287 2.831 4.156 2.101 4.814.905-.37-1.552-7.147-3.072-1.906-2.804-1.76.547z" fill="none" stroke="#fff" stroke-width=".5" stroke-linecap="round" stroke-linejoin="round" stroke-miterlimit="3.864"/><path d="M285.782 379.3l.402 1.078 1.079-1.739z" fill="#fff"/><path d="M285.782 379.3l.402 1.078 1.079-1.739z" fill="none" stroke="#fff" stroke-width=".5" stroke-miterlimit="3.864"/><path d="M285.782 379.3l.402 1.078 1.079-1.739z" fill="#fff"/><path d="M285.782 379.3l.402 1.078 1.079-1.739z" fill="none" stroke="#fff" stroke-width=".5" stroke-linecap="round" stroke-linejoin="round" stroke-miterlimit="3.864"/><path d="M381.407 383.722l12.592-6.286-1.83-1.176 5.937-4.17-.226-2.21-12.744 9.806z" fill="#fff"/><path d="M381.407 383.722l12.592-6.286-1.83-1.176 5.937-4.17-.226-2.21-12.744 9.806z" fill="none" stroke="#fff" stroke-width=".5" stroke-miterlimit="3.864"/><path d="M381.407 383.722l12.592-6.286-1.83-1.176 5.937-4.17-.226-2.21-12.744 9.806z" fill="#fff"/><path d="M381.407 383.722l12.592-6.286-1.83-1.176 5.937-4.17-.226-2.21-12.744 9.806z" fill="none" stroke="#fff" stroke-width=".5" stroke-linecap="round" stroke-linejoin="round" stroke-miterlimit="3.864"/><path d="M403.012 370.33l-.047.665 1.992-1.103-.248-3.262 1.024-2.315-1.864-.702.596-4.348-2.039 1.767-.344 3.507-3.44 4.057 3.145.122z" fill="#fff"/><path d="M403.012 370.33l-.047.665 1.992-1.103-.248-3.262 1.024-2.315-1.864-.702.596-4.348-2.039 1.767-.344 3.507-3.44 4.057 3.145.122z" fill="none" stroke="#fff" stroke-width=".5" stroke-miterlimit="3.864"/><path d="M403.012 370.33l-.047.665 1.992-1.103-.248-3.262 1.024-2.315-1.864-.702.596-4.348-2.039 1.767-.344 3.507-3.44 4.057 3.145.122z" fill="#fff"/><path d="M403.012 370.33l-.047.665 1.992-1.103-.248-3.262 1.024-2.315-1.864-.702.596-4.348-2.039 1.767-.344 3.507-3.44 4.057 3.145.122z" fill="none" stroke="#fff" stroke-width=".5" stroke-linecap="round" stroke-linejoin="round" stroke-miterlimit="3.864"/><path d="M405.424 360.572l4.084-2.294 5.477-11.168-.936-3.024-1.035-1.598.29-4.084-1.456.28-.59 1.582-2.344-6.08-1.523-1.44.08 5.636 2.777 4.01-1.689 4.94 1.383 2.1-1.389 4.772-3.315 4.924z" fill="#fff"/><path d="M405.424 360.572l4.084-2.294 5.477-11.168-.936-3.024-1.035-1.598.29-4.084-1.456.28-.59 1.582-2.344-6.08-1.523-1.44.08 5.636 2.777 4.01-1.689 4.94 1.383 2.1-1.389 4.772-3.315 4.924z" fill="none" stroke="#fff" stroke-width=".5" stroke-miterlimit="3.864"/><path d="M405.424 360.572l4.084-2.294 5.477-11.168-.936-3.024-1.035-1.598.29-4.084-1.456.28-.59 1.582-2.344-6.08-1.523-1.44.08 5.636 2.777 4.01-1.689 4.94 1.383 2.1-1.389 4.772-3.315 4.924z" fill="#fff"/><path d="M405.424 360.572l4.084-2.294 5.477-11.168-.936-3.024-1.035-1.598.29-4.084-1.456.28-.59 1.582-2.344-6.08-1.523-1.44.08 5.636 2.777 4.01-1.689 4.94 1.383 2.1-1.389 4.772-3.315 4.924z" fill="none" stroke="#fff" stroke-width=".5" stroke-linecap="round" stroke-linejoin="round" stroke-miterlimit="3.864"/><path d="M411.956 335.829l-.643-3.098-1.658.458.637 4.529 1.543-.18z" fill="#fff"/><path d="M411.956 335.829l-.643-3.098-1.658.458.637 4.529 1.543-.18z" fill="none" stroke="#fff" stroke-width=".5" stroke-miterlimit="3.864"/><path d="M411.956 335.829l-.643-3.098-1.658.458.637 4.529 1.543-.18z" fill="#fff"/><path d="M411.956 335.829l-.643-3.098-1.658.458.637 4.529 1.543-.18z" fill="none" stroke="#fff" stroke-width=".5" stroke-linecap="round" stroke-linejoin="round" stroke-miterlimit="3.864"/><path d="M407.417 332.365l-.355-3.079.937-1.08.654 1.573 1.479-3.334 1.142.08-1.136 5.265-1.428 1.237z" fill="#fff"/><path d="M407.417 332.365l-.355-3.079.937-1.08.654 1.573 1.479-3.334 1.142.08-1.136 5.265-1.428 1.237z" fill="none" stroke="#fff" stroke-width=".5" stroke-miterlimit="3.864"/><path d="M407.417 332.365l-.355-3.079.937-1.08.654 1.573 1.479-3.334 1.142.08-1.136 5.265-1.428 1.237z" fill="#fff"/><path d="M407.417 332.365l-.355-3.079.937-1.08.654 1.573 1.479-3.334 1.142.08-1.136 5.265-1.428 1.237z" fill="none" stroke="#fff" stroke-width=".5" stroke-linecap="round" stroke-linejoin="round" stroke-miterlimit="3.864"/><path d="M389.852 276.371l1.266-.295-.303-2.502-1.178-2.277-1.89-.32-.875 1.56z" fill="#fff"/><path d="M389.852 276.371l1.266-.295-.303-2.502-1.178-2.277-1.89-.32-.875 1.56z" fill="none" stroke="#fff" stroke-width=".5" stroke-miterlimit="3.864"/><path d="M389.852 276.371l1.266-.295-.303-2.502-1.178-2.277-1.89-.32-.875 1.56z" fill="#fff"/><path d="M389.852 276.371l1.266-.295-.303-2.502-1.178-2.277-1.89-.32-.875 1.56z" fill="none" stroke="#fff" stroke-width=".5" stroke-linecap="round" stroke-linejoin="round" stroke-miterlimit="3.864"/><path d="M324.579 229.576l-1.31-3.145.57-2.632 1.148-1.352 1.442-.092 2.44 1.983-.024 1.717-4.082 3.628z" fill="#fff"/><path d="M324.579 229.576l-1.31-3.145.57-2.632 1.148-1.352 1.442-.092 2.44 1.983-.024 1.717-4.082 3.628z" fill="none" stroke="#fff" stroke-width=".5" stroke-miterlimit="3.864"/><path d="M324.579 229.576l-1.31-3.145.57-2.632 1.148-1.352 1.442-.092 2.44 1.983-.024 1.717-4.082 3.628" fill="none" stroke="#fff" stroke-width=".5" stroke-linecap="round" stroke-linejoin="round" stroke-miterlimit="3.864"/><path d="M394.56 285.572l.23-.557.953 1.401z" fill="#fff"/><path d="M394.56 285.572l.23-.557.953 1.401z" fill="none" stroke="#fff" stroke-width=".5" stroke-miterlimit="3.864"/><path d="M395.743 286.416l-1.184-.844m0 0l.23-.556.954 1.4" fill="none" stroke="#fff" stroke-width=".5" stroke-linecap="round" stroke-linejoin="round" stroke-miterlimit="3.864"/><path d="M404.819 301.456l1.217-.966.78-7.007-2.565 2.494z" fill="#fff"/><path d="M404.819 301.456l1.217-.966.78-7.007-2.565 2.494z" fill="none" stroke="#fff" stroke-width=".5" stroke-miterlimit="3.864"/><path d="M404.819 301.456l1.217-.966.78-7.007-2.565 2.494z" fill="#fff"/><path d="M404.819 301.456l1.217-.966.78-7.007-2.565 2.494z" fill="none" stroke="#fff" stroke-width=".5" stroke-linecap="round" stroke-linejoin="round" stroke-miterlimit="3.864"/><path d="M238.957 367.853l-1.094.592-.864-1.3z" fill="#fff"/><path d="M238.957 367.853l-1.094.592-.864-1.3z" fill="none" stroke="#fff" stroke-width=".5" stroke-miterlimit="3.864"/><path d="M238.957 367.853l-1.094.592-.864-1.3z" fill="#fff"/><path d="M238.957 367.853l-1.094.592-.864-1.3z" fill="none" stroke="#fff" stroke-width=".5" stroke-linecap="round" stroke-linejoin="round" stroke-miterlimit="3.864"/><path d="M224.657 306.262l1.245-.009-1.73-1.265-1.72-.024-.881 1.657z" fill="#fff"/><path d="M224.657 306.262l1.245-.009-1.73-1.265-1.72-.024-.881 1.657z" fill="none" stroke="#fff" stroke-width=".5" stroke-miterlimit="3.864"/><path d="M224.657 306.262l1.245-.009-1.73-1.265-1.72-.024-.881 1.657z" fill="#fff"/><path d="M224.657 306.262l1.245-.009-1.73-1.265-1.72-.024-.881 1.657z" fill="none" stroke="#fff" stroke-width=".5" stroke-linecap="round" stroke-linejoin="round" stroke-miterlimit="3.864"/><path d="M362.977 230.324l5.752 1.162 7.768-2.994 7.117-.557 2.84-3.62 2.76.191-.503-5.094-2.392-1.31-4.834.714-13.446 8.901-4.003 1.154z" fill="#fff"/><path d="M362.977 230.324l5.752 1.162 7.768-2.994 7.117-.557 2.84-3.62 2.76.191-.503-5.094-2.392-1.31-4.834.714-13.446 8.901-4.003 1.154z" fill="none" stroke="#fff" stroke-width=".5" stroke-miterlimit="3.864"/><path d="M362.977 230.324l5.752 1.162 7.768-2.994 7.117-.557 2.84-3.62 2.76.191-.503-5.094-2.392-1.31-4.834.714-13.446 8.901-4.003 1.154z" fill="#fff"/><path d="M362.977 230.324l5.752 1.162 7.768-2.994 7.117-.557 2.84-3.62 2.76.191-.503-5.094-2.392-1.31-4.834.714-13.446 8.901-4.003 1.154z" fill="none" stroke="#fff" stroke-width=".5" stroke-linecap="round" stroke-linejoin="round" stroke-miterlimit="3.864"/><path d="M387.23 225.514l1.7 1.645 1.705-1.124-.218-.968z" fill="#fff"/><path d="M387.23 225.514l1.7 1.645 1.705-1.124-.218-.968z" fill="none" stroke="#fff" stroke-width=".5" stroke-miterlimit="3.864"/><path d="M387.23 225.514l1.7 1.645 1.705-1.124-.218-.968z" fill="#fff"/><path d="M387.23 225.514l1.7 1.645 1.705-1.124-.218-.968z" fill="none" stroke="#fff" stroke-width=".5" stroke-linecap="round" stroke-linejoin="round" stroke-miterlimit="3.864"/><path d="M392.75 227.23l1.34-.001-1.266-1.041z" fill="#fff"/><path d="M392.75 227.23l1.34-.001-1.266-1.041z" fill="none" stroke="#fff" stroke-width=".5" stroke-miterlimit="3.864"/><path d="M392.75 227.23l1.34-.001-1.266-1.041z" fill="#fff"/><path d="M392.75 227.23l1.34-.001-1.266-1.041z" fill="none" stroke="#fff" stroke-width=".5" stroke-linecap="round" stroke-linejoin="round" stroke-miterlimit="3.864"/><path d="M401.68 222.696l-10.475-4.732-3.685-.637 2.131 2.342 5.543 1.433 4.263 3.254 6.746 1.994.102-1.425z" fill="#fff"/><path d="M401.68 222.696l-10.475-4.732-3.685-.637 2.131 2.342 5.543 1.433 4.263 3.254 6.746 1.994.102-1.425z" fill="none" stroke="#fff" stroke-width=".5" stroke-miterlimit="3.864"/><path d="M401.68 222.696l-10.475-4.732-3.685-.637 2.131 2.342 5.543 1.433 4.263 3.254 6.746 1.994.102-1.425z" fill="#fff"/><path d="M401.68 222.696l-10.475-4.732-3.685-.637 2.131 2.342 5.543 1.433 4.263 3.254 6.746 1.994.102-1.425z" fill="none" stroke="#fff" stroke-width=".5" stroke-linecap="round" stroke-linejoin="round" stroke-miterlimit="3.864"/><path d="M411.792 269.11l.69-1.67-3.315-7.197z" fill="#fff"/><path d="M411.792 269.11l.69-1.67-3.315-7.197z" fill="none" stroke="#fff" stroke-width=".5" stroke-miterlimit="3.864"/><path d="M411.792 269.11l.69-1.67-3.315-7.197z" fill="#fff"/><path d="M411.792 269.11l.69-1.67-3.315-7.197z" fill="none" stroke="#fff" stroke-width=".5" stroke-linecap="round" stroke-linejoin="round" stroke-miterlimit="3.864"/><path d="M412.348 274.777l2.033 1 .401-1.594-.329-.787z" fill="#fff"/><path d="M412.348 274.777l2.033 1 .401-1.594-.329-.787z" fill="none" stroke="#fff" stroke-width=".5" stroke-miterlimit="3.864"/><path d="M412.348 274.777l2.033 1 .401-1.594-.329-.787z" fill="#fff"/><path d="M412.348 274.777l2.033 1 .401-1.594-.329-.787z" fill="none" stroke="#fff" stroke-width=".5" stroke-linecap="round" stroke-linejoin="round" stroke-miterlimit="3.864"/><path d="M412.088 287.93l1.35-2.865-.514-4.903 1.295-2.105 3.558 2.44 1.1-2.022-6.23-2.531-3.15 3.98 1.122.365-1.177 5.836z" fill="#fff"/><path d="M412.088 287.93l1.35-2.865-.514-4.903 1.295-2.105 3.558 2.44 1.1-2.022-6.23-2.531-3.15 3.98 1.122.365-1.177 5.836z" fill="none" stroke="#fff" stroke-width=".5" stroke-miterlimit="3.864"/><path d="M412.088 287.93l1.35-2.865-.514-4.903 1.295-2.105 3.558 2.44 1.1-2.022-6.23-2.531-3.15 3.98 1.122.365-1.177 5.836z" fill="#fff"/><path d="M412.088 287.93l1.35-2.865-.514-4.903 1.295-2.105 3.558 2.44 1.1-2.022-6.23-2.531-3.15 3.98 1.122.365-1.177 5.836z" fill="none" stroke="#fff" stroke-width=".5" stroke-linecap="round" stroke-linejoin="round" stroke-miterlimit="3.864"/><path d="M417.625 277.242l1.76-.547-1.57-.775z" fill="#fff"/><path d="M417.625 277.242l1.76-.547-1.57-.775z" fill="none" stroke="#fff" stroke-width=".5" stroke-miterlimit="3.864"/><path d="M417.625 277.242l1.76-.547-1.57-.775z" fill="#fff"/><path d="M417.625 277.242l1.76-.547-1.57-.775z" fill="none" stroke="#fff" stroke-width=".5" stroke-linecap="round" stroke-linejoin="round" stroke-miterlimit="3.864"/><path d="M419.245 278.692l1.537 1.25 1.488-2.092-.81-.722z" fill="#fff"/><path d="M419.245 278.692l1.537 1.25 1.488-2.092-.81-.722z" fill="none" stroke="#fff" stroke-width=".5" stroke-miterlimit="3.864"/><path d="M419.245 278.692l1.537 1.25 1.488-2.092-.81-.722z" fill="#fff"/><path d="M419.245 278.692l1.537 1.25 1.488-2.092-.81-.722z" fill="none" stroke="#fff" stroke-width=".5" stroke-linecap="round" stroke-linejoin="round" stroke-miterlimit="3.864"/><path d="M415.76 273.87l2.264.442-1.377-3.53z" fill="#fff"/><path d="M415.76 273.87l2.264.442-1.377-3.53z" fill="none" stroke="#fff" stroke-width=".5" stroke-miterlimit="3.864"/><path d="M415.76 273.87l2.264.442-1.377-3.53z" fill="#fff"/><path d="M415.76 273.87l2.264.442-1.377-3.53z" fill="none" stroke="#fff" stroke-width=".5" stroke-linecap="round" stroke-linejoin="round" stroke-miterlimit="3.864"/><path d="M418.016 273.07l1.006.643.1-4.098-1.374.478z" fill="#fff"/><path d="M418.016 273.07l1.006.643.1-4.098-1.374.478z" fill="none" stroke="#fff" stroke-width=".5" stroke-miterlimit="3.864"/><path d="M418.016 273.07l1.006.643.1-4.098-1.374.478z" fill="#fff"/><path d="M418.016 273.07l1.006.643.1-4.098-1.374.478z" fill="none" stroke="#fff" stroke-width=".5" stroke-linecap="round" stroke-linejoin="round" stroke-miterlimit="3.864"/><path d="M419.881 276.445l1.211.465.55-2.348z" fill="#fff"/><path d="M419.881 276.445l1.211.465.55-2.348z" fill="none" stroke="#fff" stroke-width=".5" stroke-miterlimit="3.864"/><path d="M419.881 276.445l1.211.465.55-2.348z" fill="#fff"/><path d="M419.881 276.445l1.211.465.55-2.348z" fill="none" stroke="#fff" stroke-width=".5" stroke-linecap="round" stroke-linejoin="round" stroke-miterlimit="3.864"/><path d="M422.497 274.621l1.44-.092 1.427-2.572-.097-2.68-1.42-.193.56-2.537-6.222-2.627 1.52 5.545.925-.89z" fill="#fff"/><path d="M422.497 274.621l1.44-.092 1.427-2.572-.097-2.68-1.42-.193.56-2.537-6.222-2.627 1.52 5.545.925-.89z" fill="none" stroke="#fff" stroke-width=".5" stroke-miterlimit="3.864"/><path d="M422.497 274.621l1.44-.092 1.427-2.572-.097-2.68-1.42-.193.56-2.537-6.222-2.627 1.52 5.545.925-.89z" fill="#fff"/><path d="M422.497 274.621l1.44-.092 1.427-2.572-.097-2.68-1.42-.193.56-2.537-6.222-2.627 1.52 5.545.925-.89z" fill="none" stroke="#fff" stroke-width=".5" stroke-linecap="round" stroke-linejoin="round" stroke-miterlimit="3.864"/><path d="M429.637 253.451l2.227 3.686 1.85.89z" fill="#fff"/><path d="M429.637 253.451l2.227 3.686 1.85.89z" fill="none" stroke="#fff" stroke-width=".5" stroke-miterlimit="3.864"/><path d="M429.637 253.451l2.227 3.686 1.85.89z" fill="#fff"/><path d="M429.637 253.451l2.227 3.686 1.85.89z" fill="none" stroke="#fff" stroke-width=".5" stroke-linecap="round" stroke-linejoin="round" stroke-miterlimit="3.864"/><path d="M424.477 238.492l-2.533-3.42 2.138 3.584.083.197 3.873 4.754-3.487-4.822z" fill="#fff"/><path d="M424.477 238.492l-2.533-3.42 2.138 3.584.083.197 3.873 4.754-3.487-4.822z" fill="none" stroke="#fff" stroke-width=".5" stroke-linecap="round" stroke-linejoin="round" stroke-miterlimit="3.864"/><path d="M416.36 232.873l5.01 4.928-3.248-4.137z" fill="#fff"/><path d="M416.36 232.873l5.01 4.928-3.248-4.137z" fill="none" stroke="#fff" stroke-width=".5" stroke-miterlimit="3.864"/><path d="M416.36 232.873l5.01 4.928-3.248-4.137z" fill="#fff"/><path d="M416.36 232.873l5.01 4.928-3.248-4.137z" fill="none" stroke="#fff" stroke-width=".5" stroke-linecap="round" stroke-linejoin="round" stroke-miterlimit="3.864"/><path d="M416.168 231.524l1.34-.002-.613-.807-2.327-.923z" fill="#fff"/><path d="M416.168 231.524l1.34-.002-.613-.807-2.327-.923z" fill="none" stroke="#fff" stroke-width=".5" stroke-miterlimit="3.864"/><path d="M416.168 231.524l1.34-.002-.613-.807-2.327-.923z" fill="#fff"/><path d="M416.168 231.524l1.34-.002-.613-.807-2.327-.923z" fill="none" stroke="#fff" stroke-width=".5" stroke-linecap="round" stroke-linejoin="round" stroke-miterlimit="3.864"/><path d="M411.19 228.889l3.545 2.63-3.389-3.478-.654-.236z" fill="#fff"/><path d="M411.19 228.889l3.545 2.63-3.389-3.478-.654-.236z" fill="none" stroke="#fff" stroke-width=".5" stroke-miterlimit="3.864"/><path d="M411.19 228.889l3.545 2.63-3.389-3.478-.654-.236z" fill="#fff"/><path d="M411.19 228.889l3.545 2.63-3.389-3.478-.654-.236z" fill="none" stroke="#fff" stroke-width=".5" stroke-linecap="round" stroke-linejoin="round" stroke-miterlimit="3.864"/><path d="M407.333 226.62l1.109.552-.763-1.389-1.332-.092z" fill="#fff"/><path d="M407.333 226.62l1.109.552-.763-1.389-1.332-.092z" fill="none" stroke="#fff" stroke-width=".5" stroke-miterlimit="3.864"/><path d="M407.333 226.62l1.109.552-.763-1.389-1.332-.092z" fill="#fff"/><path d="M407.333 226.62l1.109.552-.763-1.389-1.332-.092z" fill="none" stroke="#fff" stroke-width=".5" stroke-linecap="round" stroke-linejoin="round" stroke-miterlimit="3.864"/><path d="M418.18 251.801l6.83 6.197-5.978-11.484 2.472-2.5-2.015-2.621-2.276 1.084.287-4.084-1.72-1.36-.9 3.278 1.577 8.793z" fill="#fff"/><path d="M418.18 251.801l6.83 6.197-5.978-11.484 2.472-2.5-2.015-2.621-2.276 1.084.287-4.084-1.72-1.36-.9 3.278 1.577 8.793z" fill="none" stroke="#fff" stroke-width=".5" stroke-miterlimit="3.864"/><path d="M418.18 251.801l6.83 6.197-5.978-11.484 2.472-2.5-2.015-2.621-2.276 1.084.287-4.084-1.72-1.36-.9 3.278 1.577 8.793z" fill="#fff"/><path d="M418.18 251.801l6.83 6.197-5.978-11.484 2.472-2.5-2.015-2.621-2.276 1.084.287-4.084-1.72-1.36-.9 3.278 1.577 8.793z" fill="none" stroke="#fff" stroke-width=".5" stroke-linecap="round" stroke-linejoin="round" stroke-miterlimit="3.864"/><path d="M426.834 251.158l1.625 1.354-.559-1.567z" fill="#fff"/><path d="M426.834 251.158l1.625 1.354-.559-1.567z" fill="none" stroke="#fff" stroke-width=".5" stroke-miterlimit="3.864"/><path d="M426.834 251.158l1.625 1.354-.559-1.567z" fill="#fff"/><path d="M426.834 251.158l1.625 1.354-.559-1.567z" fill="none" stroke="#fff" stroke-width=".5" stroke-linecap="round" stroke-linejoin="round" stroke-miterlimit="3.864"/><path d="M428.987 264l1.27-.389-.442-1.843.863-.038-.744-3.009-1.595 2.275z" fill="#fff"/><path d="M428.987 264l1.27-.389-.442-1.843.863-.038-.744-3.009-1.595 2.275z" fill="none" stroke="#fff" stroke-width=".5" stroke-miterlimit="3.864"/><path d="M428.987 264l1.27-.389-.442-1.843.863-.038-.744-3.009-1.595 2.275z" fill="#fff"/><path d="M428.987 264l1.27-.389-.442-1.843.863-.038-.744-3.009-1.595 2.275z" fill="none" stroke="#fff" stroke-width=".5" stroke-linecap="round" stroke-linejoin="round" stroke-miterlimit="3.864"/><path d="M444.885 259.66l-3.066-6.143-2.858-6.267-3.346-6.156-2.902-5.467-3.71-5.696-4.016-5.43-4.125-5.249-4.512-5.18-4.627-4.902-5.736-5.453-11.696-9.114 6.244 10.453 14.541 13.508 9.428 14.11 4.805 3.767 4.387 9.656 5.382 6.385 6.151 11.783.51.893-.93-5.789z" fill="#fff"/><path d="M444.885 259.66l-3.066-6.143-2.858-6.267-3.346-6.156-2.902-5.467-3.71-5.696-4.016-5.43-4.125-5.249-4.512-5.18-4.627-4.902-5.736-5.453-11.696-9.114 6.244 10.453 14.541 13.508 9.428 14.11 4.805 3.767 4.387 9.656 5.382 6.385 6.151 11.783.51.893-.93-5.789z" fill="none" stroke="#fff" stroke-width=".5" stroke-linecap="round" stroke-linejoin="round" stroke-miterlimit="3.864"/><path d="M286.934 404.957l-1.217-.371 1.924-.152z" fill="#fff"/><path d="M286.934 404.957l-1.217-.371 1.924-.152z" fill="none" stroke="#fff" stroke-width=".5" stroke-miterlimit="3.864"/><path d="M286.934 404.957l-1.217-.371 1.924-.152z" fill="#fff"/><path d="M286.934 404.957l-1.217-.371 1.924-.152z" fill="none" stroke="#fff" stroke-width=".5" stroke-linecap="round" stroke-linejoin="round" stroke-miterlimit="3.864"/><path d="M350.19 357.131l2.334-5.946-1.965-6.053-2.107-1.291 2.009 5.388z" fill="#fff"/><path d="M350.19 357.131l2.334-5.946-1.965-6.053-2.107-1.291 2.009 5.388z" fill="none" stroke="#fff" stroke-width=".5" stroke-miterlimit="3.864"/><path d="M350.19 357.131l2.334-5.946-1.965-6.053-2.107-1.291 2.009 5.388z" fill="#fff"/><path d="M350.19 357.131l2.334-5.946-1.965-6.053-2.107-1.291 2.009 5.388z" fill="none" stroke="#fff" stroke-width=".5" stroke-linecap="round" stroke-linejoin="round" stroke-miterlimit="3.864"/><path d="M304.3 320.267l7.56-.049-8.643-2.22.311-3.033-1.725 2.743z" fill="#fff"/><path d="M304.3 320.267l7.56-.049-8.643-2.22.311-3.033-1.725 2.743z" fill="none" stroke="#fff" stroke-width=".5" stroke-miterlimit="3.864"/><path d="M304.3 320.267l7.56-.049-8.643-2.22.311-3.033-1.725 2.743z" fill="#fff"/><path d="M304.3 320.267l7.56-.049-8.643-2.22.311-3.033-1.725 2.743z" fill="none" stroke="#fff" stroke-width=".5" stroke-linecap="round" stroke-linejoin="round" stroke-miterlimit="3.864"/><path d="M255.66 307.453l1.536-.084-2.525 4.597-.84 3.76-.397 4.266 2.485 4.085 1.161-1.542 1.374.858-.434.734.85.154 3.406.522 2.93-.847 2.428-5.94-4.22 1.521-1.688-1.834-2.426.5 1.233-3.923 2.222-1.66-.247-1.925-.13-.868 1.578.682 2.023-2.914-1.163-1.13-2.419 1.74-.553-2.996 1.82-2.737-.583-3.953-.178-1.54-4.799.241-4.579 3.882-.086 2.571z" fill="#fff"/><path d="M255.66 307.453l1.536-.084-2.525 4.597-.84 3.76-.397 4.266 2.485 4.085 1.161-1.542 1.374.858-.434.734.85.154 3.406.522 2.93-.847 2.428-5.94-4.22 1.521-1.688-1.834-2.426.5 1.233-3.923 2.222-1.66-.247-1.925-.13-.868 1.578.682 2.023-2.914-1.163-1.13-2.419 1.74-.553-2.996 1.82-2.737-.583-3.953-.178-1.54-4.799.241-4.579 3.882-.086 2.571z" fill="none" stroke="#fff" stroke-width=".5" stroke-linecap="round" stroke-linejoin="round" stroke-miterlimit="3.864"/><path d="M276.637 312.436l3.334 2.903-.826 3.57 1.225 1.611-2.285-.158-4.232-3.729-.139-3.445z" fill="#fff"/><path d="M276.637 312.436l3.334 2.903-.826 3.57 1.225 1.611-2.285-.158-4.232-3.729-.139-3.445z" fill="none" stroke="#fff" stroke-width=".5" stroke-miterlimit="3.864"/><path d="M276.637 312.436l3.334 2.903-.826 3.57 1.225 1.611-2.285-.158-4.232-3.729-.139-3.445z" fill="#fff"/><path d="M276.637 312.436l3.334 2.903-.826 3.57 1.225 1.611-2.285-.158-4.232-3.729-.139-3.445z" fill="none" stroke="#fff" stroke-width=".5" stroke-linecap="round" stroke-linejoin="round" stroke-miterlimit="3.864"/><path d="M251.107 369.17l.31-3.031-2.713-.856.641 3.098z" fill="#fff"/><path d="M251.107 369.17l.31-3.031-2.713-.856.641 3.098z" fill="none" stroke="#fff" stroke-width=".5" stroke-miterlimit="3.864"/><path d="M251.107 369.17l.31-3.031-2.713-.856.641 3.098z" fill="#fff"/><path d="M251.107 369.17l.31-3.031-2.713-.856.641 3.098z" fill="none" stroke="#fff" stroke-width=".5" stroke-linecap="round" stroke-linejoin="round" stroke-miterlimit="3.864"/><path d="M310.231 454.286l5.914.218-3.084 1.695-4.277-.39-.803-.82z" fill="#fff"/><path d="M310.231 454.286l5.914.218-3.084 1.695-4.277-.39-.803-.82z" fill="none" stroke="#fff" stroke-width=".5" stroke-miterlimit="3.864"/><path d="M310.231 454.286l5.914.218-3.084 1.695-4.277-.39-.803-.82z" fill="#fff"/><path d="M310.231 454.286l5.914.218-3.084 1.695-4.277-.39-.803-.82z" fill="none" stroke="#fff" stroke-width=".5" stroke-linecap="round" stroke-linejoin="round" stroke-miterlimit="3.864"/><path d="M307.563 458.205l-7.88.504 9.288 1.216 2.821-.664z" fill="#fff"/><path d="M307.563 458.205l-7.88.504 9.288 1.216 2.821-.664z" fill="none" stroke="#fff" stroke-width=".5" stroke-miterlimit="3.864"/><path d="M307.563 458.205l-7.88.504 9.288 1.216 2.821-.664z" fill="#fff"/><path d="M307.563 458.205l-7.88.504 9.288 1.216 2.821-.664z" fill="none" stroke="#fff" stroke-width=".5" stroke-linecap="round" stroke-linejoin="round" stroke-miterlimit="3.864"/><path d="M283.635 462.466l-3.86.496 5.35.084z" fill="#fff"/><path d="M283.635 462.466l-3.86.496 5.35.084z" fill="none" stroke="#fff" stroke-width=".5" stroke-miterlimit="3.864"/><path d="M283.635 462.466l-3.86.496 5.35.084z" fill="#fff"/><path d="M283.635 462.466l-3.86.496 5.35.084z" fill="none" stroke="#fff" stroke-width=".5" stroke-linecap="round" stroke-linejoin="round" stroke-miterlimit="3.864"/><path d="M217.738 205.196l-2.391 2.697-.934 3.754-.122.373 2.77-4.009z" fill="#fff"/><path d="M217.738 205.196l-2.391 2.697-.934 3.754-.122.373 2.77-4.009z" fill="none" stroke="#fff" stroke-width=".5" stroke-linecap="round" stroke-linejoin="round" stroke-miterlimit="3.864"/><path d="M206.784 218.084l-2.79 4.293-1.05 5.367.923-2.226.935-3.752 3.314-4.926z" fill="#fff"/><path d="M206.784 218.084l-2.79 4.293-1.05 5.367.923-2.226.935-3.752 3.314-4.926z" fill="none" stroke="#fff" stroke-width=".5" stroke-linecap="round" stroke-linejoin="round" stroke-miterlimit="3.864"/><path d="M207.42 229.39l.117 1.058 3.84-1.547.38.025 1.657-1.793-1.156.112.142-.66.007-.094-1.742-1.075.917-.796-1.604-.301-2.33 1.842-.208 2.945z" fill="#fff"/><path d="M207.42 229.39l.117 1.058 3.84-1.547.38.025 1.657-1.793-1.156.112.142-.66.007-.094-1.742-1.075.917-.796-1.604-.301-2.33 1.842-.208 2.945z" fill="none" stroke="#fff" stroke-width=".5" stroke-linecap="round" stroke-linejoin="round" stroke-miterlimit="3.864"/><path d="M215.732 234.928l1.586-4.854-1.846 3.118z" fill="#fff"/><path d="M215.732 234.928l1.586-4.854-1.846 3.118z" fill="none" stroke="#fff" stroke-width=".5" stroke-miterlimit="3.864"/><path d="M215.732 234.928l1.586-4.854-1.846 3.118z" fill="#fff"/><path d="M215.732 234.928l1.586-4.854-1.846 3.118z" fill="none" stroke="#fff" stroke-width=".5" stroke-linecap="round" stroke-linejoin="round" stroke-miterlimit="3.864"/><path d="M205.93 235.586l.067-.95-1.435-.003z" fill="#fff"/><path d="M205.93 235.586l.067-.95-1.435-.003z" fill="none" stroke="#fff" stroke-width=".5" stroke-miterlimit="3.864"/><path d="M205.93 235.586l.067-.95-1.435-.003M447.352 354.693l-5.973 10.084-7.38 9.701-8.66 8.85-10.157 8.363-7.52 4.92-12.062 6.895-13.027 5.683-13.832 4.864-14.702 3.66-15.103 2.581-2.699.29" fill="none" stroke="#fff" stroke-width=".5" stroke-linecap="round" stroke-linejoin="round" stroke-miterlimit="3.864"/><path d="M445.098 514.736c13.525.216 47.87-37.097 48.65-41.878-107.234 32.637-271.896-274.976-160.832-379.35 2.938-2.76 11.086-6.682 10.832-6.555-8.37-5.875-43.722-6.793-59.874-4.25-3.908.615-6.506 2.531-9 5.5-119.132 141.713 46.757 424.563 170.224 426.533" fill="#007eb2"/><path d="M95.374 418.202c.854 12.328 22.937 45.813 36.688 54.313-1-1.094-1.973-3.09-2.178-4.297-13.26-90.266 164.006-233.71 332.869-208.324 2.244 1.065 7.783 17.955 7.783 17.955 17.34-17.056 40.969-20.046 67.59-12.57-47.857-56.83-130.408-78.963-130.408-78.963s11.365 8.375 19.74 20.34C212.105 185.121 90.124 342.452 95.374 418.202" fill="#008dc6"/><path d="M144.99 322.143c2.783-4.652 8.077-8.973 11.666-12.263 2.543 3.44 4.785 8.225 7.178 10.917 7.478-7.178 12.712-10.32 20.04-15.553 2.735 1.709 3.705 4.9 6.397 8.19-8.226 5.684-14.208 10.619-21.386 17.648 1.645 2.542 3.888 5.533 5.533 7.777 7.627-7.628 14.207-12.862 22.582-19.293 2.243 2.992 4.188 5.385 6.58 8.675-11.365 8.973-24.706 20.962-35.144 31.854-7.477-11.366-15.67-25.988-23.445-37.952M194.159 276.197c5.234-4.187 13.459-9.422 13.459-9.422l23.256 40.927s-9.417 6.05-13.236 8.873c-1.931-3.022-23.48-40.378-23.48-40.378M303.836 221.807s11.038-3.104 17.048-4.187c.463 1.42 12.113 32.6 12.113 32.6 6.28-2.091 18.096-4.933 18.096-4.933l3.29 10.469s-30.187 6.772-53.384 16.197c-.37-1.69-3.893-9.917-3.893-9.917 8.226-3.44 18.694-6.88 18.694-6.88z" fill="#fff"/><path d="M399.296 210.647s10.469-.3 17.797.299c-10.32 24.527-14.777 32.63-17.47 40.258-6.73 0-10.845.412-19.768 1.466-10.17-10.916-30.81-30.957-39.631-39.033 6.133-1.056 9.814-1.625 16.4-2.183 2.244 2.69 6.25 6.5 6.25 6.5 11.379-1.071 33.879-1.026 33.879-1.026zm-6.533 15.75c-5.96-.12-14.9-.174-21.088.299 4.636 4.935 14.448 15.008 14.448 15.008s4.246-9.623 6.64-15.307M271.776 232.977l15.852-5.533s-5.084 34.396-6.58 53.24c-4.298 1.645-12.711 5.637-17.924 8.52-2.635-1.831-24.847-16.747-43.254-29.258 6.155-3.973 13.322-7.905 13.322-7.905l5.683 4.565c11.839-6.738 32.452-16.301 32.452-16.301zm-3.44 20.787s-11.743 5.795-17.791 9.3c4.332 3.712 15.548 12.235 15.548 12.235z" fill="#fff" fill-rule="evenodd"/></g></svg>